<?xml version="1.0" encoding="UTF-8" standalone="no"?>
<svg
   width="145.34215"
   height="136.77092"
   viewBox="0 0 38.455109 36.187307"
   version="1.1"
   id="svg8"
   inkscape:version="1.1.1 (3bf5ae0d25, 2021-09-20)"
   sodipodi:docname="gear.svg"
   xmlns:inkscape="http://www.inkscape.org/namespaces/inkscape"
   xmlns:sodipodi="http://sodipodi.sourceforge.net/DTD/sodipodi-0.dtd"
   xmlns="http://www.w3.org/2000/svg"
   xmlns:svg="http://www.w3.org/2000/svg"
   xmlns:rdf="http://www.w3.org/1999/02/22-rdf-syntax-ns#"
   xmlns:cc="http://creativecommons.org/ns#"
   xmlns:dc="http://purl.org/dc/elements/1.1/">
  <defs
     id="defs2">
    <inkscape:path-effect
       effect="fill_between_many"
       method="originald"
       linkedpaths="#path3655,0,1"
       id="path-effect7828"
       is_visible="true"
       lpeversion="0"
       join="true"
       close="true"
       autoreverse="true"
       applied="false" />
    <inkscape:path-effect
       effect="fill_between_many"
       method="originald"
       linkedpaths="#path3655,0,1"
       id="path-effect7868"
       is_visible="true"
       lpeversion="0"
       join="true"
       close="true"
       autoreverse="true"
       applied="false" />
    <inkscape:path-effect
       effect="fill_between_many"
       method="originald"
       linkedpaths="#path8244,0,1"
       id="path-effect8285"
       is_visible="true"
       lpeversion="0"
       join="true"
       close="true"
       autoreverse="true"
       applied="false" />
    <inkscape:path-effect
       effect="fill_between_many"
       method="originald"
       linkedpaths="#path3655,0,1"
       id="path-effect8380"
       is_visible="true"
       lpeversion="0"
       join="true"
       close="true"
       autoreverse="true"
       applied="false" />
    <inkscape:path-effect
       effect="fill_between_many"
       method="originald"
       linkedpaths="#path8382,0,1"
       id="path-effect8716"
       is_visible="true"
       lpeversion="0"
       join="true"
       close="true"
       autoreverse="true"
       applied="false" />
  </defs>
  <sodipodi:namedview
     id="base"
     pagecolor="#000000"
     bordercolor="#666666"
     borderopacity="1.0"
     inkscape:pageopacity="0"
     inkscape:pageshadow="2"
     inkscape:zoom="2.8284272"
     inkscape:cx="56.745318"
     inkscape:cy="60.280852"
     inkscape:document-units="mm"
     inkscape:current-layer="layer1"
     inkscape:document-rotation="0"
     showgrid="false"
     inkscape:window-width="1366"
     inkscape:window-height="705"
     inkscape:window-x="-8"
     inkscape:window-y="-8"
     inkscape:window-maximized="1"
     inkscape:pagecheckerboard="false"
     units="px"
     fit-margin-top="0"
     fit-margin-left="0"
     fit-margin-right="0"
     fit-margin-bottom="0" />
  <metadata
     id="metadata5">
    <rdf:RDF>
      <cc:Work
         rdf:about="">
        <dc:format>image/svg+xml</dc:format>
        <dc:type
           rdf:resource="http://purl.org/dc/dcmitype/StillImage" />
      </cc:Work>
    </rdf:RDF>
  </metadata>
  <g
     inkscape:label="Livello 1"
     inkscape:groupmode="layer"
     id="layer1"
     transform="translate(-121.1453,-123.17619)">
    <path
       inkscape:original-d="M 0,0"
       inkscape:path-effect="#path-effect8285"
       d="M 0,0"
       id="path8287"
       style="fill:none;fill-opacity:1" />
    <path
       inkscape:original-d="M 0,0"
       inkscape:path-effect="#path-effect8716"
       d="M -1.2945307,19.927302 Z"
       id="path8718"
       style="fill:none;fill-rule:evenodd" />
    <path
       inkscape:original-d="M -1.2945307,19.927302"
       inkscape:path-effect="#path-effect7828"
       d="m 146.26813,141.2842 a 5.8518272,5.8518278 0 0 1 -5.85182,5.85181 5.8518272,5.8518278 0 0 1 -5.85184,-5.85181 5.8518272,5.8518278 0 0 1 5.85184,-5.85184 5.8518272,5.8518278 0 0 1 5.85182,5.85184 z"
       id="path7830"
       style="fill:none;fill-opacity:1" />
    <path
       inkscape:original-d="M -1.2945307,19.927302"
       inkscape:path-effect="#path-effect7868"
       d="m 146.26813,141.2842 a 5.8518272,5.8518278 0 0 1 -5.85182,5.85181 5.8518272,5.8518278 0 0 1 -5.85184,-5.85181 5.8518272,5.8518278 0 0 1 5.85184,-5.85184 5.8518272,5.8518278 0 0 1 5.85182,5.85184 z"
       id="path7870"
       style="fill:none;fill-opacity:1" />
    <path
       inkscape:original-d="M -1.2945307,19.927302"
       inkscape:path-effect="#path-effect8380"
       d="m 146.26813,141.2842 a 5.8518272,5.8518278 0 0 1 -5.85182,5.85181 5.8518272,5.8518278 0 0 1 -5.85184,-5.85181 5.8518272,5.8518278 0 0 1 5.85184,-5.85184 5.8518272,5.8518278 0 0 1 5.85182,5.85184 z"
       id="path8382"
       style="fill:none;fill-opacity:1" />
    <path
       id="path3655"
       style="fill:#ffffff;fill-opacity:1;fill-rule:evenodd;stroke:#ffffff;stroke-width:0.296349;stroke-opacity:1"
       d="m 146.26813,141.2842 a 5.8518272,5.8518278 0 0 1 -5.85182,5.85181 5.8518272,5.8518278 0 0 1 -5.85184,-5.85181 5.8518272,5.8518278 0 0 1 5.85184,-5.85184 5.8518272,5.8518278 0 0 1 5.85182,5.85184 z m 2.98134,0.10216 a 8.8511702,8.8511682 0 0 1 -8.85116,8.85116 8.8511702,8.8511682 0 0 1 -8.85117,-8.85116 8.8511702,8.8511682 0 0 1 8.85117,-8.85117 8.8511702,8.8511682 0 0 1 8.85116,8.85117 z m -11.9285,-15.87825 h 6.27916 v 2.99342 0.31571 l 1.52989,1.36596 1.91378,0.62224 2.9205,-2.92049 4.47528,4.47528 -2.24506,2.24506 -0.28064,0.28064 0.5736,1.84894 1.2791,1.36002 h 3.31563 v 6.11039 h -3.41437 l -1.36116,1.38378 -0.53476,1.90005 2.73796,2.73795 -4.14532,4.14532 -2.60755,-2.60755 -2.48322,0.43062 -1.70874,1.27072 v 3.27405 h -6.23239 v -3.29743 l -1.84742,-1.21628 -2.21006,-0.37398 -2.4497,2.44969 -4.58951,-4.33227 2.66601,-2.66601 -0.46194,-1.72716 -1.31674,-1.35361 h -3.77551 v -6.20351 h 4.05748 l 1.25286,-1.46532 0.26724,-1.83212 -2.77126,-2.77125 4.53691,-4.15103 2.95833,2.95834 2.26321,-0.78396 1.32974,-1.29043 v -3.17622 z m -0.0611,-2.18117 c 7.94098,0 7.98347,-0.006 7.98347,-0.006 0,0 0.93348,0.0311 0.93348,0.81071 v 0.8032 2.52771 c 0,0 0.33197,0.46953 0.63213,0.16938 l 0.30015,-0.30016 2.09068,-2.09067 c 0,0 0.54376,-0.54377 1.08753,0 l 0.54376,0.54376 6.18894,5.64644 c 0,0 0.66512,0.8146 0.3127,1.16702 l -0.35242,0.35242 -2.40959,2.4096 c 0,0 -0.31464,0.40588 0.40588,0.40588 0.72052,0 0.67327,0.0354 0.67327,0.0354 h 3.00018 c 0,0 0.8032,0 0.8032,0.8032 v 0.8032 7.83492 c 0,0 0.10023,0.94127 -0.94128,0.94127 -1.0415,0 -1.49252,-0.006 -1.49252,-0.006 h -2.08804 c 0,0 -0.71569,0.1817 -0.18965,0.70775 l 0.52605,0.52605 2.14651,2.14651 c 0,0 0.47306,0.45635 0,0.92941 -0.47306,0.47305 -0.54823,0.54823 -0.54823,0.54823 l -6.26111,5.7159 c 0,0 -0.61806,0.53454 -1.1526,0 -0.53454,-0.53454 -2.73951,-2.6727 -2.73951,-2.6727 0,0 -0.58465,-0.41761 -0.58465,0.58465 0,1.00226 -0.10023,3.49121 -0.10023,3.49121 0,0 0.0104,1.06386 -1.06386,1.06386 h -1.0743 -9.10595 v -4.98656 c 0,0 -0.24812,-0.73174 -0.97985,0 l -0.73174,0.73174 -1.76527,1.76527 h -1.62884 l -6.26309,-6.26309 c 0,0 -0.50875,-0.39183 0,-0.90058 l 2.73629,-2.73629 c 0,0 0.1648,-0.33044 -0.57235,-0.33044 h -0.73716 -2.74787 c 0,0 -0.77601,0.0701 -0.77601,-0.77601 0,-0.84617 -0.0191,-0.85787 -0.0191,-0.85787 v -8.20851 c 0,0 -0.15201,-0.80682 0.80682,-0.80682 0.95883,0 0.98221,0.0117 0.98221,0.0117 h 2.71279 c 0,0 0.68989,-0.14032 0,-0.83021 l -0.68989,-0.68988 -1.94104,-1.94105 c 0,0 -0.1801,-0.33333 0.18792,-0.70136 l 0.36803,-0.36802 6.21432,-5.89967 c 0,0 0.64896,-0.5905 1.23946,0 l 0.5905,0.5905 2.13398,2.13398 c 0,0 0.68116,0.488 0.68116,-0.39327 v -4.43596 z" />
  </g>
</svg>
