<?xml version="1.0" encoding="UTF-8" standalone="no"?>
<svg
   width="212.83517"
   height="286.35941"
   viewBox="0 0 56.312638 75.765928"
   version="1.1"
   id="svg8"
   inkscape:version="1.1.1 (3bf5ae0d25, 2021-09-20)"
   sodipodi:docname="plant.svg"
   xmlns:inkscape="http://www.inkscape.org/namespaces/inkscape"
   xmlns:sodipodi="http://sodipodi.sourceforge.net/DTD/sodipodi-0.dtd"
   xmlns="http://www.w3.org/2000/svg"
   xmlns:svg="http://www.w3.org/2000/svg"
   xmlns:rdf="http://www.w3.org/1999/02/22-rdf-syntax-ns#"
   xmlns:cc="http://creativecommons.org/ns#"
   xmlns:dc="http://purl.org/dc/elements/1.1/">
  <defs
     id="defs2">
    <inkscape:path-effect
       effect="fill_between_many"
       method="originald"
       linkedpaths="#path3655,0,1"
       id="path-effect7828"
       is_visible="true"
       lpeversion="0"
       join="true"
       close="true"
       autoreverse="true"
       applied="false" />
    <inkscape:path-effect
       effect="fill_between_many"
       method="originald"
       linkedpaths="#path3655,0,1"
       id="path-effect7868"
       is_visible="true"
       lpeversion="0"
       join="true"
       close="true"
       autoreverse="true"
       applied="false" />
    <inkscape:path-effect
       effect="fill_between_many"
       method="originald"
       linkedpaths="#path8244,0,1"
       id="path-effect8285"
       is_visible="true"
       lpeversion="0"
       join="true"
       close="true"
       autoreverse="true"
       applied="false" />
    <inkscape:path-effect
       effect="fill_between_many"
       method="originald"
       linkedpaths="#path3655,0,1"
       id="path-effect8380"
       is_visible="true"
       lpeversion="0"
       join="true"
       close="true"
       autoreverse="true"
       applied="false" />
    <inkscape:path-effect
       effect="fill_between_many"
       method="originald"
       linkedpaths="#path8382,0,1"
       id="path-effect8716"
       is_visible="true"
       lpeversion="0"
       join="true"
       close="true"
       autoreverse="true"
       applied="false" />
  </defs>
  <sodipodi:namedview
     id="base"
     pagecolor="#000000"
     bordercolor="#666666"
     borderopacity="1.0"
     inkscape:pageopacity="0"
     inkscape:pageshadow="2"
     inkscape:zoom="1.4142136"
     inkscape:cx="214.96046"
     inkscape:cy="126.92566"
     inkscape:document-units="mm"
     inkscape:current-layer="layer1"
     inkscape:document-rotation="0"
     showgrid="false"
     inkscape:window-width="1920"
     inkscape:window-height="1017"
     inkscape:window-x="1358"
     inkscape:window-y="-8"
     inkscape:window-maximized="1"
     inkscape:pagecheckerboard="false"
     units="px"
     fit-margin-top="0"
     fit-margin-left="0"
     fit-margin-right="0"
     fit-margin-bottom="0" />
  <metadata
     id="metadata5">
    <rdf:RDF>
      <cc:Work
         rdf:about="">
        <dc:format>image/svg+xml</dc:format>
        <dc:type
           rdf:resource="http://purl.org/dc/dcmitype/StillImage" />
      </cc:Work>
    </rdf:RDF>
  </metadata>
  <g
     inkscape:label="Livello 1"
     inkscape:groupmode="layer"
     id="layer1"
     transform="translate(-81.212129,-83.737189)">
    <path
       inkscape:original-d="M 0,0"
       inkscape:path-effect="#path-effect8285"
       d="M 0,0"
       id="path8287"
       style="fill:none;fill-opacity:1" />
    <path
       inkscape:original-d="M 0,0"
       inkscape:path-effect="#path-effect8716"
       d="M -1.2945307,19.927302 Z"
       id="path8718"
       style="fill:none;fill-rule:evenodd" />
    <path
       id="rect4870"
       style="fill:#ffffff;fill-opacity:1;stroke:#ffffff;stroke-width:0.264583;stroke-opacity:1"
       d="m 106.31313,139.52138 h 6.36102 v 5.47234 h -6.36102 z m -16.136395,-0.0468 h 6.314242 v 5.51911 h -6.314242 z m -6.502258,-37.2793 h 12.36927 v 7.47448 h -12.36927 z m 35.840293,-18.3258 c -4.55065,8e-6 -8.10174,1.403702 -10.6469,2.994134 -1.36705,0.854252 -2.42829,1.748525 -2.96416,2.671154 -0.005,0.0086 -0.0101,0.01721 -0.015,0.02584 -0.19088,0.334978 -0.37537,0.856147 -0.24184,1.263489 0.13205,0.402838 0.5258,0.744024 0.93224,0.864547 0.40335,0.119605 0.86064,-0.04137 1.24385,-0.214974 0.65969,-0.298855 1.31931,-1.053312 1.68982,-1.365292 0.76612,-0.645092 1.47669,-1.158079 2.33319,-1.511536 2.4873,-1.026438 3.8082,-1.666084 7.89823,-1.666047 3.13645,2.9e-5 4.61367,0.459296 5.71748,0.911053 0.85614,0.350393 1.56424,0.558753 2.32544,0.990121 0.40648,0.230355 1.09091,0.844124 1.64589,1.111044 1.07373,0.516411 1.68375,1.896025 2.73989,1.698088 0.68895,-0.129119 1.26546,-0.670838 1.26555,-1.680001 -6e-5,-1.146657 -1.33075,-1.711584 -2.69027,-2.661335 -2.42844,-1.69649 -6.16568,-3.43035 -11.23342,-3.430284 z m -0.0708,5.443596 c -2.92189,4e-5 -5.04649,0.849876 -6.64869,1.754931 -1.01598,0.573913 -2.0704,1.112954 -2.63912,1.977141 -0.21021,0.319424 -0.38664,0.45869 -0.52606,0.885217 -0.0949,0.290327 -0.0603,0.833223 0.19844,1.17874 0.17071,0.227996 0.58875,0.374385 0.8108,0.472323 0.41945,0.185 0.85185,-0.02942 1.25677,-0.31006 0.19273,-0.133572 0.66363,-0.64426 1.0356,-0.916223 0.74802,-0.546915 1.35953,-0.880464 2.38641,-1.425752 0.88204,-0.468371 1.92173,-0.84592 4.11396,-0.845942 2.46162,-2.9e-5 3.3203,0.520904 4.47673,0.931725 1.07256,0.381027 1.59344,0.936694 2.34043,1.478463 0.36993,0.268301 0.72116,0.660487 1.05575,0.874366 0.22945,0.146674 0.65275,0.16723 0.91622,0.136424 0.56219,-0.06573 1.03289,-0.370295 1.03301,-1.223698 2e-4,-1.082884 -0.83,-1.704215 -1.96887,-2.525942 -1.79002,-1.291553 -4.50459,-2.441758 -7.84138,-2.441713 z m 0.0894,5.504574 c -1.82334,0.01035 -3.33765,0.549693 -4.38061,1.182873 -0.86335,0.524137 -1.48644,1.15429 -1.48622,1.894459 1.7e-4,0.694756 0.22712,0.952974 0.59015,1.223698 0.3331,0.248399 1.12635,0.238519 1.23093,0.198437 0.20983,-0.08042 0.58413,-0.303106 0.75655,-0.443902 0.69058,-0.563949 1.52926,-1.143532 3.08766,-1.153416 1.61131,-0.01005 2.51856,0.391131 3.33416,0.992703 0.15061,0.111083 0.52986,0.350322 0.63356,0.483174 0.12789,0.163851 0.63292,0.2793 0.96531,0.257866 0.27591,-0.01778 0.5001,-0.117668 0.76688,-0.315225 0.44267,-0.327805 0.46856,-0.674208 0.46871,-1.161687 9e-5,-0.593701 -0.57379,-1.311598 -1.18753,-1.771468 -1.07568,-0.806016 -2.65763,-1.39959 -4.77955,-1.387512 z m -22.077722,4.785754 -14.516427,0.01137 h -0.614432 c -1.004006,0 -0.980302,0.957046 -0.980302,0.957046 l 0.02377,58.03108 c 0.0031,0.66545 0.848527,0.76792 0.848527,0.76792 h 52.501706 v -2.34456 H 84.189274 c -0.308896,0 -0.317294,-0.18346 -0.317294,-0.18346 l -0.09405,-44.83705 12.579075,0.0232 0.08888,16.27084 c 0,0 0.05144,0.052 0.555006,0.55552 0.503565,0.50356 1.502749,0 1.502749,0 l 14.84198,-13.15475 c 0,0 -4e-5,-0.009 0.46768,-0.47645 0.46772,-0.46768 0.78496,0.0253 0.78496,0.0253 l 0.0253,12.94598 c 0,0 -0.0167,0.36753 0.40928,0.81855 0.42596,0.45137 1.51153,-0.008 1.51153,-0.008 0,0 16.95464,-12.06862 17.40566,-12.51965 0.45101,-0.45097 0.75189,0.0248 0.75189,0.0248 l -0.11679,6.8156 2.80603,-0.005 -0.0946,-9.52035 -0.24805,-0.48421 c 0,0 -0.0115,-0.0353 -0.44855,-0.55501 -0.43703,-0.51973 -1.18133,-0.0827 -1.18133,-0.0827 l -17.81235,12.88655 -0.17673,0.0351 -0.16536,-0.0233 -0.0827,-0.0594 -0.0594,-13.32322 c 0,0 0.10667,-0.0119 -0.43667,-0.83871 -0.54334,-0.82687 -1.54771,-0.0475 -1.54771,-0.0475 l -16.18195,14.18622 -0.11834,-0.0713 -0.141592,-0.15348 -0.08268,-23.49365 0.02377,-1.03921 c 0.02362,-1.039435 -1.181323,-1.133786 -1.181323,-1.133786 z m 22.201232,0.210323 a 2.1722779,2.1132192 0 0 0 -2.17248,2.113053 2.1722779,2.1132192 0 0 0 2.17248,2.11305 2.1722779,2.1132192 0 0 0 2.17196,-2.11305 2.1722779,2.1132192 0 0 0 -2.17196,-2.113053 z M 89.230827,137.55822 c -1.027319,0 -0.969968,0.95188 -0.969968,0.95188 v 6.49986 c 0,0 0.0057,-0.0117 0.0057,0.97514 0,0.98684 0.963247,0.96325 0.963247,0.96325 h 7.175273 1.016992 c 1.016976,0 0.946198,-0.9462 0.946198,-0.9462 v -7.64449 c 0,-0.76423 -0.799436,-0.79944 -0.799436,-0.79944 z m 15.994373,0.15245 c -1.02676,3.3e-4 -0.96893,0.95188 -0.96893,0.95188 v 6.49986 c 0,0 0.005,-0.0117 0.005,0.97513 0,0.98684 0.96325,0.96325 0.96325,0.96325 h 7.17579 1.01699 c 1.017,0 0.94619,-0.94619 0.94619,-0.94619 v -7.6445 c 0,-0.76423 -0.79995,-0.79943 -0.79995,-0.79943 h -8.33747 z" />
    <path
       inkscape:original-d="M -1.2945307,19.927302"
       inkscape:path-effect="#path-effect7828"
       d="M -1.2945307,19.927302"
       id="path7830"
       style="fill:none;fill-opacity:1" />
    <path
       inkscape:original-d="M -1.2945307,19.927302"
       inkscape:path-effect="#path-effect7868"
       d="M -1.2945307,19.927302"
       id="path7870"
       style="fill:none;fill-opacity:1" />
    <path
       inkscape:original-d="M -1.2945307,19.927302"
       inkscape:path-effect="#path-effect8380"
       d="M -1.2945307,19.927302"
       id="path8382"
       style="fill:none;fill-opacity:1" />
  </g>
</svg>
