<?xml version="1.0" encoding="UTF-8" standalone="no"?>
<!-- Created with Inkscape (http://www.inkscape.org/) -->

<svg
   width="19.643551mm"
   height="19.646366mm"
   viewBox="0 0 19.643551 19.646366"
   version="1.1"
   id="svg3072"
   sodipodi:docname="click.svg"
   inkscape:version="1.1.1 (3bf5ae0d25, 2021-09-20)"
   xmlns:inkscape="http://www.inkscape.org/namespaces/inkscape"
   xmlns:sodipodi="http://sodipodi.sourceforge.net/DTD/sodipodi-0.dtd"
   xmlns="http://www.w3.org/2000/svg"
   xmlns:svg="http://www.w3.org/2000/svg">
  <sodipodi:namedview
     id="namedview3074"
     pagecolor="#ffffff"
     bordercolor="#666666"
     borderopacity="1"
     inkscape:pageshadow="2"
     inkscape:pageopacity="1"
     inkscape:pagecheckerboard="0"
     inkscape:document-units="mm"
     showgrid="false"
     inkscape:zoom="5.2410024"
     inkscape:cx="40.736482"
     inkscape:cy="33.867567"
     inkscape:window-width="1366"
     inkscape:window-height="705"
     inkscape:window-x="-8"
     inkscape:window-y="-8"
     inkscape:window-maximized="1"
     inkscape:current-layer="g3232"
     fit-margin-top="0"
     fit-margin-left="0"
     fit-margin-right="0"
     fit-margin-bottom="0" />
  <defs
     id="defs3069" />
  <g
     inkscape:label="Livello 1"
     inkscape:groupmode="layer"
     id="layer1"
     transform="translate(-88.0742,-86.658523)">
    <g
       style="fill:#000000;stroke:none;stroke-opacity:1"
       id="g3232"
       transform="matrix(0.52916667,0,0,0.52916667,93.996872,90.077007)">
      <path
         style="display:none;fill:#ffffff;fill-opacity:1;fill-rule:evenodd;stroke:#000000;stroke-width:0.0995181;stroke-miterlimit:4;stroke-dasharray:none;stroke-opacity:1"
         d="m 374.06966,355.21351 c 0,-3.16394 -0.0199,-3.33845 -0.4682,-4.10339 -1.0612,-1.8108 -2.39212,-2.60809 -4.35369,-2.60809 -1.99534,0 -3.86659,1.21921 -4.52363,2.94737 -0.10913,0.28702 -0.25402,1.93182 -0.32199,3.6551 -0.14086,3.5718 -0.19766,3.62588 -1.4209,1.35291 -0.60399,-1.12231 -0.63629,-1.28282 -0.64101,-3.1853 -0.005,-1.91996 0.022,-2.05314 0.64193,-3.19635 2.07742,-3.83083 6.65067,-4.98987 10.2533,-2.59858 2.25269,1.49525 3.36671,4.12957 2.92243,6.91068 -0.21631,1.35404 -0.40532,1.78137 -1.40511,3.17671 l -0.68313,0.95341 z"
         id="path18544"
         transform="matrix(0.5,0,0,0.5,-177.63188,-170.22426)" />
      <g
         id="g29532">
        <path
           id="scheletro"
           style="fill:#ffffff;fill-rule:evenodd;stroke:#000001;stroke-width:0.26302;fill-opacity:1"
           d="M 23.812573,12.188679 A 16.452538,16.453451 0 0 1 7.3600359,28.64213 16.452538,16.453451 0 0 1 -9.0925016,12.188679 16.452538,16.453451 0 0 1 7.3600359,-4.2647724 16.452538,16.453451 0 0 1 23.812573,12.188679 Z M 7.3593315,-6.3297308 c -2.75814,0.0015 -5.5295399,0.63082 -8.11620996,1.908205 -1.34245004,0.66295 -2.47555004,1.384155 -3.52929004,2.248045 -0.89907,0.737075 -2.45838,2.36379493 -3.10938,3.2431649 -4.2331495,5.7180701 -4.8465495,13.1549049 -1.6044999,19.4619149 2.8434399,5.531555 8.30078994,9.25999 14.5019599,9.9082 5.4488705,0.56957 10.9480705,-1.400215 14.8750005,-5.327145 3.18028,-3.18028 4.96144,-7.07454 5.36231,-11.720705 0.50597,-5.8643948 -2.24789,-12.0773448 -6.99121,-15.7724598 -3.35548,-2.613955 -7.35755,-3.951485 -11.3886805,-3.94922 z m -0.0264,2.069335 c 1.12066,0.01165 2.33306,0.107965 3.1552705,0.27051 5.1092,1.010075 9.31453,4.21068993 11.59766,8.82715 0.74205,1.50042 1.12068,2.571585 1.45019,4.105465 0.1993,0.927795 0.22456,1.2960898 0.22461,3.2412148 7e-5,2.412045 -0.12394,3.29222 -0.72754,5.145505 -0.30536,0.9376 -1.15329,2.77166 -1.63476,3.536135 -0.91992,1.460645 -2.32767,3.06493 -3.59082,4.091795 -2.00568,1.630505 -4.40185,2.779635 -7.02149,3.368165 -0.9009805,0.20241 -1.3395705,0.24 -3.1005805,0.2666 -2.20448,0.0333 -2.17066,0.03515 -3.53516,-0.23535 -5.80577,-1.150955 -10.60185,-5.390385 -12.4374999,-10.99414 -1.13795,-3.47385 -1.06805,-7.5852848 0.1855499,-10.9033198 2.21603,-5.86543507 7.40775004,-9.92219 13.62109,-10.644535 0.50149,-0.0583 1.14109,-0.08219 1.81348,-0.0752 z m -0.2793,5.4267599 c -1.67278,-0.02665 -3.33702,0.7577751 -4.3798799,2.2959001 -0.61211,0.90281 -0.82122,1.53363 -0.87989,2.65332 -0.0885,1.68885 0.33316,2.77601 1.5410199,3.9726548 0.42544,0.42149 0.91248,0.823315 1.08301,0.893555 l 0.31054,0.12793 v 1.84863 c 0,1.016815 -0.0319,1.84959 -0.0713,1.85059 -0.0393,5e-4 -0.60862,-0.111585 -1.26464,-0.249025 -1.5969999,-0.33458 -1.7488799,-0.293895 -2.82910996,0.75488 l -0.80371,0.780275 2.65723006,2.652345 c 2.0094799,2.006055 2.7478399,2.68482 3.0322299,2.78613 0.29621,0.105545 1.11525,0.134245 3.8584,0.135745 3.8954905,0.0025 4.0170105,-0.01565 4.5048805,-0.674805 0.32403,-0.4378 0.2992,-0.33831 0.79492,-3.2041 0.30396,-1.757235 0.42671,-2.70637 0.39355,-3.041995 -0.061,-0.617505 -0.4291,-1.348845 -0.87597,-1.74121 -0.19061,-0.16735 -1.20361,-0.733625 -2.25098,-1.25781 L 9.9696315,10.796249 10.618072,10.154644 c 0.4169,-0.4130248 0.77644,-0.8885448 1.00879,-1.3330048 1.08809,-2.08134 0.72658,-4.417245 -0.94336,-6.095705 C 9.6608215,1.6980342 8.3546715,1.1871041 7.0536215,1.1663641 Z m -0.0557,1.5205101 c 0.38728,10e-4 0.7801,0.06378 1.16503,0.193355 1.13363,0.38159 1.9659205,1.20356 2.3554705,2.3252 0.24197,0.696605 0.21886,1.855165 -0.0508,2.54785 -0.18299,0.470085 -0.9483505,1.5147 -1.1718705,1.59961 -0.0461,0.01755 -0.0845,-0.77393 -0.085,-1.76465 l -10e-4,-1.796875 -0.28711,-0.5 c -0.77711,-1.35504 -2.57885,-1.531665 -3.61328,-0.353515 -0.16908,0.19257 -0.35737,0.464075 -0.41797,0.60254 -0.0634,0.144895 -0.13116,1.015675 -0.16016,2.052735 l -0.0508,1.80273 -0.41406,-0.450195 c -0.2277,-0.24725 -0.52837,-0.69343 -0.66797,-0.99121 -0.22441,-0.47867 -0.25391,-0.657005 -0.25391,-1.543945 1e-5,-0.938365 0.0204,-1.043825 0.30958,-1.631835 0.64622,-1.31375 1.96058,-2.095305 3.34375,-2.091795 z m 0.0391,2.99707 c 0.13583,0.01175 0.27025,0.06289 0.38769,0.15527 l 0.26075,0.20508 v 3.0459 3.0458948 h 0.76464 0.76368 l 1.9882805,0.99512 c 1.77668,0.889105 2.00613,1.030405 2.14649,1.32617 0.0864,0.18207 0.15625,0.42528 0.15625,0.541015 0,0.187155 -0.69419,4.394865 -0.81446,4.936525 l -0.0478,0.214845 h -3.3564505 -3.35644 l -2.14844,-2.141605 C 2.5999816,16.830224 1.6543116,15.845034 1.6796616,15.819684 c 0.0254,-0.02535 1.05489,0.165545 2.2871099,0.42383 1.23221,0.258285 2.25057,0.4702 2.26367,0.4707 0.0131,5e-4 0.0244,-2.37688 0.0244,-5.2832 0,-4.8923848 0.0124,-5.2991798 0.16699,-5.4853548 0.1592,-0.19174 0.38885,-0.28132 0.61523,-0.261715 z" />
        <path
           style="fill:#ff9226;fill-opacity:1;fill-rule:evenodd;stroke:#000001;stroke-width:0.0995181;stroke-miterlimit:4;stroke-dasharray:none;stroke-opacity:1"
           d="M 32.049859,73.262055 C 17.472933,71.132846 5.4777813,60.389247 1.8144245,46.181331 0.88430037,42.573949 0.61028445,39.994202 0.7294138,35.966402 0.88846377,30.588871 1.9302307,26.230934 4.1730895,21.560761 6.1100414,17.527559 7.812581,15.104433 11.0597,11.759449 14.99833,7.7021124 18.671455,5.2495446 23.972044,3.1377974 37.996027,-2.4493372 54.66654,1.6657099 64.532075,13.149872 c 4.717065,5.49099 7.726664,12.091427 8.750638,19.191269 0.385146,2.670447 0.291317,7.957363 -0.187935,10.589577 -1.055165,5.795304 -3.108304,10.835275 -6.177124,15.163382 -1.438314,2.028524 -4.795357,5.601823 -6.814648,7.253639 -5.087884,4.161979 -11.539503,6.992559 -18.045355,7.917214 -2.435926,0.346209 -7.628039,0.344707 -10.007792,-0.0029 z m 9.449835,-2.95715 c 1.937553,-0.203373 5.223646,-1.010814 7.250522,-1.78156 6.731882,-2.559882 12.15428,-6.867131 16.199779,-12.868194 1.182899,-1.754703 3.168813,-5.931373 3.918204,-8.240558 1.183192,-3.645897 1.341555,-4.873302 1.329381,-10.303372 C 70.18788,32.773059 70.1406,32.049287 69.76154,30.433109 68.455049,24.862635 65.924875,19.812168 62.257859,15.455059 57.161368,9.3994633 49.046562,5.1063682 41.129954,4.2774517 38.072787,3.9573481 32.750021,4.1494115 30.362649,4.6659728 17.16386,7.5218263 7.3251698,17.378691 4.4525722,30.623912 c -0.3842894,1.771915 -0.4345638,2.532619 -0.4350467,6.582711 -5.152e-4,4.254802 0.035947,4.749646 0.5144754,6.983692 1.7243278,8.050159 6.0765771,14.887738 12.5533591,19.72189 4.646198,3.467836 9.570468,5.5028 15.637388,6.462176 1.009194,0.159587 7.050235,0.111768 8.776946,-0.06948 z"
           id="cerchioEsterno"
           transform="matrix(0.5,0,0,0.5,-11.192451,-6.4601272)" />
        <path
           style="fill:#ff9226;fill-opacity:1;fill-rule:evenodd;stroke:#000001;stroke-width:0.0995181;stroke-miterlimit:4;stroke-dasharray:none;stroke-opacity:1"
           d="m 37.197313,55.809934 c -3.134416,-0.08227 -3.712058,-0.145026 -4.19767,-0.456018 -0.309705,-0.19834 -2.795275,-2.577944 -5.523488,-5.288009 l -4.960388,-4.927393 0.953521,-0.982971 c 2.209223,-2.277455 2.534264,-2.365204 6.150582,-1.660419 1.886432,0.367646 2.193726,0.386379 2.347589,0.143103 0.09737,-0.153956 0.17835,-1.965266 0.179957,-4.025133 l 0.0029,-3.745215 -0.616579,-0.255396 C 30.503715,34.185835 27.8938,31.416897 27.216994,30.03272 c -1.09321,-2.235787 -1.191591,-5.479824 -0.241976,-7.979006 0.934063,-2.458255 3.223543,-4.745108 5.745933,-5.739342 2.608548,-1.028193 5.295937,-0.89663 7.957832,0.389581 4.582838,2.214399 6.851577,7.326725 5.301128,11.945435 -0.600881,1.789995 -1.435529,3.083658 -2.931958,4.544395 -0.641672,0.626365 -1.16547,1.227395 -1.163999,1.335623 0.0015,0.108225 1.783096,1.097374 3.959166,2.198104 2.779262,1.405848 4.188907,2.232876 4.737603,2.779526 0.865369,0.862136 1.414281,2.188598 1.411104,3.409971 -0.0024,0.930088 -0.577742,4.743099 -1.261695,8.362023 -0.579513,3.066302 -1.076468,3.996668 -2.308713,4.322207 -0.887941,0.234581 -6.361031,0.336346 -11.224128,0.208697 z m 10.839648,-2.528142 c 0.04993,-0.131178 0.459439,-2.470902 0.910013,-5.199387 0.860637,-5.211648 0.88091,-5.940679 0.189637,-6.81949 -0.201732,-0.256462 -2.078789,-1.33844 -4.171238,-2.404397 l -3.804449,-1.9381 H 39.61308 38.065237 v -6.108507 -6.108507 l -0.62011,-0.378088 c -0.780294,-0.475755 -1.626242,-0.477534 -2.241938,-0.0047 l -0.477008,0.366313 -0.145289,8.835698 c -0.07991,4.859634 -0.07664,9.629916 0.0073,10.600627 0.0839,0.970712 0.100952,1.76493 0.03789,1.76493 -0.06306,0 -2.020588,-0.383329 -4.350067,-0.851843 -3.937195,-0.791864 -4.803746,-0.878091 -4.803746,-0.478006 0,0.308394 1.078861,1.48747 4.752178,5.193614 l 3.734986,3.768363 h 6.993393 c 5.419092,0 7.013829,-0.05369 7.084178,-0.238504 z M 32.430975,24.576188 c 0.07293,-0.388743 0.442832,-1.009791 0.891095,-1.496099 1.939676,-2.1043 5.01271,-1.832529 6.516044,0.576262 0.451507,0.723448 0.485992,0.971887 0.614544,4.427289 0.160275,4.308112 0.250284,4.482658 1.552856,3.0113 1.640653,-1.853247 2.315572,-3.931883 2.0579,-6.337984 -0.271128,-2.531742 -2.070232,-5.015804 -4.429838,-6.116372 -0.981938,-0.457995 -1.311277,-0.509282 -3.285568,-0.51165 -2.043679,-0.0024 -2.272788,0.03584 -3.339056,0.558058 -1.459926,0.715017 -2.91959,2.174914 -3.636399,3.636982 -0.526376,1.073645 -0.561271,1.287167 -0.561271,3.434457 0,2.107227 0.04148,2.374094 0.520627,3.349731 0.286345,0.583051 1.016167,1.608064 1.621827,2.277806 l 1.1012,1.217713 0.125676,-3.681424 c 0.06912,-2.024784 0.181784,-3.980515 0.250363,-4.346069 z"
           id="mano"
           transform="matrix(0.5,0,0,0.5,-11.192451,-6.4601272)" />
      </g>
    </g>
  </g>
</svg>
