G04 #@! TF.GenerationSoftware,KiCad,Pcbnew,(5.1.5)-3*
G04 #@! TF.CreationDate,2022-03-03T15:33:47+01:00*
G04 #@! TF.ProjectId,ESP32_client,45535033-325f-4636-9c69-656e742e6b69,rev?*
G04 #@! TF.SameCoordinates,Original*
G04 #@! TF.FileFunction,Soldermask,Bot*
G04 #@! TF.FilePolarity,Negative*
%FSLAX46Y46*%
G04 Gerber Fmt 4.6, Leading zero omitted, Abs format (unit mm)*
G04 Created by KiCad (PCBNEW (5.1.5)-3) date 2022-03-03 15:33:47*
%MOMM*%
%LPD*%
G04 APERTURE LIST*
%ADD10C,0.100000*%
G04 APERTURE END LIST*
D10*
G36*
X147352585Y-147228802D02*
G01*
X147502410Y-147258604D01*
X147784674Y-147375521D01*
X148038705Y-147545259D01*
X148254741Y-147761295D01*
X148424479Y-148015326D01*
X148541396Y-148297590D01*
X148601000Y-148597240D01*
X148601000Y-148902760D01*
X148541396Y-149202410D01*
X148424479Y-149484674D01*
X148254741Y-149738705D01*
X148038705Y-149954741D01*
X147784674Y-150124479D01*
X147502410Y-150241396D01*
X147352585Y-150271198D01*
X147202761Y-150301000D01*
X146897239Y-150301000D01*
X146747415Y-150271198D01*
X146597590Y-150241396D01*
X146315326Y-150124479D01*
X146061295Y-149954741D01*
X145845259Y-149738705D01*
X145675521Y-149484674D01*
X145558604Y-149202410D01*
X145499000Y-148902760D01*
X145499000Y-148597240D01*
X145558604Y-148297590D01*
X145675521Y-148015326D01*
X145845259Y-147761295D01*
X146061295Y-147545259D01*
X146315326Y-147375521D01*
X146597590Y-147258604D01*
X146747415Y-147228802D01*
X146897239Y-147199000D01*
X147202761Y-147199000D01*
X147352585Y-147228802D01*
G37*
G36*
X203575256Y-146981298D02*
G01*
X203681579Y-147002447D01*
X203982042Y-147126903D01*
X204252451Y-147307585D01*
X204482415Y-147537549D01*
X204663097Y-147807958D01*
X204787553Y-148108421D01*
X204851000Y-148427391D01*
X204851000Y-148752609D01*
X204787553Y-149071579D01*
X204663097Y-149372042D01*
X204482415Y-149642451D01*
X204252451Y-149872415D01*
X203982042Y-150053097D01*
X203681579Y-150177553D01*
X203575256Y-150198702D01*
X203362611Y-150241000D01*
X203037389Y-150241000D01*
X202824744Y-150198702D01*
X202718421Y-150177553D01*
X202417958Y-150053097D01*
X202147549Y-149872415D01*
X201917585Y-149642451D01*
X201736903Y-149372042D01*
X201612447Y-149071579D01*
X201549000Y-148752609D01*
X201549000Y-148427391D01*
X201612447Y-148108421D01*
X201736903Y-147807958D01*
X201917585Y-147537549D01*
X202147549Y-147307585D01*
X202417958Y-147126903D01*
X202718421Y-147002447D01*
X202824744Y-146981298D01*
X203037389Y-146939000D01*
X203362611Y-146939000D01*
X203575256Y-146981298D01*
G37*
G36*
X114975256Y-146891298D02*
G01*
X115081579Y-146912447D01*
X115382042Y-147036903D01*
X115652451Y-147217585D01*
X115882415Y-147447549D01*
X116063097Y-147717958D01*
X116186272Y-148015328D01*
X116187553Y-148018422D01*
X116243084Y-148297591D01*
X116251000Y-148337391D01*
X116251000Y-148662609D01*
X116187553Y-148981579D01*
X116063097Y-149282042D01*
X115882415Y-149552451D01*
X115652451Y-149782415D01*
X115382042Y-149963097D01*
X115081579Y-150087553D01*
X114975256Y-150108702D01*
X114762611Y-150151000D01*
X114437389Y-150151000D01*
X114224744Y-150108702D01*
X114118421Y-150087553D01*
X113817958Y-149963097D01*
X113547549Y-149782415D01*
X113317585Y-149552451D01*
X113136903Y-149282042D01*
X113012447Y-148981579D01*
X112949000Y-148662609D01*
X112949000Y-148337391D01*
X112956917Y-148297591D01*
X113012447Y-148018422D01*
X113013729Y-148015328D01*
X113136903Y-147717958D01*
X113317585Y-147447549D01*
X113547549Y-147217585D01*
X113817958Y-147036903D01*
X114118421Y-146912447D01*
X114224744Y-146891298D01*
X114437389Y-146849000D01*
X114762611Y-146849000D01*
X114975256Y-146891298D01*
G37*
G36*
X193965458Y-143380593D02*
G01*
X194251177Y-143437426D01*
X194669932Y-143610880D01*
X195046802Y-143862696D01*
X195367304Y-144183198D01*
X195619120Y-144560068D01*
X195792574Y-144978823D01*
X195881000Y-145423371D01*
X195881000Y-145876629D01*
X195792574Y-146321177D01*
X195619120Y-146739932D01*
X195367304Y-147116802D01*
X195046802Y-147437304D01*
X194669932Y-147689120D01*
X194251177Y-147862574D01*
X194028903Y-147906787D01*
X193806630Y-147951000D01*
X193353370Y-147951000D01*
X193131097Y-147906787D01*
X192908823Y-147862574D01*
X192490068Y-147689120D01*
X192113198Y-147437304D01*
X191792696Y-147116802D01*
X191540880Y-146739932D01*
X191367426Y-146321177D01*
X191279000Y-145876629D01*
X191279000Y-145423371D01*
X191367426Y-144978823D01*
X191540880Y-144560068D01*
X191792696Y-144183198D01*
X192113198Y-143862696D01*
X192490068Y-143610880D01*
X192908823Y-143437426D01*
X193194542Y-143380593D01*
X193353370Y-143349000D01*
X193806630Y-143349000D01*
X193965458Y-143380593D01*
G37*
G36*
X183836162Y-143252368D02*
G01*
X184145724Y-143380593D01*
X184145725Y-143380594D01*
X184424324Y-143566747D01*
X184661253Y-143803676D01*
X184700689Y-143862697D01*
X184847407Y-144082276D01*
X184975632Y-144391838D01*
X185041000Y-144720465D01*
X185041000Y-145055535D01*
X184975632Y-145384162D01*
X184847407Y-145693724D01*
X184847406Y-145693725D01*
X184661253Y-145972324D01*
X184424324Y-146209253D01*
X184256817Y-146321177D01*
X184145724Y-146395407D01*
X183836162Y-146523632D01*
X183507535Y-146589000D01*
X183172465Y-146589000D01*
X182843838Y-146523632D01*
X182534276Y-146395407D01*
X182423183Y-146321177D01*
X182255676Y-146209253D01*
X182018747Y-145972324D01*
X181832594Y-145693725D01*
X181832593Y-145693724D01*
X181704368Y-145384162D01*
X181639000Y-145055535D01*
X181639000Y-144720465D01*
X181704368Y-144391838D01*
X181832593Y-144082276D01*
X181979311Y-143862697D01*
X182018747Y-143803676D01*
X182255676Y-143566747D01*
X182534275Y-143380594D01*
X182534276Y-143380593D01*
X182843838Y-143252368D01*
X183172465Y-143187000D01*
X183507535Y-143187000D01*
X183836162Y-143252368D01*
G37*
G36*
X173836162Y-143252368D02*
G01*
X174145724Y-143380593D01*
X174145725Y-143380594D01*
X174424324Y-143566747D01*
X174661253Y-143803676D01*
X174700689Y-143862697D01*
X174847407Y-144082276D01*
X174975632Y-144391838D01*
X175041000Y-144720465D01*
X175041000Y-145055535D01*
X174975632Y-145384162D01*
X174847407Y-145693724D01*
X174847406Y-145693725D01*
X174661253Y-145972324D01*
X174424324Y-146209253D01*
X174256817Y-146321177D01*
X174145724Y-146395407D01*
X173836162Y-146523632D01*
X173507535Y-146589000D01*
X173172465Y-146589000D01*
X172843838Y-146523632D01*
X172534276Y-146395407D01*
X172423183Y-146321177D01*
X172255676Y-146209253D01*
X172018747Y-145972324D01*
X171832594Y-145693725D01*
X171832593Y-145693724D01*
X171704368Y-145384162D01*
X171639000Y-145055535D01*
X171639000Y-144720465D01*
X171704368Y-144391838D01*
X171832593Y-144082276D01*
X171979311Y-143862697D01*
X172018747Y-143803676D01*
X172255676Y-143566747D01*
X172534275Y-143380594D01*
X172534276Y-143380593D01*
X172843838Y-143252368D01*
X173172465Y-143187000D01*
X173507535Y-143187000D01*
X173836162Y-143252368D01*
G37*
G36*
X136596162Y-143232368D02*
G01*
X136905724Y-143360593D01*
X136998170Y-143422363D01*
X137184324Y-143546747D01*
X137421253Y-143783676D01*
X137545637Y-143969830D01*
X137607407Y-144062276D01*
X137735632Y-144371838D01*
X137801000Y-144700465D01*
X137801000Y-145035535D01*
X137735632Y-145364162D01*
X137607407Y-145673724D01*
X137545637Y-145766170D01*
X137421253Y-145952324D01*
X137184324Y-146189253D01*
X136998170Y-146313637D01*
X136905724Y-146375407D01*
X136596162Y-146503632D01*
X136267535Y-146569000D01*
X135932465Y-146569000D01*
X135603838Y-146503632D01*
X135294276Y-146375407D01*
X135201830Y-146313637D01*
X135015676Y-146189253D01*
X134778747Y-145952324D01*
X134654363Y-145766170D01*
X134592593Y-145673724D01*
X134464368Y-145364162D01*
X134399000Y-145035535D01*
X134399000Y-144700465D01*
X134464368Y-144371838D01*
X134592593Y-144062276D01*
X134654363Y-143969830D01*
X134778747Y-143783676D01*
X135015676Y-143546747D01*
X135201830Y-143422363D01*
X135294276Y-143360593D01*
X135603838Y-143232368D01*
X135932465Y-143167000D01*
X136267535Y-143167000D01*
X136596162Y-143232368D01*
G37*
G36*
X126596162Y-143232368D02*
G01*
X126905724Y-143360593D01*
X126998170Y-143422363D01*
X127184324Y-143546747D01*
X127421253Y-143783676D01*
X127545637Y-143969830D01*
X127607407Y-144062276D01*
X127735632Y-144371838D01*
X127801000Y-144700465D01*
X127801000Y-145035535D01*
X127735632Y-145364162D01*
X127607407Y-145673724D01*
X127545637Y-145766170D01*
X127421253Y-145952324D01*
X127184324Y-146189253D01*
X126998170Y-146313637D01*
X126905724Y-146375407D01*
X126596162Y-146503632D01*
X126267535Y-146569000D01*
X125932465Y-146569000D01*
X125603838Y-146503632D01*
X125294276Y-146375407D01*
X125201830Y-146313637D01*
X125015676Y-146189253D01*
X124778747Y-145952324D01*
X124654363Y-145766170D01*
X124592593Y-145673724D01*
X124464368Y-145364162D01*
X124399000Y-145035535D01*
X124399000Y-144700465D01*
X124464368Y-144371838D01*
X124592593Y-144062276D01*
X124654363Y-143969830D01*
X124778747Y-143783676D01*
X125015676Y-143546747D01*
X125201830Y-143422363D01*
X125294276Y-143360593D01*
X125603838Y-143232368D01*
X125932465Y-143167000D01*
X126267535Y-143167000D01*
X126596162Y-143232368D01*
G37*
G36*
X198600903Y-139837213D02*
G01*
X198823177Y-139881426D01*
X199241932Y-140054880D01*
X199618802Y-140306696D01*
X199939304Y-140627198D01*
X200191120Y-141004068D01*
X200364574Y-141422823D01*
X200453000Y-141867371D01*
X200453000Y-142320629D01*
X200364574Y-142765177D01*
X200191120Y-143183932D01*
X199939304Y-143560802D01*
X199618802Y-143881304D01*
X199241932Y-144133120D01*
X198823177Y-144306574D01*
X198600903Y-144350787D01*
X198378630Y-144395000D01*
X197925370Y-144395000D01*
X197703097Y-144350787D01*
X197480823Y-144306574D01*
X197062068Y-144133120D01*
X196685198Y-143881304D01*
X196364696Y-143560802D01*
X196112880Y-143183932D01*
X195939426Y-142765177D01*
X195851000Y-142320629D01*
X195851000Y-141867371D01*
X195939426Y-141422823D01*
X196112880Y-141004068D01*
X196364696Y-140627198D01*
X196685198Y-140306696D01*
X197062068Y-140054880D01*
X197480823Y-139881426D01*
X197703097Y-139837213D01*
X197925370Y-139793000D01*
X198378630Y-139793000D01*
X198600903Y-139837213D01*
G37*
G36*
X194324098Y-135577033D02*
G01*
X194788350Y-135769332D01*
X194788352Y-135769333D01*
X195206168Y-136048509D01*
X195561491Y-136403832D01*
X195840667Y-136821648D01*
X195840668Y-136821650D01*
X196032967Y-137285902D01*
X196131000Y-137778747D01*
X196131000Y-138281253D01*
X196032967Y-138774098D01*
X195840668Y-139238350D01*
X195840667Y-139238352D01*
X195561491Y-139656168D01*
X195206168Y-140011491D01*
X194788352Y-140290667D01*
X194788351Y-140290668D01*
X194788350Y-140290668D01*
X194324098Y-140482967D01*
X193831253Y-140581000D01*
X193328747Y-140581000D01*
X192835902Y-140482967D01*
X192371650Y-140290668D01*
X192371649Y-140290668D01*
X192371648Y-140290667D01*
X191953832Y-140011491D01*
X191598509Y-139656168D01*
X191319333Y-139238352D01*
X191319332Y-139238350D01*
X191127033Y-138774098D01*
X191029000Y-138281253D01*
X191029000Y-137778747D01*
X191127033Y-137285902D01*
X191319332Y-136821650D01*
X191319333Y-136821648D01*
X191598509Y-136403832D01*
X191953832Y-136048509D01*
X192371648Y-135769333D01*
X192371650Y-135769332D01*
X192835902Y-135577033D01*
X193328747Y-135479000D01*
X193831253Y-135479000D01*
X194324098Y-135577033D01*
G37*
G36*
X147429487Y-135298996D02*
G01*
X147593148Y-135366787D01*
X147666255Y-135397069D01*
X147879339Y-135539447D01*
X148060553Y-135720661D01*
X148150251Y-135854903D01*
X148202932Y-135933747D01*
X148301004Y-136170513D01*
X148351000Y-136421861D01*
X148351000Y-136678139D01*
X148301004Y-136929487D01*
X148202932Y-137166253D01*
X148202931Y-137166255D01*
X148060553Y-137379339D01*
X147879339Y-137560553D01*
X147666255Y-137702931D01*
X147666254Y-137702932D01*
X147666253Y-137702932D01*
X147429487Y-137801004D01*
X147178139Y-137851000D01*
X146921861Y-137851000D01*
X146670513Y-137801004D01*
X146433747Y-137702932D01*
X146433746Y-137702932D01*
X146433745Y-137702931D01*
X146220661Y-137560553D01*
X146039447Y-137379339D01*
X145897069Y-137166255D01*
X145897068Y-137166253D01*
X145798996Y-136929487D01*
X145749000Y-136678139D01*
X145749000Y-136421861D01*
X145798996Y-136170513D01*
X145897068Y-135933747D01*
X145949750Y-135854903D01*
X146039447Y-135720661D01*
X146220661Y-135539447D01*
X146433745Y-135397069D01*
X146506852Y-135366787D01*
X146670513Y-135298996D01*
X146921861Y-135249000D01*
X147178139Y-135249000D01*
X147429487Y-135298996D01*
G37*
G36*
X159429487Y-135298996D02*
G01*
X159593148Y-135366787D01*
X159666255Y-135397069D01*
X159879339Y-135539447D01*
X160060553Y-135720661D01*
X160150251Y-135854903D01*
X160202932Y-135933747D01*
X160301004Y-136170513D01*
X160351000Y-136421861D01*
X160351000Y-136678139D01*
X160301004Y-136929487D01*
X160202932Y-137166253D01*
X160202931Y-137166255D01*
X160060553Y-137379339D01*
X159879339Y-137560553D01*
X159666255Y-137702931D01*
X159666254Y-137702932D01*
X159666253Y-137702932D01*
X159429487Y-137801004D01*
X159178139Y-137851000D01*
X158921861Y-137851000D01*
X158670513Y-137801004D01*
X158433747Y-137702932D01*
X158433746Y-137702932D01*
X158433745Y-137702931D01*
X158220661Y-137560553D01*
X158039447Y-137379339D01*
X157897069Y-137166255D01*
X157897068Y-137166253D01*
X157798996Y-136929487D01*
X157749000Y-136678139D01*
X157749000Y-136421861D01*
X157798996Y-136170513D01*
X157897068Y-135933747D01*
X157949750Y-135854903D01*
X158039447Y-135720661D01*
X158220661Y-135539447D01*
X158433745Y-135397069D01*
X158506852Y-135366787D01*
X158670513Y-135298996D01*
X158921861Y-135249000D01*
X159178139Y-135249000D01*
X159429487Y-135298996D01*
G37*
G36*
X171964903Y-134287075D02*
G01*
X172192571Y-134381378D01*
X172397466Y-134518285D01*
X172571715Y-134692534D01*
X172708622Y-134897429D01*
X172708623Y-134897431D01*
X172802925Y-135125097D01*
X172844613Y-135334674D01*
X172851000Y-135366787D01*
X172851000Y-135613213D01*
X172802925Y-135854903D01*
X172708622Y-136082571D01*
X172571715Y-136287466D01*
X172397466Y-136461715D01*
X172192571Y-136598622D01*
X172192570Y-136598623D01*
X172192569Y-136598623D01*
X171964903Y-136692925D01*
X171723214Y-136741000D01*
X171476786Y-136741000D01*
X171235097Y-136692925D01*
X171007431Y-136598623D01*
X171007430Y-136598623D01*
X171007429Y-136598622D01*
X170802534Y-136461715D01*
X170628285Y-136287466D01*
X170491378Y-136082571D01*
X170397075Y-135854903D01*
X170349000Y-135613213D01*
X170349000Y-135366787D01*
X170355388Y-135334674D01*
X170397075Y-135125097D01*
X170491377Y-134897431D01*
X170491378Y-134897429D01*
X170628285Y-134692534D01*
X170802534Y-134518285D01*
X171007429Y-134381378D01*
X171235097Y-134287075D01*
X171476786Y-134239000D01*
X171723214Y-134239000D01*
X171964903Y-134287075D01*
G37*
G36*
X186964903Y-134287075D02*
G01*
X187192571Y-134381378D01*
X187397466Y-134518285D01*
X187571715Y-134692534D01*
X187708622Y-134897429D01*
X187708623Y-134897431D01*
X187802925Y-135125097D01*
X187844613Y-135334674D01*
X187851000Y-135366787D01*
X187851000Y-135613213D01*
X187802925Y-135854903D01*
X187708622Y-136082571D01*
X187571715Y-136287466D01*
X187397466Y-136461715D01*
X187192571Y-136598622D01*
X187192570Y-136598623D01*
X187192569Y-136598623D01*
X186964903Y-136692925D01*
X186723214Y-136741000D01*
X186476786Y-136741000D01*
X186235097Y-136692925D01*
X186007431Y-136598623D01*
X186007430Y-136598623D01*
X186007429Y-136598622D01*
X185802534Y-136461715D01*
X185628285Y-136287466D01*
X185491378Y-136082571D01*
X185397075Y-135854903D01*
X185349000Y-135613213D01*
X185349000Y-135366787D01*
X185355388Y-135334674D01*
X185397075Y-135125097D01*
X185491377Y-134897431D01*
X185491378Y-134897429D01*
X185628285Y-134692534D01*
X185802534Y-134518285D01*
X186007429Y-134381378D01*
X186235097Y-134287075D01*
X186476786Y-134239000D01*
X186723214Y-134239000D01*
X186964903Y-134287075D01*
G37*
G36*
X153402585Y-133078802D02*
G01*
X153552410Y-133108604D01*
X153834674Y-133225521D01*
X154088705Y-133395259D01*
X154304741Y-133611295D01*
X154474479Y-133865326D01*
X154591396Y-134147590D01*
X154651000Y-134447240D01*
X154651000Y-134752760D01*
X154591396Y-135052410D01*
X154474479Y-135334674D01*
X154304741Y-135588705D01*
X154088705Y-135804741D01*
X153834674Y-135974479D01*
X153552410Y-136091396D01*
X153402585Y-136121198D01*
X153252761Y-136151000D01*
X152947239Y-136151000D01*
X152797415Y-136121198D01*
X152647590Y-136091396D01*
X152365326Y-135974479D01*
X152111295Y-135804741D01*
X151895259Y-135588705D01*
X151725521Y-135334674D01*
X151608604Y-135052410D01*
X151549000Y-134752760D01*
X151549000Y-134447240D01*
X151608604Y-134147590D01*
X151725521Y-133865326D01*
X151895259Y-133611295D01*
X152111295Y-133395259D01*
X152365326Y-133225521D01*
X152647590Y-133108604D01*
X152797415Y-133078802D01*
X152947239Y-133049000D01*
X153252761Y-133049000D01*
X153402585Y-133078802D01*
G37*
G36*
X196851000Y-133551000D02*
G01*
X194749000Y-133551000D01*
X194749000Y-131449000D01*
X196851000Y-131449000D01*
X196851000Y-133551000D01*
G37*
G36*
X206106564Y-131489389D02*
G01*
X206297833Y-131568615D01*
X206297835Y-131568616D01*
X206469973Y-131683635D01*
X206616365Y-131830027D01*
X206731385Y-132002167D01*
X206810611Y-132193436D01*
X206851000Y-132396484D01*
X206851000Y-132603516D01*
X206810611Y-132806564D01*
X206731385Y-132997833D01*
X206731384Y-132997835D01*
X206616365Y-133169973D01*
X206469973Y-133316365D01*
X206297835Y-133431384D01*
X206297834Y-133431385D01*
X206297833Y-133431385D01*
X206106564Y-133510611D01*
X205903516Y-133551000D01*
X205696484Y-133551000D01*
X205493436Y-133510611D01*
X205302167Y-133431385D01*
X205302166Y-133431385D01*
X205302165Y-133431384D01*
X205130027Y-133316365D01*
X204983635Y-133169973D01*
X204868616Y-132997835D01*
X204868615Y-132997833D01*
X204789389Y-132806564D01*
X204749000Y-132603516D01*
X204749000Y-132396484D01*
X204789389Y-132193436D01*
X204868615Y-132002167D01*
X204983635Y-131830027D01*
X205130027Y-131683635D01*
X205302165Y-131568616D01*
X205302167Y-131568615D01*
X205493436Y-131489389D01*
X205696484Y-131449000D01*
X205903516Y-131449000D01*
X206106564Y-131489389D01*
G37*
G36*
X189251000Y-129356000D02*
G01*
X187549000Y-129356000D01*
X187549000Y-127654000D01*
X189251000Y-127654000D01*
X189251000Y-129356000D01*
G37*
G36*
X186148228Y-127686703D02*
G01*
X186303100Y-127750853D01*
X186442481Y-127843985D01*
X186561015Y-127962519D01*
X186654147Y-128101900D01*
X186718297Y-128256772D01*
X186751000Y-128421184D01*
X186751000Y-128588816D01*
X186718297Y-128753228D01*
X186654147Y-128908100D01*
X186561015Y-129047481D01*
X186442481Y-129166015D01*
X186303100Y-129259147D01*
X186148228Y-129323297D01*
X185983816Y-129356000D01*
X185816184Y-129356000D01*
X185651772Y-129323297D01*
X185496900Y-129259147D01*
X185357519Y-129166015D01*
X185238985Y-129047481D01*
X185145853Y-128908100D01*
X185081703Y-128753228D01*
X185049000Y-128588816D01*
X185049000Y-128421184D01*
X185081703Y-128256772D01*
X185145853Y-128101900D01*
X185238985Y-127962519D01*
X185357519Y-127843985D01*
X185496900Y-127750853D01*
X185651772Y-127686703D01*
X185816184Y-127654000D01*
X185983816Y-127654000D01*
X186148228Y-127686703D01*
G37*
G36*
X170689890Y-127974017D02*
G01*
X170808364Y-128023091D01*
X170914988Y-128094335D01*
X171005665Y-128185012D01*
X171053614Y-128256772D01*
X171076910Y-128291638D01*
X171125983Y-128410110D01*
X171151000Y-128535881D01*
X171151000Y-128664119D01*
X171125983Y-128789890D01*
X171077019Y-128908100D01*
X171076909Y-128908364D01*
X171005665Y-129014988D01*
X170914988Y-129105665D01*
X170808364Y-129176909D01*
X170808363Y-129176910D01*
X170808362Y-129176910D01*
X170689890Y-129225983D01*
X170564119Y-129251000D01*
X170435881Y-129251000D01*
X170310110Y-129225983D01*
X170191638Y-129176910D01*
X170191637Y-129176910D01*
X170191636Y-129176909D01*
X170085012Y-129105665D01*
X169994335Y-129014988D01*
X169923091Y-128908364D01*
X169922982Y-128908100D01*
X169874017Y-128789890D01*
X169849000Y-128664119D01*
X169849000Y-128535881D01*
X169874017Y-128410110D01*
X169923090Y-128291638D01*
X169946387Y-128256772D01*
X169994335Y-128185012D01*
X170085012Y-128094335D01*
X170191636Y-128023091D01*
X170310110Y-127974017D01*
X170435881Y-127949000D01*
X170564119Y-127949000D01*
X170689890Y-127974017D01*
G37*
G36*
X176489890Y-127974017D02*
G01*
X176608364Y-128023091D01*
X176714988Y-128094335D01*
X176805665Y-128185012D01*
X176853614Y-128256772D01*
X176876910Y-128291638D01*
X176925983Y-128410110D01*
X176951000Y-128535881D01*
X176951000Y-128664119D01*
X176925983Y-128789890D01*
X176877019Y-128908100D01*
X176876909Y-128908364D01*
X176805665Y-129014988D01*
X176714988Y-129105665D01*
X176608364Y-129176909D01*
X176608363Y-129176910D01*
X176608362Y-129176910D01*
X176489890Y-129225983D01*
X176364119Y-129251000D01*
X176235881Y-129251000D01*
X176110110Y-129225983D01*
X175991638Y-129176910D01*
X175991637Y-129176910D01*
X175991636Y-129176909D01*
X175885012Y-129105665D01*
X175794335Y-129014988D01*
X175723091Y-128908364D01*
X175722982Y-128908100D01*
X175674017Y-128789890D01*
X175649000Y-128664119D01*
X175649000Y-128535881D01*
X175674017Y-128410110D01*
X175723090Y-128291638D01*
X175746387Y-128256772D01*
X175794335Y-128185012D01*
X175885012Y-128094335D01*
X175991636Y-128023091D01*
X176110110Y-127974017D01*
X176235881Y-127949000D01*
X176364119Y-127949000D01*
X176489890Y-127974017D01*
G37*
G36*
X181589890Y-127874017D02*
G01*
X181708364Y-127923091D01*
X181784580Y-127974017D01*
X181814988Y-127994335D01*
X181905665Y-128085012D01*
X181976910Y-128191638D01*
X182025983Y-128310110D01*
X182051000Y-128435881D01*
X182051000Y-128564119D01*
X182031109Y-128664118D01*
X182025983Y-128689890D01*
X181976909Y-128808364D01*
X181905665Y-128914988D01*
X181814988Y-129005665D01*
X181708364Y-129076909D01*
X181708363Y-129076910D01*
X181708362Y-129076910D01*
X181589890Y-129125983D01*
X181464119Y-129151000D01*
X181335881Y-129151000D01*
X181210110Y-129125983D01*
X181091638Y-129076910D01*
X181091637Y-129076910D01*
X181091636Y-129076909D01*
X180985012Y-129005665D01*
X180894335Y-128914988D01*
X180823091Y-128808364D01*
X180774017Y-128689890D01*
X180768891Y-128664118D01*
X180749000Y-128564119D01*
X180749000Y-128435881D01*
X180774017Y-128310110D01*
X180823090Y-128191638D01*
X180894335Y-128085012D01*
X180985012Y-127994335D01*
X181015420Y-127974017D01*
X181091636Y-127923091D01*
X181210110Y-127874017D01*
X181335881Y-127849000D01*
X181464119Y-127849000D01*
X181589890Y-127874017D01*
G37*
G36*
X116151000Y-127951000D02*
G01*
X113049000Y-127951000D01*
X113049000Y-124849000D01*
X116151000Y-124849000D01*
X116151000Y-127951000D01*
G37*
G36*
X171151000Y-127251000D02*
G01*
X169849000Y-127251000D01*
X169849000Y-125949000D01*
X171151000Y-125949000D01*
X171151000Y-127251000D01*
G37*
G36*
X176951000Y-127251000D02*
G01*
X175649000Y-127251000D01*
X175649000Y-125949000D01*
X176951000Y-125949000D01*
X176951000Y-127251000D01*
G37*
G36*
X182051000Y-127151000D02*
G01*
X180749000Y-127151000D01*
X180749000Y-125849000D01*
X182051000Y-125849000D01*
X182051000Y-127151000D01*
G37*
G36*
X196106564Y-123889389D02*
G01*
X196297833Y-123968615D01*
X196297835Y-123968616D01*
X196444127Y-124066365D01*
X196469973Y-124083635D01*
X196616365Y-124230027D01*
X196731385Y-124402167D01*
X196810611Y-124593436D01*
X196851000Y-124796484D01*
X196851000Y-125003516D01*
X196810611Y-125206564D01*
X196731385Y-125397833D01*
X196731384Y-125397835D01*
X196616365Y-125569973D01*
X196469973Y-125716365D01*
X196297835Y-125831384D01*
X196297834Y-125831385D01*
X196297833Y-125831385D01*
X196106564Y-125910611D01*
X195903516Y-125951000D01*
X195696484Y-125951000D01*
X195493436Y-125910611D01*
X195302167Y-125831385D01*
X195302166Y-125831385D01*
X195302165Y-125831384D01*
X195130027Y-125716365D01*
X194983635Y-125569973D01*
X194868616Y-125397835D01*
X194868615Y-125397833D01*
X194789389Y-125206564D01*
X194749000Y-125003516D01*
X194749000Y-124796484D01*
X194789389Y-124593436D01*
X194868615Y-124402167D01*
X194983635Y-124230027D01*
X195130027Y-124083635D01*
X195155873Y-124066365D01*
X195302165Y-123968616D01*
X195302167Y-123968615D01*
X195493436Y-123889389D01*
X195696484Y-123849000D01*
X195903516Y-123849000D01*
X196106564Y-123889389D01*
G37*
G36*
X206106564Y-123889389D02*
G01*
X206297833Y-123968615D01*
X206297835Y-123968616D01*
X206444127Y-124066365D01*
X206469973Y-124083635D01*
X206616365Y-124230027D01*
X206731385Y-124402167D01*
X206810611Y-124593436D01*
X206851000Y-124796484D01*
X206851000Y-125003516D01*
X206810611Y-125206564D01*
X206731385Y-125397833D01*
X206731384Y-125397835D01*
X206616365Y-125569973D01*
X206469973Y-125716365D01*
X206297835Y-125831384D01*
X206297834Y-125831385D01*
X206297833Y-125831385D01*
X206106564Y-125910611D01*
X205903516Y-125951000D01*
X205696484Y-125951000D01*
X205493436Y-125910611D01*
X205302167Y-125831385D01*
X205302166Y-125831385D01*
X205302165Y-125831384D01*
X205130027Y-125716365D01*
X204983635Y-125569973D01*
X204868616Y-125397835D01*
X204868615Y-125397833D01*
X204789389Y-125206564D01*
X204749000Y-125003516D01*
X204749000Y-124796484D01*
X204789389Y-124593436D01*
X204868615Y-124402167D01*
X204983635Y-124230027D01*
X205130027Y-124083635D01*
X205155873Y-124066365D01*
X205302165Y-123968616D01*
X205302167Y-123968615D01*
X205493436Y-123889389D01*
X205696484Y-123849000D01*
X205903516Y-123849000D01*
X206106564Y-123889389D01*
G37*
G36*
X141306564Y-122239389D02*
G01*
X141473908Y-122308705D01*
X141497835Y-122318616D01*
X141669973Y-122433635D01*
X141816365Y-122580027D01*
X141931385Y-122752167D01*
X142010611Y-122943436D01*
X142051000Y-123146484D01*
X142051000Y-123353516D01*
X142010611Y-123556564D01*
X141931385Y-123747833D01*
X141931384Y-123747835D01*
X141816365Y-123919973D01*
X141669973Y-124066365D01*
X141497835Y-124181384D01*
X141497834Y-124181385D01*
X141497833Y-124181385D01*
X141306564Y-124260611D01*
X141103516Y-124301000D01*
X140896484Y-124301000D01*
X140693436Y-124260611D01*
X140502167Y-124181385D01*
X140502166Y-124181385D01*
X140502165Y-124181384D01*
X140330027Y-124066365D01*
X140183635Y-123919973D01*
X140068616Y-123747835D01*
X140068615Y-123747833D01*
X139989389Y-123556564D01*
X139949000Y-123353516D01*
X139949000Y-123146484D01*
X139989389Y-122943436D01*
X140068615Y-122752167D01*
X140183635Y-122580027D01*
X140330027Y-122433635D01*
X140502165Y-122318616D01*
X140526092Y-122308705D01*
X140693436Y-122239389D01*
X140896484Y-122199000D01*
X141103516Y-122199000D01*
X141306564Y-122239389D01*
G37*
G36*
X145806564Y-122239389D02*
G01*
X145973908Y-122308705D01*
X145997835Y-122318616D01*
X146169973Y-122433635D01*
X146316365Y-122580027D01*
X146431385Y-122752167D01*
X146510611Y-122943436D01*
X146551000Y-123146484D01*
X146551000Y-123353516D01*
X146510611Y-123556564D01*
X146431385Y-123747833D01*
X146431384Y-123747835D01*
X146316365Y-123919973D01*
X146169973Y-124066365D01*
X145997835Y-124181384D01*
X145997834Y-124181385D01*
X145997833Y-124181385D01*
X145806564Y-124260611D01*
X145603516Y-124301000D01*
X145396484Y-124301000D01*
X145193436Y-124260611D01*
X145002167Y-124181385D01*
X145002166Y-124181385D01*
X145002165Y-124181384D01*
X144830027Y-124066365D01*
X144683635Y-123919973D01*
X144568616Y-123747835D01*
X144568615Y-123747833D01*
X144489389Y-123556564D01*
X144449000Y-123353516D01*
X144449000Y-123146484D01*
X144489389Y-122943436D01*
X144568615Y-122752167D01*
X144683635Y-122580027D01*
X144830027Y-122433635D01*
X145002165Y-122318616D01*
X145026092Y-122308705D01*
X145193436Y-122239389D01*
X145396484Y-122199000D01*
X145603516Y-122199000D01*
X145806564Y-122239389D01*
G37*
G36*
X130556564Y-122239389D02*
G01*
X130723908Y-122308705D01*
X130747835Y-122318616D01*
X130919973Y-122433635D01*
X131066365Y-122580027D01*
X131181385Y-122752167D01*
X131260611Y-122943436D01*
X131301000Y-123146484D01*
X131301000Y-123353516D01*
X131260611Y-123556564D01*
X131181385Y-123747833D01*
X131181384Y-123747835D01*
X131066365Y-123919973D01*
X130919973Y-124066365D01*
X130747835Y-124181384D01*
X130747834Y-124181385D01*
X130747833Y-124181385D01*
X130556564Y-124260611D01*
X130353516Y-124301000D01*
X130146484Y-124301000D01*
X129943436Y-124260611D01*
X129752167Y-124181385D01*
X129752166Y-124181385D01*
X129752165Y-124181384D01*
X129580027Y-124066365D01*
X129433635Y-123919973D01*
X129318616Y-123747835D01*
X129318615Y-123747833D01*
X129239389Y-123556564D01*
X129199000Y-123353516D01*
X129199000Y-123146484D01*
X129239389Y-122943436D01*
X129318615Y-122752167D01*
X129433635Y-122580027D01*
X129580027Y-122433635D01*
X129752165Y-122318616D01*
X129776092Y-122308705D01*
X129943436Y-122239389D01*
X130146484Y-122199000D01*
X130353516Y-122199000D01*
X130556564Y-122239389D01*
G37*
G36*
X135056564Y-122239389D02*
G01*
X135223908Y-122308705D01*
X135247835Y-122318616D01*
X135419973Y-122433635D01*
X135566365Y-122580027D01*
X135681385Y-122752167D01*
X135760611Y-122943436D01*
X135801000Y-123146484D01*
X135801000Y-123353516D01*
X135760611Y-123556564D01*
X135681385Y-123747833D01*
X135681384Y-123747835D01*
X135566365Y-123919973D01*
X135419973Y-124066365D01*
X135247835Y-124181384D01*
X135247834Y-124181385D01*
X135247833Y-124181385D01*
X135056564Y-124260611D01*
X134853516Y-124301000D01*
X134646484Y-124301000D01*
X134443436Y-124260611D01*
X134252167Y-124181385D01*
X134252166Y-124181385D01*
X134252165Y-124181384D01*
X134080027Y-124066365D01*
X133933635Y-123919973D01*
X133818616Y-123747835D01*
X133818615Y-123747833D01*
X133739389Y-123556564D01*
X133699000Y-123353516D01*
X133699000Y-123146484D01*
X133739389Y-122943436D01*
X133818615Y-122752167D01*
X133933635Y-122580027D01*
X134080027Y-122433635D01*
X134252165Y-122318616D01*
X134276092Y-122308705D01*
X134443436Y-122239389D01*
X134646484Y-122199000D01*
X134853516Y-122199000D01*
X135056564Y-122239389D01*
G37*
G36*
X114902585Y-119798802D02*
G01*
X115052410Y-119828604D01*
X115334674Y-119945521D01*
X115588705Y-120115259D01*
X115804741Y-120331295D01*
X115974479Y-120585326D01*
X116091396Y-120867590D01*
X116151000Y-121167240D01*
X116151000Y-121472760D01*
X116091396Y-121772410D01*
X115974479Y-122054674D01*
X115804741Y-122308705D01*
X115588705Y-122524741D01*
X115334674Y-122694479D01*
X115052410Y-122811396D01*
X114902585Y-122841198D01*
X114752761Y-122871000D01*
X114447239Y-122871000D01*
X114297415Y-122841198D01*
X114147590Y-122811396D01*
X113865326Y-122694479D01*
X113611295Y-122524741D01*
X113395259Y-122308705D01*
X113225521Y-122054674D01*
X113108604Y-121772410D01*
X113049000Y-121472760D01*
X113049000Y-121167240D01*
X113108604Y-120867590D01*
X113225521Y-120585326D01*
X113395259Y-120331295D01*
X113611295Y-120115259D01*
X113865326Y-119945521D01*
X114147590Y-119828604D01*
X114297415Y-119798802D01*
X114447239Y-119769000D01*
X114752761Y-119769000D01*
X114902585Y-119798802D01*
G37*
G36*
X206764903Y-117597075D02*
G01*
X206968444Y-117681384D01*
X206992571Y-117691378D01*
X207197466Y-117828285D01*
X207371715Y-118002534D01*
X207508622Y-118207429D01*
X207602925Y-118435097D01*
X207651000Y-118676787D01*
X207651000Y-118923213D01*
X207602925Y-119164903D01*
X207508622Y-119392571D01*
X207371715Y-119597466D01*
X207197466Y-119771715D01*
X206992571Y-119908622D01*
X206992570Y-119908623D01*
X206992569Y-119908623D01*
X206764903Y-120002925D01*
X206523214Y-120051000D01*
X206276786Y-120051000D01*
X206035097Y-120002925D01*
X205807431Y-119908623D01*
X205807430Y-119908623D01*
X205807429Y-119908622D01*
X205602534Y-119771715D01*
X205428285Y-119597466D01*
X205291378Y-119392571D01*
X205197075Y-119164903D01*
X205149000Y-118923213D01*
X205149000Y-118676787D01*
X205197075Y-118435097D01*
X205291378Y-118207429D01*
X205428285Y-118002534D01*
X205602534Y-117828285D01*
X205807429Y-117691378D01*
X205831557Y-117681384D01*
X206035097Y-117597075D01*
X206276786Y-117549000D01*
X206523214Y-117549000D01*
X206764903Y-117597075D01*
G37*
G36*
X191764903Y-117597075D02*
G01*
X191968444Y-117681384D01*
X191992571Y-117691378D01*
X192197466Y-117828285D01*
X192371715Y-118002534D01*
X192508622Y-118207429D01*
X192602925Y-118435097D01*
X192651000Y-118676787D01*
X192651000Y-118923213D01*
X192602925Y-119164903D01*
X192508622Y-119392571D01*
X192371715Y-119597466D01*
X192197466Y-119771715D01*
X191992571Y-119908622D01*
X191992570Y-119908623D01*
X191992569Y-119908623D01*
X191764903Y-120002925D01*
X191523214Y-120051000D01*
X191276786Y-120051000D01*
X191035097Y-120002925D01*
X190807431Y-119908623D01*
X190807430Y-119908623D01*
X190807429Y-119908622D01*
X190602534Y-119771715D01*
X190428285Y-119597466D01*
X190291378Y-119392571D01*
X190197075Y-119164903D01*
X190149000Y-118923213D01*
X190149000Y-118676787D01*
X190197075Y-118435097D01*
X190291378Y-118207429D01*
X190428285Y-118002534D01*
X190602534Y-117828285D01*
X190807429Y-117691378D01*
X190831557Y-117681384D01*
X191035097Y-117597075D01*
X191276786Y-117549000D01*
X191523214Y-117549000D01*
X191764903Y-117597075D01*
G37*
G36*
X145806564Y-115739389D02*
G01*
X145997833Y-115818615D01*
X145997835Y-115818616D01*
X146169973Y-115933635D01*
X146316365Y-116080027D01*
X146431385Y-116252167D01*
X146510611Y-116443436D01*
X146551000Y-116646484D01*
X146551000Y-116853516D01*
X146510611Y-117056564D01*
X146439308Y-117228704D01*
X146431384Y-117247835D01*
X146316365Y-117419973D01*
X146169973Y-117566365D01*
X145997835Y-117681384D01*
X145997834Y-117681385D01*
X145997833Y-117681385D01*
X145806564Y-117760611D01*
X145603516Y-117801000D01*
X145396484Y-117801000D01*
X145193436Y-117760611D01*
X145002167Y-117681385D01*
X145002166Y-117681385D01*
X145002165Y-117681384D01*
X144830027Y-117566365D01*
X144683635Y-117419973D01*
X144568616Y-117247835D01*
X144560692Y-117228704D01*
X144489389Y-117056564D01*
X144449000Y-116853516D01*
X144449000Y-116646484D01*
X144489389Y-116443436D01*
X144568615Y-116252167D01*
X144683635Y-116080027D01*
X144830027Y-115933635D01*
X145002165Y-115818616D01*
X145002167Y-115818615D01*
X145193436Y-115739389D01*
X145396484Y-115699000D01*
X145603516Y-115699000D01*
X145806564Y-115739389D01*
G37*
G36*
X141306564Y-115739389D02*
G01*
X141497833Y-115818615D01*
X141497835Y-115818616D01*
X141669973Y-115933635D01*
X141816365Y-116080027D01*
X141931385Y-116252167D01*
X142010611Y-116443436D01*
X142051000Y-116646484D01*
X142051000Y-116853516D01*
X142010611Y-117056564D01*
X141939308Y-117228704D01*
X141931384Y-117247835D01*
X141816365Y-117419973D01*
X141669973Y-117566365D01*
X141497835Y-117681384D01*
X141497834Y-117681385D01*
X141497833Y-117681385D01*
X141306564Y-117760611D01*
X141103516Y-117801000D01*
X140896484Y-117801000D01*
X140693436Y-117760611D01*
X140502167Y-117681385D01*
X140502166Y-117681385D01*
X140502165Y-117681384D01*
X140330027Y-117566365D01*
X140183635Y-117419973D01*
X140068616Y-117247835D01*
X140060692Y-117228704D01*
X139989389Y-117056564D01*
X139949000Y-116853516D01*
X139949000Y-116646484D01*
X139989389Y-116443436D01*
X140068615Y-116252167D01*
X140183635Y-116080027D01*
X140330027Y-115933635D01*
X140502165Y-115818616D01*
X140502167Y-115818615D01*
X140693436Y-115739389D01*
X140896484Y-115699000D01*
X141103516Y-115699000D01*
X141306564Y-115739389D01*
G37*
G36*
X130556564Y-115739389D02*
G01*
X130747833Y-115818615D01*
X130747835Y-115818616D01*
X130919973Y-115933635D01*
X131066365Y-116080027D01*
X131181385Y-116252167D01*
X131260611Y-116443436D01*
X131301000Y-116646484D01*
X131301000Y-116853516D01*
X131260611Y-117056564D01*
X131189308Y-117228704D01*
X131181384Y-117247835D01*
X131066365Y-117419973D01*
X130919973Y-117566365D01*
X130747835Y-117681384D01*
X130747834Y-117681385D01*
X130747833Y-117681385D01*
X130556564Y-117760611D01*
X130353516Y-117801000D01*
X130146484Y-117801000D01*
X129943436Y-117760611D01*
X129752167Y-117681385D01*
X129752166Y-117681385D01*
X129752165Y-117681384D01*
X129580027Y-117566365D01*
X129433635Y-117419973D01*
X129318616Y-117247835D01*
X129310692Y-117228704D01*
X129239389Y-117056564D01*
X129199000Y-116853516D01*
X129199000Y-116646484D01*
X129239389Y-116443436D01*
X129318615Y-116252167D01*
X129433635Y-116080027D01*
X129580027Y-115933635D01*
X129752165Y-115818616D01*
X129752167Y-115818615D01*
X129943436Y-115739389D01*
X130146484Y-115699000D01*
X130353516Y-115699000D01*
X130556564Y-115739389D01*
G37*
G36*
X135056564Y-115739389D02*
G01*
X135247833Y-115818615D01*
X135247835Y-115818616D01*
X135419973Y-115933635D01*
X135566365Y-116080027D01*
X135681385Y-116252167D01*
X135760611Y-116443436D01*
X135801000Y-116646484D01*
X135801000Y-116853516D01*
X135760611Y-117056564D01*
X135689308Y-117228704D01*
X135681384Y-117247835D01*
X135566365Y-117419973D01*
X135419973Y-117566365D01*
X135247835Y-117681384D01*
X135247834Y-117681385D01*
X135247833Y-117681385D01*
X135056564Y-117760611D01*
X134853516Y-117801000D01*
X134646484Y-117801000D01*
X134443436Y-117760611D01*
X134252167Y-117681385D01*
X134252166Y-117681385D01*
X134252165Y-117681384D01*
X134080027Y-117566365D01*
X133933635Y-117419973D01*
X133818616Y-117247835D01*
X133810692Y-117228704D01*
X133739389Y-117056564D01*
X133699000Y-116853516D01*
X133699000Y-116646484D01*
X133739389Y-116443436D01*
X133818615Y-116252167D01*
X133933635Y-116080027D01*
X134080027Y-115933635D01*
X134252165Y-115818616D01*
X134252167Y-115818615D01*
X134443436Y-115739389D01*
X134646484Y-115699000D01*
X134853516Y-115699000D01*
X135056564Y-115739389D01*
G37*
G36*
X114902585Y-114718802D02*
G01*
X115052410Y-114748604D01*
X115334674Y-114865521D01*
X115588705Y-115035259D01*
X115804741Y-115251295D01*
X115974479Y-115505326D01*
X116091396Y-115787590D01*
X116151000Y-116087240D01*
X116151000Y-116392760D01*
X116091396Y-116692410D01*
X115974479Y-116974674D01*
X115804741Y-117228705D01*
X115588705Y-117444741D01*
X115334674Y-117614479D01*
X115052410Y-117731396D01*
X114905541Y-117760610D01*
X114752761Y-117791000D01*
X114447239Y-117791000D01*
X114294459Y-117760610D01*
X114147590Y-117731396D01*
X113865326Y-117614479D01*
X113611295Y-117444741D01*
X113395259Y-117228705D01*
X113225521Y-116974674D01*
X113108604Y-116692410D01*
X113049000Y-116392760D01*
X113049000Y-116087240D01*
X113108604Y-115787590D01*
X113225521Y-115505326D01*
X113395259Y-115251295D01*
X113611295Y-115035259D01*
X113865326Y-114865521D01*
X114147590Y-114748604D01*
X114297415Y-114718802D01*
X114447239Y-114689000D01*
X114752761Y-114689000D01*
X114902585Y-114718802D01*
G37*
G36*
X191951000Y-113251000D02*
G01*
X190649000Y-113251000D01*
X190649000Y-111949000D01*
X191951000Y-111949000D01*
X191951000Y-113251000D01*
G37*
G36*
X189489890Y-111974017D02*
G01*
X189608364Y-112023091D01*
X189714988Y-112094335D01*
X189805665Y-112185012D01*
X189876909Y-112291636D01*
X189925983Y-112410110D01*
X189951000Y-112535882D01*
X189951000Y-112664118D01*
X189925983Y-112789890D01*
X189876909Y-112908364D01*
X189805665Y-113014988D01*
X189714988Y-113105665D01*
X189608364Y-113176909D01*
X189608363Y-113176910D01*
X189608362Y-113176910D01*
X189489890Y-113225983D01*
X189364119Y-113251000D01*
X189235881Y-113251000D01*
X189110110Y-113225983D01*
X188991638Y-113176910D01*
X188991637Y-113176910D01*
X188991636Y-113176909D01*
X188885012Y-113105665D01*
X188794335Y-113014988D01*
X188723091Y-112908364D01*
X188674017Y-112789890D01*
X188649000Y-112664118D01*
X188649000Y-112535882D01*
X188674017Y-112410110D01*
X188723091Y-112291636D01*
X188794335Y-112185012D01*
X188885012Y-112094335D01*
X188991636Y-112023091D01*
X189110110Y-111974017D01*
X189235881Y-111949000D01*
X189364119Y-111949000D01*
X189489890Y-111974017D01*
G37*
G36*
X116151000Y-112051000D02*
G01*
X113049000Y-112051000D01*
X113049000Y-108949000D01*
X116151000Y-108949000D01*
X116151000Y-112051000D01*
G37*
G36*
X189489890Y-107074017D02*
G01*
X189608364Y-107123091D01*
X189714988Y-107194335D01*
X189805665Y-107285012D01*
X189876909Y-107391636D01*
X189925983Y-107510110D01*
X189951000Y-107635882D01*
X189951000Y-107764118D01*
X189925983Y-107889890D01*
X189876909Y-108008364D01*
X189805665Y-108114988D01*
X189714988Y-108205665D01*
X189608364Y-108276909D01*
X189608363Y-108276910D01*
X189608362Y-108276910D01*
X189489890Y-108325983D01*
X189364119Y-108351000D01*
X189235881Y-108351000D01*
X189110110Y-108325983D01*
X188991638Y-108276910D01*
X188991637Y-108276910D01*
X188991636Y-108276909D01*
X188885012Y-108205665D01*
X188794335Y-108114988D01*
X188723091Y-108008364D01*
X188674017Y-107889890D01*
X188649000Y-107764118D01*
X188649000Y-107635882D01*
X188674017Y-107510110D01*
X188723091Y-107391636D01*
X188794335Y-107285012D01*
X188885012Y-107194335D01*
X188991636Y-107123091D01*
X189110110Y-107074017D01*
X189235881Y-107049000D01*
X189364119Y-107049000D01*
X189489890Y-107074017D01*
G37*
G36*
X191951000Y-108351000D02*
G01*
X190649000Y-108351000D01*
X190649000Y-107049000D01*
X191951000Y-107049000D01*
X191951000Y-108351000D01*
G37*
G36*
X114902585Y-103898802D02*
G01*
X115052410Y-103928604D01*
X115334674Y-104045521D01*
X115588705Y-104215259D01*
X115804741Y-104431295D01*
X115974479Y-104685326D01*
X116091396Y-104967590D01*
X116151000Y-105267240D01*
X116151000Y-105572760D01*
X116091396Y-105872410D01*
X115974479Y-106154674D01*
X115804741Y-106408705D01*
X115588705Y-106624741D01*
X115334674Y-106794479D01*
X115052410Y-106911396D01*
X114902585Y-106941198D01*
X114752761Y-106971000D01*
X114447239Y-106971000D01*
X114297415Y-106941198D01*
X114147590Y-106911396D01*
X113865326Y-106794479D01*
X113611295Y-106624741D01*
X113395259Y-106408705D01*
X113225521Y-106154674D01*
X113108604Y-105872410D01*
X113049000Y-105572760D01*
X113049000Y-105267240D01*
X113108604Y-104967590D01*
X113225521Y-104685326D01*
X113395259Y-104431295D01*
X113611295Y-104215259D01*
X113865326Y-104045521D01*
X114147590Y-103928604D01*
X114297415Y-103898802D01*
X114447239Y-103869000D01*
X114752761Y-103869000D01*
X114902585Y-103898802D01*
G37*
G36*
X191951000Y-103351000D02*
G01*
X190649000Y-103351000D01*
X190649000Y-102049000D01*
X191951000Y-102049000D01*
X191951000Y-103351000D01*
G37*
G36*
X189489890Y-102074017D02*
G01*
X189608364Y-102123091D01*
X189714988Y-102194335D01*
X189805665Y-102285012D01*
X189876909Y-102391636D01*
X189925983Y-102510110D01*
X189951000Y-102635882D01*
X189951000Y-102764118D01*
X189925983Y-102889890D01*
X189876909Y-103008364D01*
X189805665Y-103114988D01*
X189714988Y-103205665D01*
X189608364Y-103276909D01*
X189608363Y-103276910D01*
X189608362Y-103276910D01*
X189489890Y-103325983D01*
X189364119Y-103351000D01*
X189235881Y-103351000D01*
X189110110Y-103325983D01*
X188991638Y-103276910D01*
X188991637Y-103276910D01*
X188991636Y-103276909D01*
X188885012Y-103205665D01*
X188794335Y-103114988D01*
X188723091Y-103008364D01*
X188674017Y-102889890D01*
X188649000Y-102764118D01*
X188649000Y-102635882D01*
X188674017Y-102510110D01*
X188723091Y-102391636D01*
X188794335Y-102285012D01*
X188885012Y-102194335D01*
X188991636Y-102123091D01*
X189110110Y-102074017D01*
X189235881Y-102049000D01*
X189364119Y-102049000D01*
X189489890Y-102074017D01*
G37*
G36*
X114902585Y-98818802D02*
G01*
X115052410Y-98848604D01*
X115334674Y-98965521D01*
X115588705Y-99135259D01*
X115804741Y-99351295D01*
X115974479Y-99605326D01*
X116091396Y-99887590D01*
X116151000Y-100187240D01*
X116151000Y-100492760D01*
X116091396Y-100792410D01*
X115974479Y-101074674D01*
X115804741Y-101328705D01*
X115588705Y-101544741D01*
X115334674Y-101714479D01*
X115052410Y-101831396D01*
X114902585Y-101861198D01*
X114752761Y-101891000D01*
X114447239Y-101891000D01*
X114297415Y-101861198D01*
X114147590Y-101831396D01*
X113865326Y-101714479D01*
X113611295Y-101544741D01*
X113395259Y-101328705D01*
X113225521Y-101074674D01*
X113108604Y-100792410D01*
X113049000Y-100492760D01*
X113049000Y-100187240D01*
X113108604Y-99887590D01*
X113225521Y-99605326D01*
X113395259Y-99351295D01*
X113611295Y-99135259D01*
X113865326Y-98965521D01*
X114147590Y-98848604D01*
X114297415Y-98818802D01*
X114447239Y-98789000D01*
X114752761Y-98789000D01*
X114902585Y-98818802D01*
G37*
G36*
X137618228Y-96421703D02*
G01*
X137773100Y-96485853D01*
X137912481Y-96578985D01*
X138031015Y-96697519D01*
X138124147Y-96836900D01*
X138188297Y-96991772D01*
X138221000Y-97156184D01*
X138221000Y-97323816D01*
X138188297Y-97488228D01*
X138124147Y-97643100D01*
X138031015Y-97782481D01*
X137912481Y-97901015D01*
X137773100Y-97994147D01*
X137618228Y-98058297D01*
X137453816Y-98091000D01*
X137286184Y-98091000D01*
X137121772Y-98058297D01*
X136966900Y-97994147D01*
X136827519Y-97901015D01*
X136708985Y-97782481D01*
X136615853Y-97643100D01*
X136551703Y-97488228D01*
X136519000Y-97323816D01*
X136519000Y-97156184D01*
X136551703Y-96991772D01*
X136615853Y-96836900D01*
X136708985Y-96697519D01*
X136827519Y-96578985D01*
X136966900Y-96485853D01*
X137121772Y-96421703D01*
X137286184Y-96389000D01*
X137453816Y-96389000D01*
X137618228Y-96421703D01*
G37*
G36*
X129998228Y-96421703D02*
G01*
X130153100Y-96485853D01*
X130292481Y-96578985D01*
X130411015Y-96697519D01*
X130504147Y-96836900D01*
X130568297Y-96991772D01*
X130601000Y-97156184D01*
X130601000Y-97323816D01*
X130568297Y-97488228D01*
X130504147Y-97643100D01*
X130411015Y-97782481D01*
X130292481Y-97901015D01*
X130153100Y-97994147D01*
X129998228Y-98058297D01*
X129833816Y-98091000D01*
X129666184Y-98091000D01*
X129501772Y-98058297D01*
X129346900Y-97994147D01*
X129207519Y-97901015D01*
X129088985Y-97782481D01*
X128995853Y-97643100D01*
X128931703Y-97488228D01*
X128899000Y-97323816D01*
X128899000Y-97156184D01*
X128931703Y-96991772D01*
X128995853Y-96836900D01*
X129088985Y-96697519D01*
X129207519Y-96578985D01*
X129346900Y-96485853D01*
X129501772Y-96421703D01*
X129666184Y-96389000D01*
X129833816Y-96389000D01*
X129998228Y-96421703D01*
G37*
G36*
X175937142Y-95778242D02*
G01*
X176085101Y-95839529D01*
X176218255Y-95928499D01*
X176331501Y-96041745D01*
X176420471Y-96174899D01*
X176481758Y-96322858D01*
X176513000Y-96479925D01*
X176513000Y-96640075D01*
X176481758Y-96797142D01*
X176420471Y-96945101D01*
X176331501Y-97078255D01*
X176218255Y-97191501D01*
X176085101Y-97280471D01*
X175937142Y-97341758D01*
X175780075Y-97373000D01*
X175619925Y-97373000D01*
X175462858Y-97341758D01*
X175314899Y-97280471D01*
X175181745Y-97191501D01*
X175068499Y-97078255D01*
X174979529Y-96945101D01*
X174918242Y-96797142D01*
X174887000Y-96640075D01*
X174887000Y-96479925D01*
X174918242Y-96322858D01*
X174979529Y-96174899D01*
X175068499Y-96041745D01*
X175181745Y-95928499D01*
X175314899Y-95839529D01*
X175462858Y-95778242D01*
X175619925Y-95747000D01*
X175780075Y-95747000D01*
X175937142Y-95778242D01*
G37*
G36*
X150537142Y-95778242D02*
G01*
X150685101Y-95839529D01*
X150818255Y-95928499D01*
X150931501Y-96041745D01*
X151020471Y-96174899D01*
X151081758Y-96322858D01*
X151113000Y-96479925D01*
X151113000Y-96640075D01*
X151081758Y-96797142D01*
X151020471Y-96945101D01*
X150931501Y-97078255D01*
X150818255Y-97191501D01*
X150685101Y-97280471D01*
X150537142Y-97341758D01*
X150380075Y-97373000D01*
X150219925Y-97373000D01*
X150062858Y-97341758D01*
X149914899Y-97280471D01*
X149781745Y-97191501D01*
X149668499Y-97078255D01*
X149579529Y-96945101D01*
X149518242Y-96797142D01*
X149487000Y-96640075D01*
X149487000Y-96479925D01*
X149518242Y-96322858D01*
X149579529Y-96174899D01*
X149668499Y-96041745D01*
X149781745Y-95928499D01*
X149914899Y-95839529D01*
X150062858Y-95778242D01*
X150219925Y-95747000D01*
X150380075Y-95747000D01*
X150537142Y-95778242D01*
G37*
G36*
X116151000Y-95951000D02*
G01*
X113049000Y-95951000D01*
X113049000Y-92849000D01*
X116151000Y-92849000D01*
X116151000Y-95951000D01*
G37*
G36*
X130601000Y-95551000D02*
G01*
X128899000Y-95551000D01*
X128899000Y-93849000D01*
X130601000Y-93849000D01*
X130601000Y-95551000D01*
G37*
G36*
X137618228Y-93881703D02*
G01*
X137773100Y-93945853D01*
X137912481Y-94038985D01*
X138031015Y-94157519D01*
X138124147Y-94296900D01*
X138188297Y-94451772D01*
X138221000Y-94616184D01*
X138221000Y-94783816D01*
X138188297Y-94948228D01*
X138124147Y-95103100D01*
X138031015Y-95242481D01*
X137912481Y-95361015D01*
X137773100Y-95454147D01*
X137618228Y-95518297D01*
X137453816Y-95551000D01*
X137286184Y-95551000D01*
X137121772Y-95518297D01*
X136966900Y-95454147D01*
X136827519Y-95361015D01*
X136708985Y-95242481D01*
X136615853Y-95103100D01*
X136551703Y-94948228D01*
X136519000Y-94783816D01*
X136519000Y-94616184D01*
X136551703Y-94451772D01*
X136615853Y-94296900D01*
X136708985Y-94157519D01*
X136827519Y-94038985D01*
X136966900Y-93945853D01*
X137121772Y-93881703D01*
X137286184Y-93849000D01*
X137453816Y-93849000D01*
X137618228Y-93881703D01*
G37*
G36*
X150537142Y-93238242D02*
G01*
X150685101Y-93299529D01*
X150818255Y-93388499D01*
X150931501Y-93501745D01*
X151020471Y-93634899D01*
X151081758Y-93782858D01*
X151113000Y-93939925D01*
X151113000Y-94100075D01*
X151081758Y-94257142D01*
X151020471Y-94405101D01*
X150931501Y-94538255D01*
X150818255Y-94651501D01*
X150685101Y-94740471D01*
X150537142Y-94801758D01*
X150380075Y-94833000D01*
X150219925Y-94833000D01*
X150062858Y-94801758D01*
X149914899Y-94740471D01*
X149781745Y-94651501D01*
X149668499Y-94538255D01*
X149579529Y-94405101D01*
X149518242Y-94257142D01*
X149487000Y-94100075D01*
X149487000Y-93939925D01*
X149518242Y-93782858D01*
X149579529Y-93634899D01*
X149668499Y-93501745D01*
X149781745Y-93388499D01*
X149914899Y-93299529D01*
X150062858Y-93238242D01*
X150219925Y-93207000D01*
X150380075Y-93207000D01*
X150537142Y-93238242D01*
G37*
G36*
X175937142Y-93238242D02*
G01*
X176085101Y-93299529D01*
X176218255Y-93388499D01*
X176331501Y-93501745D01*
X176420471Y-93634899D01*
X176481758Y-93782858D01*
X176513000Y-93939925D01*
X176513000Y-94100075D01*
X176481758Y-94257142D01*
X176420471Y-94405101D01*
X176331501Y-94538255D01*
X176218255Y-94651501D01*
X176085101Y-94740471D01*
X175937142Y-94801758D01*
X175780075Y-94833000D01*
X175619925Y-94833000D01*
X175462858Y-94801758D01*
X175314899Y-94740471D01*
X175181745Y-94651501D01*
X175068499Y-94538255D01*
X174979529Y-94405101D01*
X174918242Y-94257142D01*
X174887000Y-94100075D01*
X174887000Y-93939925D01*
X174918242Y-93782858D01*
X174979529Y-93634899D01*
X175068499Y-93501745D01*
X175181745Y-93388499D01*
X175314899Y-93299529D01*
X175462858Y-93238242D01*
X175619925Y-93207000D01*
X175780075Y-93207000D01*
X175937142Y-93238242D01*
G37*
G36*
X175937142Y-90698242D02*
G01*
X176085101Y-90759529D01*
X176218255Y-90848499D01*
X176331501Y-90961745D01*
X176420471Y-91094899D01*
X176481758Y-91242858D01*
X176513000Y-91399925D01*
X176513000Y-91560075D01*
X176481758Y-91717142D01*
X176420471Y-91865101D01*
X176331501Y-91998255D01*
X176218255Y-92111501D01*
X176085101Y-92200471D01*
X175937142Y-92261758D01*
X175780075Y-92293000D01*
X175619925Y-92293000D01*
X175462858Y-92261758D01*
X175314899Y-92200471D01*
X175181745Y-92111501D01*
X175068499Y-91998255D01*
X174979529Y-91865101D01*
X174918242Y-91717142D01*
X174887000Y-91560075D01*
X174887000Y-91399925D01*
X174918242Y-91242858D01*
X174979529Y-91094899D01*
X175068499Y-90961745D01*
X175181745Y-90848499D01*
X175314899Y-90759529D01*
X175462858Y-90698242D01*
X175619925Y-90667000D01*
X175780075Y-90667000D01*
X175937142Y-90698242D01*
G37*
G36*
X150537142Y-90698242D02*
G01*
X150685101Y-90759529D01*
X150818255Y-90848499D01*
X150931501Y-90961745D01*
X151020471Y-91094899D01*
X151081758Y-91242858D01*
X151113000Y-91399925D01*
X151113000Y-91560075D01*
X151081758Y-91717142D01*
X151020471Y-91865101D01*
X150931501Y-91998255D01*
X150818255Y-92111501D01*
X150685101Y-92200471D01*
X150537142Y-92261758D01*
X150380075Y-92293000D01*
X150219925Y-92293000D01*
X150062858Y-92261758D01*
X149914899Y-92200471D01*
X149781745Y-92111501D01*
X149668499Y-91998255D01*
X149579529Y-91865101D01*
X149518242Y-91717142D01*
X149487000Y-91560075D01*
X149487000Y-91399925D01*
X149518242Y-91242858D01*
X149579529Y-91094899D01*
X149668499Y-90961745D01*
X149781745Y-90848499D01*
X149914899Y-90759529D01*
X150062858Y-90698242D01*
X150219925Y-90667000D01*
X150380075Y-90667000D01*
X150537142Y-90698242D01*
G37*
G36*
X114902585Y-87798802D02*
G01*
X115052410Y-87828604D01*
X115334674Y-87945521D01*
X115588705Y-88115259D01*
X115804741Y-88331295D01*
X115974479Y-88585326D01*
X116091396Y-88867590D01*
X116151000Y-89167240D01*
X116151000Y-89472760D01*
X116091396Y-89772410D01*
X115974479Y-90054674D01*
X115804741Y-90308705D01*
X115588705Y-90524741D01*
X115334674Y-90694479D01*
X115052410Y-90811396D01*
X114902585Y-90841198D01*
X114752761Y-90871000D01*
X114447239Y-90871000D01*
X114297415Y-90841198D01*
X114147590Y-90811396D01*
X113865326Y-90694479D01*
X113611295Y-90524741D01*
X113395259Y-90308705D01*
X113225521Y-90054674D01*
X113108604Y-89772410D01*
X113049000Y-89472760D01*
X113049000Y-89167240D01*
X113108604Y-88867590D01*
X113225521Y-88585326D01*
X113395259Y-88331295D01*
X113611295Y-88115259D01*
X113865326Y-87945521D01*
X114147590Y-87828604D01*
X114297415Y-87798802D01*
X114447239Y-87769000D01*
X114752761Y-87769000D01*
X114902585Y-87798802D01*
G37*
G36*
X150537142Y-88158242D02*
G01*
X150685101Y-88219529D01*
X150818255Y-88308499D01*
X150931501Y-88421745D01*
X151020471Y-88554899D01*
X151081758Y-88702858D01*
X151113000Y-88859925D01*
X151113000Y-89020075D01*
X151081758Y-89177142D01*
X151020471Y-89325101D01*
X150931501Y-89458255D01*
X150818255Y-89571501D01*
X150685101Y-89660471D01*
X150537142Y-89721758D01*
X150380075Y-89753000D01*
X150219925Y-89753000D01*
X150062858Y-89721758D01*
X149914899Y-89660471D01*
X149781745Y-89571501D01*
X149668499Y-89458255D01*
X149579529Y-89325101D01*
X149518242Y-89177142D01*
X149487000Y-89020075D01*
X149487000Y-88859925D01*
X149518242Y-88702858D01*
X149579529Y-88554899D01*
X149668499Y-88421745D01*
X149781745Y-88308499D01*
X149914899Y-88219529D01*
X150062858Y-88158242D01*
X150219925Y-88127000D01*
X150380075Y-88127000D01*
X150537142Y-88158242D01*
G37*
G36*
X175937142Y-88158242D02*
G01*
X176085101Y-88219529D01*
X176218255Y-88308499D01*
X176331501Y-88421745D01*
X176420471Y-88554899D01*
X176481758Y-88702858D01*
X176513000Y-88859925D01*
X176513000Y-89020075D01*
X176481758Y-89177142D01*
X176420471Y-89325101D01*
X176331501Y-89458255D01*
X176218255Y-89571501D01*
X176085101Y-89660471D01*
X175937142Y-89721758D01*
X175780075Y-89753000D01*
X175619925Y-89753000D01*
X175462858Y-89721758D01*
X175314899Y-89660471D01*
X175181745Y-89571501D01*
X175068499Y-89458255D01*
X174979529Y-89325101D01*
X174918242Y-89177142D01*
X174887000Y-89020075D01*
X174887000Y-88859925D01*
X174918242Y-88702858D01*
X174979529Y-88554899D01*
X175068499Y-88421745D01*
X175181745Y-88308499D01*
X175314899Y-88219529D01*
X175462858Y-88158242D01*
X175619925Y-88127000D01*
X175780075Y-88127000D01*
X175937142Y-88158242D01*
G37*
G36*
X175937142Y-85618242D02*
G01*
X176085101Y-85679529D01*
X176218255Y-85768499D01*
X176331501Y-85881745D01*
X176420471Y-86014899D01*
X176481758Y-86162858D01*
X176513000Y-86319925D01*
X176513000Y-86480075D01*
X176481758Y-86637142D01*
X176420471Y-86785101D01*
X176331501Y-86918255D01*
X176218255Y-87031501D01*
X176085101Y-87120471D01*
X175937142Y-87181758D01*
X175780075Y-87213000D01*
X175619925Y-87213000D01*
X175462858Y-87181758D01*
X175314899Y-87120471D01*
X175181745Y-87031501D01*
X175068499Y-86918255D01*
X174979529Y-86785101D01*
X174918242Y-86637142D01*
X174887000Y-86480075D01*
X174887000Y-86319925D01*
X174918242Y-86162858D01*
X174979529Y-86014899D01*
X175068499Y-85881745D01*
X175181745Y-85768499D01*
X175314899Y-85679529D01*
X175462858Y-85618242D01*
X175619925Y-85587000D01*
X175780075Y-85587000D01*
X175937142Y-85618242D01*
G37*
G36*
X150537142Y-85618242D02*
G01*
X150685101Y-85679529D01*
X150818255Y-85768499D01*
X150931501Y-85881745D01*
X151020471Y-86014899D01*
X151081758Y-86162858D01*
X151113000Y-86319925D01*
X151113000Y-86480075D01*
X151081758Y-86637142D01*
X151020471Y-86785101D01*
X150931501Y-86918255D01*
X150818255Y-87031501D01*
X150685101Y-87120471D01*
X150537142Y-87181758D01*
X150380075Y-87213000D01*
X150219925Y-87213000D01*
X150062858Y-87181758D01*
X149914899Y-87120471D01*
X149781745Y-87031501D01*
X149668499Y-86918255D01*
X149579529Y-86785101D01*
X149518242Y-86637142D01*
X149487000Y-86480075D01*
X149487000Y-86319925D01*
X149518242Y-86162858D01*
X149579529Y-86014899D01*
X149668499Y-85881745D01*
X149781745Y-85768499D01*
X149914899Y-85679529D01*
X150062858Y-85618242D01*
X150219925Y-85587000D01*
X150380075Y-85587000D01*
X150537142Y-85618242D01*
G37*
G36*
X129903228Y-85351703D02*
G01*
X130058100Y-85415853D01*
X130197481Y-85508985D01*
X130316015Y-85627519D01*
X130409147Y-85766900D01*
X130473297Y-85921772D01*
X130506000Y-86086184D01*
X130506000Y-86253816D01*
X130473297Y-86418228D01*
X130409147Y-86573100D01*
X130316015Y-86712481D01*
X130197481Y-86831015D01*
X130058100Y-86924147D01*
X129903228Y-86988297D01*
X129738816Y-87021000D01*
X129571184Y-87021000D01*
X129406772Y-86988297D01*
X129251900Y-86924147D01*
X129112519Y-86831015D01*
X128993985Y-86712481D01*
X128900853Y-86573100D01*
X128836703Y-86418228D01*
X128804000Y-86253816D01*
X128804000Y-86086184D01*
X128836703Y-85921772D01*
X128900853Y-85766900D01*
X128993985Y-85627519D01*
X129112519Y-85508985D01*
X129251900Y-85415853D01*
X129406772Y-85351703D01*
X129571184Y-85319000D01*
X129738816Y-85319000D01*
X129903228Y-85351703D01*
G37*
G36*
X137523228Y-85351703D02*
G01*
X137678100Y-85415853D01*
X137817481Y-85508985D01*
X137936015Y-85627519D01*
X138029147Y-85766900D01*
X138093297Y-85921772D01*
X138126000Y-86086184D01*
X138126000Y-86253816D01*
X138093297Y-86418228D01*
X138029147Y-86573100D01*
X137936015Y-86712481D01*
X137817481Y-86831015D01*
X137678100Y-86924147D01*
X137523228Y-86988297D01*
X137358816Y-87021000D01*
X137191184Y-87021000D01*
X137026772Y-86988297D01*
X136871900Y-86924147D01*
X136732519Y-86831015D01*
X136613985Y-86712481D01*
X136520853Y-86573100D01*
X136456703Y-86418228D01*
X136424000Y-86253816D01*
X136424000Y-86086184D01*
X136456703Y-85921772D01*
X136520853Y-85766900D01*
X136613985Y-85627519D01*
X136732519Y-85508985D01*
X136871900Y-85415853D01*
X137026772Y-85351703D01*
X137191184Y-85319000D01*
X137358816Y-85319000D01*
X137523228Y-85351703D01*
G37*
G36*
X114902585Y-82718802D02*
G01*
X115052410Y-82748604D01*
X115334674Y-82865521D01*
X115588705Y-83035259D01*
X115804741Y-83251295D01*
X115974479Y-83505326D01*
X116088221Y-83779925D01*
X116091396Y-83787591D01*
X116151000Y-84087239D01*
X116151000Y-84392761D01*
X116139953Y-84448297D01*
X116091396Y-84692410D01*
X115974479Y-84974674D01*
X115804741Y-85228705D01*
X115588705Y-85444741D01*
X115334674Y-85614479D01*
X115052410Y-85731396D01*
X114902585Y-85761198D01*
X114752761Y-85791000D01*
X114447239Y-85791000D01*
X114297415Y-85761198D01*
X114147590Y-85731396D01*
X113865326Y-85614479D01*
X113611295Y-85444741D01*
X113395259Y-85228705D01*
X113225521Y-84974674D01*
X113108604Y-84692410D01*
X113060047Y-84448297D01*
X113049000Y-84392761D01*
X113049000Y-84087239D01*
X113108604Y-83787591D01*
X113111779Y-83779925D01*
X113225521Y-83505326D01*
X113395259Y-83251295D01*
X113611295Y-83035259D01*
X113865326Y-82865521D01*
X114147590Y-82748604D01*
X114297415Y-82718802D01*
X114447239Y-82689000D01*
X114752761Y-82689000D01*
X114902585Y-82718802D01*
G37*
G36*
X150537142Y-83078242D02*
G01*
X150685101Y-83139529D01*
X150818255Y-83228499D01*
X150931501Y-83341745D01*
X151020471Y-83474899D01*
X151081758Y-83622858D01*
X151113000Y-83779925D01*
X151113000Y-83940075D01*
X151081758Y-84097142D01*
X151020471Y-84245101D01*
X150931501Y-84378255D01*
X150818255Y-84491501D01*
X150685101Y-84580471D01*
X150537142Y-84641758D01*
X150380075Y-84673000D01*
X150219925Y-84673000D01*
X150062858Y-84641758D01*
X149914899Y-84580471D01*
X149781745Y-84491501D01*
X149668499Y-84378255D01*
X149579529Y-84245101D01*
X149518242Y-84097142D01*
X149487000Y-83940075D01*
X149487000Y-83779925D01*
X149518242Y-83622858D01*
X149579529Y-83474899D01*
X149668499Y-83341745D01*
X149781745Y-83228499D01*
X149914899Y-83139529D01*
X150062858Y-83078242D01*
X150219925Y-83047000D01*
X150380075Y-83047000D01*
X150537142Y-83078242D01*
G37*
G36*
X175937142Y-83078242D02*
G01*
X176085101Y-83139529D01*
X176218255Y-83228499D01*
X176331501Y-83341745D01*
X176420471Y-83474899D01*
X176481758Y-83622858D01*
X176513000Y-83779925D01*
X176513000Y-83940075D01*
X176481758Y-84097142D01*
X176420471Y-84245101D01*
X176331501Y-84378255D01*
X176218255Y-84491501D01*
X176085101Y-84580471D01*
X175937142Y-84641758D01*
X175780075Y-84673000D01*
X175619925Y-84673000D01*
X175462858Y-84641758D01*
X175314899Y-84580471D01*
X175181745Y-84491501D01*
X175068499Y-84378255D01*
X174979529Y-84245101D01*
X174918242Y-84097142D01*
X174887000Y-83940075D01*
X174887000Y-83779925D01*
X174918242Y-83622858D01*
X174979529Y-83474899D01*
X175068499Y-83341745D01*
X175181745Y-83228499D01*
X175314899Y-83139529D01*
X175462858Y-83078242D01*
X175619925Y-83047000D01*
X175780075Y-83047000D01*
X175937142Y-83078242D01*
G37*
G36*
X130506000Y-84481000D02*
G01*
X128804000Y-84481000D01*
X128804000Y-82779000D01*
X130506000Y-82779000D01*
X130506000Y-84481000D01*
G37*
G36*
X137523228Y-82811703D02*
G01*
X137678100Y-82875853D01*
X137817481Y-82968985D01*
X137936015Y-83087519D01*
X138029147Y-83226900D01*
X138093297Y-83381772D01*
X138126000Y-83546184D01*
X138126000Y-83713816D01*
X138093297Y-83878228D01*
X138029147Y-84033100D01*
X137936015Y-84172481D01*
X137817481Y-84291015D01*
X137678100Y-84384147D01*
X137523228Y-84448297D01*
X137358816Y-84481000D01*
X137191184Y-84481000D01*
X137026772Y-84448297D01*
X136871900Y-84384147D01*
X136732519Y-84291015D01*
X136613985Y-84172481D01*
X136520853Y-84033100D01*
X136456703Y-83878228D01*
X136424000Y-83713816D01*
X136424000Y-83546184D01*
X136456703Y-83381772D01*
X136520853Y-83226900D01*
X136613985Y-83087519D01*
X136732519Y-82968985D01*
X136871900Y-82875853D01*
X137026772Y-82811703D01*
X137191184Y-82779000D01*
X137358816Y-82779000D01*
X137523228Y-82811703D01*
G37*
G36*
X175937142Y-80538242D02*
G01*
X176085101Y-80599529D01*
X176218255Y-80688499D01*
X176331501Y-80801745D01*
X176420471Y-80934899D01*
X176481758Y-81082858D01*
X176513000Y-81239925D01*
X176513000Y-81400075D01*
X176481758Y-81557142D01*
X176420471Y-81705101D01*
X176331501Y-81838255D01*
X176218255Y-81951501D01*
X176085101Y-82040471D01*
X175937142Y-82101758D01*
X175780075Y-82133000D01*
X175619925Y-82133000D01*
X175462858Y-82101758D01*
X175314899Y-82040471D01*
X175181745Y-81951501D01*
X175068499Y-81838255D01*
X174979529Y-81705101D01*
X174918242Y-81557142D01*
X174887000Y-81400075D01*
X174887000Y-81239925D01*
X174918242Y-81082858D01*
X174979529Y-80934899D01*
X175068499Y-80801745D01*
X175181745Y-80688499D01*
X175314899Y-80599529D01*
X175462858Y-80538242D01*
X175619925Y-80507000D01*
X175780075Y-80507000D01*
X175937142Y-80538242D01*
G37*
G36*
X150537142Y-80538242D02*
G01*
X150685101Y-80599529D01*
X150818255Y-80688499D01*
X150931501Y-80801745D01*
X151020471Y-80934899D01*
X151081758Y-81082858D01*
X151113000Y-81239925D01*
X151113000Y-81400075D01*
X151081758Y-81557142D01*
X151020471Y-81705101D01*
X150931501Y-81838255D01*
X150818255Y-81951501D01*
X150685101Y-82040471D01*
X150537142Y-82101758D01*
X150380075Y-82133000D01*
X150219925Y-82133000D01*
X150062858Y-82101758D01*
X149914899Y-82040471D01*
X149781745Y-81951501D01*
X149668499Y-81838255D01*
X149579529Y-81705101D01*
X149518242Y-81557142D01*
X149487000Y-81400075D01*
X149487000Y-81239925D01*
X149518242Y-81082858D01*
X149579529Y-80934899D01*
X149668499Y-80801745D01*
X149781745Y-80688499D01*
X149914899Y-80599529D01*
X150062858Y-80538242D01*
X150219925Y-80507000D01*
X150380075Y-80507000D01*
X150537142Y-80538242D01*
G37*
G36*
X116151000Y-79851000D02*
G01*
X113049000Y-79851000D01*
X113049000Y-76749000D01*
X116151000Y-76749000D01*
X116151000Y-79851000D01*
G37*
G36*
X175937142Y-77998242D02*
G01*
X176085101Y-78059529D01*
X176218255Y-78148499D01*
X176331501Y-78261745D01*
X176420471Y-78394899D01*
X176481758Y-78542858D01*
X176513000Y-78699925D01*
X176513000Y-78860075D01*
X176481758Y-79017142D01*
X176420471Y-79165101D01*
X176331501Y-79298255D01*
X176218255Y-79411501D01*
X176085101Y-79500471D01*
X175937142Y-79561758D01*
X175780075Y-79593000D01*
X175619925Y-79593000D01*
X175462858Y-79561758D01*
X175314899Y-79500471D01*
X175181745Y-79411501D01*
X175068499Y-79298255D01*
X174979529Y-79165101D01*
X174918242Y-79017142D01*
X174887000Y-78860075D01*
X174887000Y-78699925D01*
X174918242Y-78542858D01*
X174979529Y-78394899D01*
X175068499Y-78261745D01*
X175181745Y-78148499D01*
X175314899Y-78059529D01*
X175462858Y-77998242D01*
X175619925Y-77967000D01*
X175780075Y-77967000D01*
X175937142Y-77998242D01*
G37*
G36*
X150537142Y-77998242D02*
G01*
X150685101Y-78059529D01*
X150818255Y-78148499D01*
X150931501Y-78261745D01*
X151020471Y-78394899D01*
X151081758Y-78542858D01*
X151113000Y-78699925D01*
X151113000Y-78860075D01*
X151081758Y-79017142D01*
X151020471Y-79165101D01*
X150931501Y-79298255D01*
X150818255Y-79411501D01*
X150685101Y-79500471D01*
X150537142Y-79561758D01*
X150380075Y-79593000D01*
X150219925Y-79593000D01*
X150062858Y-79561758D01*
X149914899Y-79500471D01*
X149781745Y-79411501D01*
X149668499Y-79298255D01*
X149579529Y-79165101D01*
X149518242Y-79017142D01*
X149487000Y-78860075D01*
X149487000Y-78699925D01*
X149518242Y-78542858D01*
X149579529Y-78394899D01*
X149668499Y-78261745D01*
X149781745Y-78148499D01*
X149914899Y-78059529D01*
X150062858Y-77998242D01*
X150219925Y-77967000D01*
X150380075Y-77967000D01*
X150537142Y-77998242D01*
G37*
G36*
X175937142Y-75458242D02*
G01*
X176085101Y-75519529D01*
X176218255Y-75608499D01*
X176331501Y-75721745D01*
X176420471Y-75854899D01*
X176481758Y-76002858D01*
X176513000Y-76159925D01*
X176513000Y-76320075D01*
X176481758Y-76477142D01*
X176420471Y-76625101D01*
X176331501Y-76758255D01*
X176218255Y-76871501D01*
X176085101Y-76960471D01*
X175937142Y-77021758D01*
X175780075Y-77053000D01*
X175619925Y-77053000D01*
X175462858Y-77021758D01*
X175314899Y-76960471D01*
X175181745Y-76871501D01*
X175068499Y-76758255D01*
X174979529Y-76625101D01*
X174918242Y-76477142D01*
X174887000Y-76320075D01*
X174887000Y-76159925D01*
X174918242Y-76002858D01*
X174979529Y-75854899D01*
X175068499Y-75721745D01*
X175181745Y-75608499D01*
X175314899Y-75519529D01*
X175462858Y-75458242D01*
X175619925Y-75427000D01*
X175780075Y-75427000D01*
X175937142Y-75458242D01*
G37*
G36*
X150537142Y-75458242D02*
G01*
X150685101Y-75519529D01*
X150818255Y-75608499D01*
X150931501Y-75721745D01*
X151020471Y-75854899D01*
X151081758Y-76002858D01*
X151113000Y-76159925D01*
X151113000Y-76320075D01*
X151081758Y-76477142D01*
X151020471Y-76625101D01*
X150931501Y-76758255D01*
X150818255Y-76871501D01*
X150685101Y-76960471D01*
X150537142Y-77021758D01*
X150380075Y-77053000D01*
X150219925Y-77053000D01*
X150062858Y-77021758D01*
X149914899Y-76960471D01*
X149781745Y-76871501D01*
X149668499Y-76758255D01*
X149579529Y-76625101D01*
X149518242Y-76477142D01*
X149487000Y-76320075D01*
X149487000Y-76159925D01*
X149518242Y-76002858D01*
X149579529Y-75854899D01*
X149668499Y-75721745D01*
X149781745Y-75608499D01*
X149914899Y-75519529D01*
X150062858Y-75458242D01*
X150219925Y-75427000D01*
X150380075Y-75427000D01*
X150537142Y-75458242D01*
G37*
G36*
X137668228Y-74521703D02*
G01*
X137823100Y-74585853D01*
X137962481Y-74678985D01*
X138081015Y-74797519D01*
X138174147Y-74936900D01*
X138238297Y-75091772D01*
X138271000Y-75256184D01*
X138271000Y-75423816D01*
X138238297Y-75588228D01*
X138174147Y-75743100D01*
X138081015Y-75882481D01*
X137962481Y-76001015D01*
X137823100Y-76094147D01*
X137668228Y-76158297D01*
X137503816Y-76191000D01*
X137336184Y-76191000D01*
X137171772Y-76158297D01*
X137016900Y-76094147D01*
X136877519Y-76001015D01*
X136758985Y-75882481D01*
X136665853Y-75743100D01*
X136601703Y-75588228D01*
X136569000Y-75423816D01*
X136569000Y-75256184D01*
X136601703Y-75091772D01*
X136665853Y-74936900D01*
X136758985Y-74797519D01*
X136877519Y-74678985D01*
X137016900Y-74585853D01*
X137171772Y-74521703D01*
X137336184Y-74489000D01*
X137503816Y-74489000D01*
X137668228Y-74521703D01*
G37*
G36*
X130048228Y-74521703D02*
G01*
X130203100Y-74585853D01*
X130342481Y-74678985D01*
X130461015Y-74797519D01*
X130554147Y-74936900D01*
X130618297Y-75091772D01*
X130651000Y-75256184D01*
X130651000Y-75423816D01*
X130618297Y-75588228D01*
X130554147Y-75743100D01*
X130461015Y-75882481D01*
X130342481Y-76001015D01*
X130203100Y-76094147D01*
X130048228Y-76158297D01*
X129883816Y-76191000D01*
X129716184Y-76191000D01*
X129551772Y-76158297D01*
X129396900Y-76094147D01*
X129257519Y-76001015D01*
X129138985Y-75882481D01*
X129045853Y-75743100D01*
X128981703Y-75588228D01*
X128949000Y-75423816D01*
X128949000Y-75256184D01*
X128981703Y-75091772D01*
X129045853Y-74936900D01*
X129138985Y-74797519D01*
X129257519Y-74678985D01*
X129396900Y-74585853D01*
X129551772Y-74521703D01*
X129716184Y-74489000D01*
X129883816Y-74489000D01*
X130048228Y-74521703D01*
G37*
G36*
X114902585Y-71698802D02*
G01*
X115052410Y-71728604D01*
X115334674Y-71845521D01*
X115588705Y-72015259D01*
X115804741Y-72231295D01*
X115974479Y-72485326D01*
X116070103Y-72716184D01*
X116091396Y-72767591D01*
X116151000Y-73067239D01*
X116151000Y-73372761D01*
X116121198Y-73522585D01*
X116091396Y-73672410D01*
X115974479Y-73954674D01*
X115804741Y-74208705D01*
X115588705Y-74424741D01*
X115334674Y-74594479D01*
X115052410Y-74711396D01*
X114902585Y-74741198D01*
X114752761Y-74771000D01*
X114447239Y-74771000D01*
X114297415Y-74741198D01*
X114147590Y-74711396D01*
X113865326Y-74594479D01*
X113611295Y-74424741D01*
X113395259Y-74208705D01*
X113225521Y-73954674D01*
X113108604Y-73672410D01*
X113078802Y-73522585D01*
X113049000Y-73372761D01*
X113049000Y-73067239D01*
X113108604Y-72767591D01*
X113129897Y-72716184D01*
X113225521Y-72485326D01*
X113395259Y-72231295D01*
X113611295Y-72015259D01*
X113865326Y-71845521D01*
X114147590Y-71728604D01*
X114297415Y-71698802D01*
X114447239Y-71669000D01*
X114752761Y-71669000D01*
X114902585Y-71698802D01*
G37*
G36*
X175937142Y-72918242D02*
G01*
X176085101Y-72979529D01*
X176218255Y-73068499D01*
X176331501Y-73181745D01*
X176420471Y-73314899D01*
X176481758Y-73462858D01*
X176513000Y-73619925D01*
X176513000Y-73780075D01*
X176481758Y-73937142D01*
X176420471Y-74085101D01*
X176331501Y-74218255D01*
X176218255Y-74331501D01*
X176085101Y-74420471D01*
X175937142Y-74481758D01*
X175780075Y-74513000D01*
X175619925Y-74513000D01*
X175462858Y-74481758D01*
X175314899Y-74420471D01*
X175181745Y-74331501D01*
X175068499Y-74218255D01*
X174979529Y-74085101D01*
X174918242Y-73937142D01*
X174887000Y-73780075D01*
X174887000Y-73619925D01*
X174918242Y-73462858D01*
X174979529Y-73314899D01*
X175068499Y-73181745D01*
X175181745Y-73068499D01*
X175314899Y-72979529D01*
X175462858Y-72918242D01*
X175619925Y-72887000D01*
X175780075Y-72887000D01*
X175937142Y-72918242D01*
G37*
G36*
X150537142Y-72918242D02*
G01*
X150685101Y-72979529D01*
X150818255Y-73068499D01*
X150931501Y-73181745D01*
X151020471Y-73314899D01*
X151081758Y-73462858D01*
X151113000Y-73619925D01*
X151113000Y-73780075D01*
X151081758Y-73937142D01*
X151020471Y-74085101D01*
X150931501Y-74218255D01*
X150818255Y-74331501D01*
X150685101Y-74420471D01*
X150537142Y-74481758D01*
X150380075Y-74513000D01*
X150219925Y-74513000D01*
X150062858Y-74481758D01*
X149914899Y-74420471D01*
X149781745Y-74331501D01*
X149668499Y-74218255D01*
X149579529Y-74085101D01*
X149518242Y-73937142D01*
X149487000Y-73780075D01*
X149487000Y-73619925D01*
X149518242Y-73462858D01*
X149579529Y-73314899D01*
X149668499Y-73181745D01*
X149781745Y-73068499D01*
X149914899Y-72979529D01*
X150062858Y-72918242D01*
X150219925Y-72887000D01*
X150380075Y-72887000D01*
X150537142Y-72918242D01*
G37*
G36*
X137668228Y-71981703D02*
G01*
X137823100Y-72045853D01*
X137962481Y-72138985D01*
X138081015Y-72257519D01*
X138174147Y-72396900D01*
X138238297Y-72551772D01*
X138271000Y-72716184D01*
X138271000Y-72883816D01*
X138238297Y-73048228D01*
X138174147Y-73203100D01*
X138081015Y-73342481D01*
X137962481Y-73461015D01*
X137823100Y-73554147D01*
X137668228Y-73618297D01*
X137503816Y-73651000D01*
X137336184Y-73651000D01*
X137171772Y-73618297D01*
X137016900Y-73554147D01*
X136877519Y-73461015D01*
X136758985Y-73342481D01*
X136665853Y-73203100D01*
X136601703Y-73048228D01*
X136569000Y-72883816D01*
X136569000Y-72716184D01*
X136601703Y-72551772D01*
X136665853Y-72396900D01*
X136758985Y-72257519D01*
X136877519Y-72138985D01*
X137016900Y-72045853D01*
X137171772Y-71981703D01*
X137336184Y-71949000D01*
X137503816Y-71949000D01*
X137668228Y-71981703D01*
G37*
G36*
X130651000Y-73651000D02*
G01*
X128949000Y-73651000D01*
X128949000Y-71949000D01*
X130651000Y-71949000D01*
X130651000Y-73651000D01*
G37*
G36*
X175937142Y-70378242D02*
G01*
X176085101Y-70439529D01*
X176218255Y-70528499D01*
X176331501Y-70641745D01*
X176420471Y-70774899D01*
X176481758Y-70922858D01*
X176513000Y-71079925D01*
X176513000Y-71240075D01*
X176481758Y-71397142D01*
X176420471Y-71545101D01*
X176331501Y-71678255D01*
X176218255Y-71791501D01*
X176085101Y-71880471D01*
X175937142Y-71941758D01*
X175780075Y-71973000D01*
X175619925Y-71973000D01*
X175462858Y-71941758D01*
X175314899Y-71880471D01*
X175181745Y-71791501D01*
X175068499Y-71678255D01*
X174979529Y-71545101D01*
X174918242Y-71397142D01*
X174887000Y-71240075D01*
X174887000Y-71079925D01*
X174918242Y-70922858D01*
X174979529Y-70774899D01*
X175068499Y-70641745D01*
X175181745Y-70528499D01*
X175314899Y-70439529D01*
X175462858Y-70378242D01*
X175619925Y-70347000D01*
X175780075Y-70347000D01*
X175937142Y-70378242D01*
G37*
G36*
X150537142Y-70378242D02*
G01*
X150685101Y-70439529D01*
X150818255Y-70528499D01*
X150931501Y-70641745D01*
X151020471Y-70774899D01*
X151081758Y-70922858D01*
X151113000Y-71079925D01*
X151113000Y-71240075D01*
X151081758Y-71397142D01*
X151020471Y-71545101D01*
X150931501Y-71678255D01*
X150818255Y-71791501D01*
X150685101Y-71880471D01*
X150537142Y-71941758D01*
X150380075Y-71973000D01*
X150219925Y-71973000D01*
X150062858Y-71941758D01*
X149914899Y-71880471D01*
X149781745Y-71791501D01*
X149668499Y-71678255D01*
X149579529Y-71545101D01*
X149518242Y-71397142D01*
X149487000Y-71240075D01*
X149487000Y-71079925D01*
X149518242Y-70922858D01*
X149579529Y-70774899D01*
X149668499Y-70641745D01*
X149781745Y-70528499D01*
X149914899Y-70439529D01*
X150062858Y-70378242D01*
X150219925Y-70347000D01*
X150380075Y-70347000D01*
X150537142Y-70378242D01*
G37*
G36*
X114902585Y-66618802D02*
G01*
X115052410Y-66648604D01*
X115334674Y-66765521D01*
X115588705Y-66935259D01*
X115804741Y-67151295D01*
X115974479Y-67405326D01*
X116091396Y-67687590D01*
X116091396Y-67687591D01*
X116151000Y-67987239D01*
X116151000Y-68292761D01*
X116121198Y-68442585D01*
X116091396Y-68592410D01*
X115974479Y-68874674D01*
X115804741Y-69128705D01*
X115588705Y-69344741D01*
X115334674Y-69514479D01*
X115052410Y-69631396D01*
X114902585Y-69661198D01*
X114752761Y-69691000D01*
X114447239Y-69691000D01*
X114297415Y-69661198D01*
X114147590Y-69631396D01*
X113865326Y-69514479D01*
X113611295Y-69344741D01*
X113395259Y-69128705D01*
X113225521Y-68874674D01*
X113108604Y-68592410D01*
X113078802Y-68442585D01*
X113049000Y-68292761D01*
X113049000Y-67987239D01*
X113108604Y-67687591D01*
X113108604Y-67687590D01*
X113225521Y-67405326D01*
X113395259Y-67151295D01*
X113611295Y-66935259D01*
X113865326Y-66765521D01*
X114147590Y-66648604D01*
X114297415Y-66618802D01*
X114447239Y-66589000D01*
X114752761Y-66589000D01*
X114902585Y-66618802D01*
G37*
G36*
X150537142Y-67838242D02*
G01*
X150685101Y-67899529D01*
X150818255Y-67988499D01*
X150931501Y-68101745D01*
X151020471Y-68234899D01*
X151081758Y-68382858D01*
X151113000Y-68539925D01*
X151113000Y-68700075D01*
X151081758Y-68857142D01*
X151020471Y-69005101D01*
X150931501Y-69138255D01*
X150818255Y-69251501D01*
X150685101Y-69340471D01*
X150537142Y-69401758D01*
X150380075Y-69433000D01*
X150219925Y-69433000D01*
X150062858Y-69401758D01*
X149914899Y-69340471D01*
X149781745Y-69251501D01*
X149668499Y-69138255D01*
X149579529Y-69005101D01*
X149518242Y-68857142D01*
X149487000Y-68700075D01*
X149487000Y-68539925D01*
X149518242Y-68382858D01*
X149579529Y-68234899D01*
X149668499Y-68101745D01*
X149781745Y-67988499D01*
X149914899Y-67899529D01*
X150062858Y-67838242D01*
X150219925Y-67807000D01*
X150380075Y-67807000D01*
X150537142Y-67838242D01*
G37*
G36*
X175937142Y-67838242D02*
G01*
X176085101Y-67899529D01*
X176218255Y-67988499D01*
X176331501Y-68101745D01*
X176420471Y-68234899D01*
X176481758Y-68382858D01*
X176513000Y-68539925D01*
X176513000Y-68700075D01*
X176481758Y-68857142D01*
X176420471Y-69005101D01*
X176331501Y-69138255D01*
X176218255Y-69251501D01*
X176085101Y-69340471D01*
X175937142Y-69401758D01*
X175780075Y-69433000D01*
X175619925Y-69433000D01*
X175462858Y-69401758D01*
X175314899Y-69340471D01*
X175181745Y-69251501D01*
X175068499Y-69138255D01*
X174979529Y-69005101D01*
X174918242Y-68857142D01*
X174887000Y-68700075D01*
X174887000Y-68539925D01*
X174918242Y-68382858D01*
X174979529Y-68234899D01*
X175068499Y-68101745D01*
X175181745Y-67988499D01*
X175314899Y-67899529D01*
X175462858Y-67838242D01*
X175619925Y-67807000D01*
X175780075Y-67807000D01*
X175937142Y-67838242D01*
G37*
G36*
X175937142Y-65298242D02*
G01*
X176085101Y-65359529D01*
X176218255Y-65448499D01*
X176331501Y-65561745D01*
X176420471Y-65694899D01*
X176481758Y-65842858D01*
X176513000Y-65999925D01*
X176513000Y-66160075D01*
X176481758Y-66317142D01*
X176420471Y-66465101D01*
X176331501Y-66598255D01*
X176218255Y-66711501D01*
X176085101Y-66800471D01*
X175937142Y-66861758D01*
X175780075Y-66893000D01*
X175619925Y-66893000D01*
X175462858Y-66861758D01*
X175314899Y-66800471D01*
X175181745Y-66711501D01*
X175068499Y-66598255D01*
X174979529Y-66465101D01*
X174918242Y-66317142D01*
X174887000Y-66160075D01*
X174887000Y-65999925D01*
X174918242Y-65842858D01*
X174979529Y-65694899D01*
X175068499Y-65561745D01*
X175181745Y-65448499D01*
X175314899Y-65359529D01*
X175462858Y-65298242D01*
X175619925Y-65267000D01*
X175780075Y-65267000D01*
X175937142Y-65298242D01*
G37*
G36*
X150537142Y-65298242D02*
G01*
X150685101Y-65359529D01*
X150818255Y-65448499D01*
X150931501Y-65561745D01*
X151020471Y-65694899D01*
X151081758Y-65842858D01*
X151113000Y-65999925D01*
X151113000Y-66160075D01*
X151081758Y-66317142D01*
X151020471Y-66465101D01*
X150931501Y-66598255D01*
X150818255Y-66711501D01*
X150685101Y-66800471D01*
X150537142Y-66861758D01*
X150380075Y-66893000D01*
X150219925Y-66893000D01*
X150062858Y-66861758D01*
X149914899Y-66800471D01*
X149781745Y-66711501D01*
X149668499Y-66598255D01*
X149579529Y-66465101D01*
X149518242Y-66317142D01*
X149487000Y-66160075D01*
X149487000Y-65999925D01*
X149518242Y-65842858D01*
X149579529Y-65694899D01*
X149668499Y-65561745D01*
X149781745Y-65448499D01*
X149914899Y-65359529D01*
X150062858Y-65298242D01*
X150219925Y-65267000D01*
X150380075Y-65267000D01*
X150537142Y-65298242D01*
G37*
G36*
X175937142Y-62758242D02*
G01*
X176085101Y-62819529D01*
X176218255Y-62908499D01*
X176331501Y-63021745D01*
X176420471Y-63154899D01*
X176481758Y-63302858D01*
X176513000Y-63459925D01*
X176513000Y-63620075D01*
X176481758Y-63777142D01*
X176420471Y-63925101D01*
X176331501Y-64058255D01*
X176218255Y-64171501D01*
X176085101Y-64260471D01*
X175937142Y-64321758D01*
X175780075Y-64353000D01*
X175619925Y-64353000D01*
X175462858Y-64321758D01*
X175314899Y-64260471D01*
X175181745Y-64171501D01*
X175068499Y-64058255D01*
X174979529Y-63925101D01*
X174918242Y-63777142D01*
X174887000Y-63620075D01*
X174887000Y-63459925D01*
X174918242Y-63302858D01*
X174979529Y-63154899D01*
X175068499Y-63021745D01*
X175181745Y-62908499D01*
X175314899Y-62819529D01*
X175462858Y-62758242D01*
X175619925Y-62727000D01*
X175780075Y-62727000D01*
X175937142Y-62758242D01*
G37*
G36*
X150537142Y-62758242D02*
G01*
X150685101Y-62819529D01*
X150818255Y-62908499D01*
X150931501Y-63021745D01*
X151020471Y-63154899D01*
X151081758Y-63302858D01*
X151113000Y-63459925D01*
X151113000Y-63620075D01*
X151081758Y-63777142D01*
X151020471Y-63925101D01*
X150931501Y-64058255D01*
X150818255Y-64171501D01*
X150685101Y-64260471D01*
X150537142Y-64321758D01*
X150380075Y-64353000D01*
X150219925Y-64353000D01*
X150062858Y-64321758D01*
X149914899Y-64260471D01*
X149781745Y-64171501D01*
X149668499Y-64058255D01*
X149579529Y-63925101D01*
X149518242Y-63777142D01*
X149487000Y-63620075D01*
X149487000Y-63459925D01*
X149518242Y-63302858D01*
X149579529Y-63154899D01*
X149668499Y-63021745D01*
X149781745Y-62908499D01*
X149914899Y-62819529D01*
X150062858Y-62758242D01*
X150219925Y-62727000D01*
X150380075Y-62727000D01*
X150537142Y-62758242D01*
G37*
G36*
X137468228Y-61921703D02*
G01*
X137623100Y-61985853D01*
X137762481Y-62078985D01*
X137881015Y-62197519D01*
X137974147Y-62336900D01*
X138038297Y-62491772D01*
X138071000Y-62656184D01*
X138071000Y-62823816D01*
X138038297Y-62988228D01*
X137974147Y-63143100D01*
X137881015Y-63282481D01*
X137762481Y-63401015D01*
X137623100Y-63494147D01*
X137468228Y-63558297D01*
X137303816Y-63591000D01*
X137136184Y-63591000D01*
X136971772Y-63558297D01*
X136816900Y-63494147D01*
X136677519Y-63401015D01*
X136558985Y-63282481D01*
X136465853Y-63143100D01*
X136401703Y-62988228D01*
X136369000Y-62823816D01*
X136369000Y-62656184D01*
X136401703Y-62491772D01*
X136465853Y-62336900D01*
X136558985Y-62197519D01*
X136677519Y-62078985D01*
X136816900Y-61985853D01*
X136971772Y-61921703D01*
X137136184Y-61889000D01*
X137303816Y-61889000D01*
X137468228Y-61921703D01*
G37*
G36*
X129848228Y-61921703D02*
G01*
X130003100Y-61985853D01*
X130142481Y-62078985D01*
X130261015Y-62197519D01*
X130354147Y-62336900D01*
X130418297Y-62491772D01*
X130451000Y-62656184D01*
X130451000Y-62823816D01*
X130418297Y-62988228D01*
X130354147Y-63143100D01*
X130261015Y-63282481D01*
X130142481Y-63401015D01*
X130003100Y-63494147D01*
X129848228Y-63558297D01*
X129683816Y-63591000D01*
X129516184Y-63591000D01*
X129351772Y-63558297D01*
X129196900Y-63494147D01*
X129057519Y-63401015D01*
X128938985Y-63282481D01*
X128845853Y-63143100D01*
X128781703Y-62988228D01*
X128749000Y-62823816D01*
X128749000Y-62656184D01*
X128781703Y-62491772D01*
X128845853Y-62336900D01*
X128938985Y-62197519D01*
X129057519Y-62078985D01*
X129196900Y-61985853D01*
X129351772Y-61921703D01*
X129516184Y-61889000D01*
X129683816Y-61889000D01*
X129848228Y-61921703D01*
G37*
G36*
X175937142Y-60218242D02*
G01*
X176085101Y-60279529D01*
X176218255Y-60368499D01*
X176331501Y-60481745D01*
X176420471Y-60614899D01*
X176481758Y-60762858D01*
X176513000Y-60919925D01*
X176513000Y-61080075D01*
X176481758Y-61237142D01*
X176420471Y-61385101D01*
X176331501Y-61518255D01*
X176218255Y-61631501D01*
X176085101Y-61720471D01*
X175937142Y-61781758D01*
X175780075Y-61813000D01*
X175619925Y-61813000D01*
X175462858Y-61781758D01*
X175314899Y-61720471D01*
X175181745Y-61631501D01*
X175068499Y-61518255D01*
X174979529Y-61385101D01*
X174918242Y-61237142D01*
X174887000Y-61080075D01*
X174887000Y-60919925D01*
X174918242Y-60762858D01*
X174979529Y-60614899D01*
X175068499Y-60481745D01*
X175181745Y-60368499D01*
X175314899Y-60279529D01*
X175462858Y-60218242D01*
X175619925Y-60187000D01*
X175780075Y-60187000D01*
X175937142Y-60218242D01*
G37*
G36*
X151113000Y-61813000D02*
G01*
X149487000Y-61813000D01*
X149487000Y-60187000D01*
X151113000Y-60187000D01*
X151113000Y-61813000D01*
G37*
G36*
X114675256Y-58081298D02*
G01*
X114781579Y-58102447D01*
X115082042Y-58226903D01*
X115352451Y-58407585D01*
X115582415Y-58637549D01*
X115763097Y-58907958D01*
X115858131Y-59137389D01*
X115887553Y-59208422D01*
X115951000Y-59527389D01*
X115951000Y-59852611D01*
X115931275Y-59951772D01*
X115887553Y-60171579D01*
X115763097Y-60472042D01*
X115582415Y-60742451D01*
X115352451Y-60972415D01*
X115082042Y-61153097D01*
X114781579Y-61277553D01*
X114675256Y-61298702D01*
X114462611Y-61341000D01*
X114137389Y-61341000D01*
X113924744Y-61298702D01*
X113818421Y-61277553D01*
X113517958Y-61153097D01*
X113247549Y-60972415D01*
X113017585Y-60742451D01*
X112836903Y-60472042D01*
X112712447Y-60171579D01*
X112668725Y-59951772D01*
X112649000Y-59852611D01*
X112649000Y-59527389D01*
X112712447Y-59208422D01*
X112741870Y-59137389D01*
X112836903Y-58907958D01*
X113017585Y-58637549D01*
X113247549Y-58407585D01*
X113517958Y-58226903D01*
X113818421Y-58102447D01*
X113924744Y-58081298D01*
X114137389Y-58039000D01*
X114462611Y-58039000D01*
X114675256Y-58081298D01*
G37*
G36*
X137468228Y-59381703D02*
G01*
X137623100Y-59445853D01*
X137762481Y-59538985D01*
X137881015Y-59657519D01*
X137974147Y-59796900D01*
X138038297Y-59951772D01*
X138071000Y-60116184D01*
X138071000Y-60283816D01*
X138038297Y-60448228D01*
X137974147Y-60603100D01*
X137881015Y-60742481D01*
X137762481Y-60861015D01*
X137623100Y-60954147D01*
X137468228Y-61018297D01*
X137303816Y-61051000D01*
X137136184Y-61051000D01*
X136971772Y-61018297D01*
X136816900Y-60954147D01*
X136677519Y-60861015D01*
X136558985Y-60742481D01*
X136465853Y-60603100D01*
X136401703Y-60448228D01*
X136369000Y-60283816D01*
X136369000Y-60116184D01*
X136401703Y-59951772D01*
X136465853Y-59796900D01*
X136558985Y-59657519D01*
X136677519Y-59538985D01*
X136816900Y-59445853D01*
X136971772Y-59381703D01*
X137136184Y-59349000D01*
X137303816Y-59349000D01*
X137468228Y-59381703D01*
G37*
G36*
X130451000Y-61051000D02*
G01*
X128749000Y-61051000D01*
X128749000Y-59349000D01*
X130451000Y-59349000D01*
X130451000Y-61051000D01*
G37*
G36*
X204375256Y-57691298D02*
G01*
X204481579Y-57712447D01*
X204782042Y-57836903D01*
X205052451Y-58017585D01*
X205282415Y-58247549D01*
X205282416Y-58247551D01*
X205463098Y-58517960D01*
X205587553Y-58818422D01*
X205651000Y-59137389D01*
X205651000Y-59462611D01*
X205638114Y-59527391D01*
X205587553Y-59781579D01*
X205463097Y-60082042D01*
X205282415Y-60352451D01*
X205052451Y-60582415D01*
X204782042Y-60763097D01*
X204481579Y-60887553D01*
X204375256Y-60908702D01*
X204162611Y-60951000D01*
X203837389Y-60951000D01*
X203624744Y-60908702D01*
X203518421Y-60887553D01*
X203217958Y-60763097D01*
X202947549Y-60582415D01*
X202717585Y-60352451D01*
X202536903Y-60082042D01*
X202412447Y-59781579D01*
X202361886Y-59527391D01*
X202349000Y-59462611D01*
X202349000Y-59137389D01*
X202412447Y-58818422D01*
X202536902Y-58517960D01*
X202717584Y-58247551D01*
X202717585Y-58247549D01*
X202947549Y-58017585D01*
X203217958Y-57836903D01*
X203518421Y-57712447D01*
X203624744Y-57691298D01*
X203837389Y-57649000D01*
X204162611Y-57649000D01*
X204375256Y-57691298D01*
G37*
M02*
