M48
; DRILL file {KiCad (5.1.5)-3} date 03/03/2022 15:34:25
; FORMAT={-:-/ absolute / inch / decimal}
; #@! TF.CreationDate,2022-03-03T15:34:25+01:00
; #@! TF.GenerationSoftware,Kicad,Pcbnew,(5.1.5)-3
; #@! TF.FileFunction,Plated,1,2,PTH
FMAT,2
INCH
T1C0.0157
T2C0.0236
T3C0.0300
T4C0.0315
T5C0.0394
T6C0.0433
T7C0.0472
T8C0.0512
T9C0.0598
T10C0.0630
T11C0.1102
T12C0.1299
%
G90
G05
T1
X5.155Y-4.365
X5.23Y-4.37
X5.28Y-5.34
X5.595Y-4.31
X5.645Y-2.37
X5.645Y-3.29
X5.65Y-2.865
X5.66Y-4.365
X5.675Y-3.635
X6.6Y-4.825
X6.88Y-4.72
X6.88Y-4.84
X6.9449Y-4.2618
X6.98Y-4.78
X7.08Y-4.72
X7.08Y-4.84
X7.13Y-4.34
X7.32Y-4.595
X7.32Y-4.67
X7.32Y-4.745
X7.32Y-4.82
X7.435Y-2.595
X7.435Y-2.85
X7.435Y-3.095
X7.435Y-3.35
X7.435Y-3.6
X7.435Y-3.85
X7.785Y-4.51
X7.97Y-3.9
X7.995Y-4.51
X8.1Y-3.9
T2
X7.7087Y-4.9173
X7.7087Y-5.2165
X8.1024Y-4.9173
X8.1024Y-5.2165
X7.1417Y-4.9803
X7.1417Y-5.0591
X6.9409Y-4.9843
X6.9409Y-5.063
X7.4528Y-4.2402
X7.5315Y-4.2402
X7.4528Y-4.4331
X7.5315Y-4.4331
X7.4528Y-4.0433
X7.5315Y-4.0433
X6.7126Y-4.9843
X6.7126Y-5.063
T3
X5.9173Y-2.4016
X5.9173Y-2.5016
X5.9173Y-2.6016
X5.9173Y-2.7016
X5.9173Y-2.8016
X5.9173Y-2.9016
X5.9173Y-3.0016
X5.9173Y-3.1016
X5.9173Y-3.2016
X5.9173Y-3.3016
X5.9173Y-3.4016
X5.9173Y-3.5016
X5.9173Y-3.6016
X5.9173Y-3.7016
X5.9173Y-3.8016
X6.9173Y-2.4016
X6.9173Y-2.5016
X6.9173Y-2.6016
X6.9173Y-2.7016
X6.9173Y-2.8016
X6.9173Y-2.9016
X6.9173Y-3.0016
X6.9173Y-3.1016
X6.9173Y-3.2016
X6.9173Y-3.3016
X6.9173Y-3.4016
X6.9173Y-3.5016
X6.9173Y-3.6016
X6.9173Y-3.7016
X6.9173Y-3.8016
T4
X5.1045Y-3.2925
X5.1045Y-3.3925
X5.4045Y-3.2925
X5.4045Y-3.3925
X5.1024Y-2.3701
X5.1024Y-2.4701
X5.4024Y-2.3701
X5.4024Y-2.4701
X7.3189Y-5.0593
X7.4173Y-5.0593
X5.1083Y-3.7283
X5.1083Y-3.8283
X5.4083Y-3.7283
X5.4083Y-3.8283
X5.1102Y-2.8661
X5.1102Y-2.9661
X5.4102Y-2.8661
X5.4102Y-2.9661
T5
X5.7894Y-5.376
X6.2618Y-5.376
T6
X5.128Y-4.5965
X5.128Y-4.8524
X5.3051Y-4.5965
X5.3051Y-4.8524
X5.5512Y-4.5965
X5.5512Y-4.8524
X5.7283Y-4.5965
X5.7283Y-4.8524
T7
X7.5354Y-4.6772
X8.126Y-4.6772
X6.7559Y-5.3343
X7.3465Y-5.3343
T8
X5.7894Y-5.8563
X6.0276Y-5.2992
T9
X4.5118Y-2.6827
X4.5118Y-2.8827
X4.5118Y-3.0827
X4.5118Y-3.9504
X4.5118Y-4.1504
X4.5118Y-4.3504
X4.5118Y-3.3165
X4.5118Y-3.5165
X4.5118Y-3.7165
X4.5118Y-4.5764
X4.5118Y-4.7764
X4.5118Y-4.9764
T10
X4.9646Y-5.7035
X5.3583Y-5.7035
X6.8244Y-5.7043
X7.2181Y-5.7043
T11
X7.6213Y-5.7343
X7.8013Y-5.5943
T12
X7.6213Y-5.4343
T0
M30
