G04 #@! TF.GenerationSoftware,KiCad,Pcbnew,(5.1.5)-3*
G04 #@! TF.CreationDate,2022-03-03T15:33:47+01:00*
G04 #@! TF.ProjectId,ESP32_client,45535033-325f-4636-9c69-656e742e6b69,rev?*
G04 #@! TF.SameCoordinates,Original*
G04 #@! TF.FileFunction,Copper,L2,Bot*
G04 #@! TF.FilePolarity,Positive*
%FSLAX46Y46*%
G04 Gerber Fmt 4.6, Leading zero omitted, Abs format (unit mm)*
G04 Created by KiCad (PCBNEW (5.1.5)-3) date 2022-03-03 15:33:47*
%MOMM*%
%LPD*%
G04 APERTURE LIST*
%ADD10R,1.524000X1.524000*%
%ADD11C,1.524000*%
%ADD12R,1.200000X1.200000*%
%ADD13C,1.200000*%
%ADD14C,5.000000*%
%ADD15C,4.500000*%
%ADD16C,3.300000*%
%ADD17R,3.000000X3.000000*%
%ADD18C,3.000000*%
%ADD19C,2.500000*%
%ADD20R,2.000000X2.000000*%
%ADD21C,2.000000*%
%ADD22R,1.600000X1.600000*%
%ADD23O,1.600000X1.600000*%
%ADD24C,2.400000*%
%ADD25C,1.600000*%
%ADD26C,0.800000*%
%ADD27C,1.000000*%
%ADD28C,0.300000*%
%ADD29C,0.254000*%
G04 APERTURE END LIST*
D10*
X150300000Y-61000000D03*
D11*
X150300000Y-63540000D03*
X150300000Y-66080000D03*
X150300000Y-68620000D03*
X150300000Y-71160000D03*
X150300000Y-73700000D03*
X150300000Y-76240000D03*
X150300000Y-78780000D03*
X150300000Y-81320000D03*
X150300000Y-83860000D03*
X150300000Y-86400000D03*
X150300000Y-88940000D03*
X150300000Y-91480000D03*
X150300000Y-94020000D03*
X150300000Y-96560000D03*
X175700000Y-96560000D03*
X175700000Y-94020000D03*
X175700000Y-91480000D03*
X175700000Y-88940000D03*
X175700000Y-86400000D03*
X175700000Y-83860000D03*
X175700000Y-81320000D03*
X175700000Y-78780000D03*
X175700000Y-76240000D03*
X175700000Y-73700000D03*
X175700000Y-71160000D03*
X175700000Y-68620000D03*
X175700000Y-66080000D03*
X175700000Y-63540000D03*
X175700000Y-61000000D03*
D12*
X170500000Y-126600000D03*
D13*
X170500000Y-128600000D03*
X176300000Y-128600000D03*
D12*
X176300000Y-126600000D03*
X181400000Y-126500000D03*
D13*
X181400000Y-128500000D03*
X189300000Y-102700000D03*
D12*
X191300000Y-102700000D03*
D13*
X189300000Y-107700000D03*
D12*
X191300000Y-107700000D03*
X191300000Y-112600000D03*
D13*
X189300000Y-112600000D03*
D14*
X193580000Y-138030000D03*
D15*
X193580000Y-145650000D03*
X198152000Y-142094000D03*
D16*
X173340000Y-144888000D03*
X183340000Y-144888000D03*
X136100000Y-144868000D03*
X126100000Y-144868000D03*
D17*
X114600000Y-126400000D03*
D18*
X114600000Y-121320000D03*
X114600000Y-116240000D03*
D17*
X114600000Y-94400000D03*
D18*
X114600000Y-89320000D03*
X114600000Y-84240000D03*
X114600000Y-100340000D03*
X114600000Y-105420000D03*
D17*
X114600000Y-110500000D03*
D18*
X114600000Y-68140000D03*
X114600000Y-73220000D03*
D17*
X114600000Y-78300000D03*
D19*
X147050000Y-136550000D03*
D18*
X147050000Y-148750000D03*
D19*
X159050000Y-136550000D03*
D18*
X153100000Y-134600000D03*
D20*
X195800000Y-132500000D03*
D21*
X195800000Y-124900000D03*
X205800000Y-132500000D03*
X205800000Y-124900000D03*
X134750000Y-123250000D03*
X130250000Y-123250000D03*
X134750000Y-116750000D03*
X130250000Y-116750000D03*
X141000000Y-116750000D03*
X145500000Y-116750000D03*
X141000000Y-123250000D03*
X145500000Y-123250000D03*
D22*
X129750000Y-94700000D03*
D23*
X137370000Y-97240000D03*
X129750000Y-97240000D03*
X137370000Y-94700000D03*
X137420000Y-72800000D03*
X129800000Y-75340000D03*
X137420000Y-75340000D03*
D22*
X129800000Y-72800000D03*
D23*
X137275000Y-83630000D03*
X129655000Y-86170000D03*
X137275000Y-86170000D03*
D22*
X129655000Y-83630000D03*
X129600000Y-60200000D03*
D23*
X137220000Y-62740000D03*
X129600000Y-62740000D03*
X137220000Y-60200000D03*
D24*
X171600000Y-135490000D03*
X186600000Y-135490000D03*
X191400000Y-118800000D03*
X206400000Y-118800000D03*
D22*
X188400000Y-128505000D03*
D25*
X185900000Y-128505000D03*
D26*
X134112000Y-135636000D03*
X132842000Y-110998000D03*
X143764000Y-110871000D03*
X188849000Y-65913000D03*
X188849000Y-72390000D03*
X188849000Y-78613000D03*
X188849000Y-85090000D03*
X188849000Y-91440000D03*
X188849000Y-97790000D03*
X205740000Y-99060000D03*
X202438000Y-99060000D03*
X185928000Y-122428000D03*
X185928000Y-120523000D03*
X185928000Y-118618000D03*
X185928000Y-116713000D03*
X167640000Y-122555000D03*
X181102000Y-110236000D03*
X176400000Y-108250000D03*
X174752000Y-119888000D03*
X179832000Y-119888000D03*
X179832000Y-122936000D03*
X177292000Y-121412000D03*
X174752000Y-122936000D03*
X197739000Y-114554000D03*
X203073000Y-114554000D03*
X143383000Y-60198000D03*
X143510000Y-72771000D03*
X143383000Y-83566000D03*
X144145000Y-92329000D03*
X130937000Y-110871000D03*
X142113000Y-109474000D03*
D27*
X175700000Y-61000000D02*
X173696000Y-61000000D01*
X173696000Y-61000000D02*
X171831000Y-62865000D01*
X171831000Y-103681000D02*
X176400000Y-108250000D01*
X171831000Y-62865000D02*
X171831000Y-103681000D01*
D28*
X177292000Y-121412000D02*
X177292000Y-112395000D01*
X176400000Y-111503000D02*
X176400000Y-108250000D01*
X177292000Y-112395000D02*
X176400000Y-111503000D01*
X143383000Y-60198000D02*
X143510000Y-72771000D01*
X143510000Y-72771000D02*
X143383000Y-83566000D01*
X143383000Y-83566000D02*
X143383000Y-91362762D01*
X143383000Y-91362762D02*
X144145000Y-92329000D01*
X130937000Y-110871000D02*
X132334000Y-109474000D01*
X132334000Y-109474000D02*
X142113000Y-109474000D01*
X142113000Y-94361000D02*
X142113000Y-109474000D01*
X144145000Y-92329000D02*
X142113000Y-94361000D01*
D29*
G36*
X146177000Y-62484000D02*
G01*
X146179440Y-62508776D01*
X146186667Y-62532601D01*
X146198403Y-62554557D01*
X146214197Y-62573803D01*
X146233443Y-62589597D01*
X146255399Y-62601333D01*
X146279224Y-62608560D01*
X146304000Y-62611000D01*
X149244654Y-62611000D01*
X149218023Y-62637631D01*
X149334433Y-62754041D01*
X149094344Y-62821020D01*
X148977244Y-63070048D01*
X148910977Y-63337135D01*
X148898090Y-63612017D01*
X148939078Y-63884133D01*
X149032364Y-64143023D01*
X149094344Y-64258980D01*
X149334435Y-64325960D01*
X150120395Y-63540000D01*
X150106253Y-63525858D01*
X150285858Y-63346253D01*
X150300000Y-63360395D01*
X150314143Y-63346253D01*
X150493748Y-63525858D01*
X150479605Y-63540000D01*
X151265565Y-64325960D01*
X151505656Y-64258980D01*
X151622756Y-64009952D01*
X151689023Y-63742865D01*
X151701910Y-63467983D01*
X151660922Y-63195867D01*
X151567636Y-62936977D01*
X151505656Y-62821020D01*
X151265567Y-62754041D01*
X151381977Y-62637631D01*
X151355346Y-62611000D01*
X170991588Y-62611000D01*
X170966690Y-62693078D01*
X170949757Y-62865000D01*
X170954000Y-62908080D01*
X170954001Y-103637910D01*
X170949757Y-103681000D01*
X170966690Y-103852922D01*
X171016838Y-104018236D01*
X171098274Y-104170592D01*
X171180406Y-104270671D01*
X171180409Y-104270674D01*
X171207868Y-104304133D01*
X171241327Y-104331592D01*
X175810328Y-108900594D01*
X175873001Y-108952028D01*
X175873000Y-111477119D01*
X175870451Y-111503000D01*
X175873000Y-111528880D01*
X175880626Y-111606309D01*
X175910761Y-111705649D01*
X175959696Y-111797202D01*
X176025552Y-111877448D01*
X176045666Y-111893955D01*
X176765001Y-112613291D01*
X176765000Y-120840155D01*
X176688464Y-120916691D01*
X176603431Y-121043952D01*
X176544859Y-121185357D01*
X176515000Y-121335472D01*
X176515000Y-121488528D01*
X176544859Y-121638643D01*
X176603431Y-121780048D01*
X176688464Y-121907309D01*
X176796691Y-122015536D01*
X176923952Y-122100569D01*
X177065357Y-122159141D01*
X177215472Y-122189000D01*
X177368528Y-122189000D01*
X177518643Y-122159141D01*
X177660048Y-122100569D01*
X177787309Y-122015536D01*
X177895536Y-121907309D01*
X177980569Y-121780048D01*
X178039141Y-121638643D01*
X178069000Y-121488528D01*
X178069000Y-121335472D01*
X178039141Y-121185357D01*
X177980569Y-121043952D01*
X177895536Y-120916691D01*
X177819000Y-120840155D01*
X177819000Y-119811472D01*
X179055000Y-119811472D01*
X179055000Y-119964528D01*
X179084859Y-120114643D01*
X179143431Y-120256048D01*
X179228464Y-120383309D01*
X179336691Y-120491536D01*
X179463952Y-120576569D01*
X179605357Y-120635141D01*
X179755472Y-120665000D01*
X179908528Y-120665000D01*
X180058643Y-120635141D01*
X180200048Y-120576569D01*
X180327309Y-120491536D01*
X180435536Y-120383309D01*
X180520569Y-120256048D01*
X180579141Y-120114643D01*
X180609000Y-119964528D01*
X180609000Y-119811472D01*
X180579141Y-119661357D01*
X180520569Y-119519952D01*
X180435536Y-119392691D01*
X180327309Y-119284464D01*
X180200048Y-119199431D01*
X180058643Y-119140859D01*
X179908528Y-119111000D01*
X179755472Y-119111000D01*
X179605357Y-119140859D01*
X179463952Y-119199431D01*
X179336691Y-119284464D01*
X179228464Y-119392691D01*
X179143431Y-119519952D01*
X179084859Y-119661357D01*
X179055000Y-119811472D01*
X177819000Y-119811472D01*
X177819000Y-118644679D01*
X189823000Y-118644679D01*
X189823000Y-118955321D01*
X189883604Y-119259994D01*
X190002481Y-119546989D01*
X190175064Y-119805279D01*
X190394721Y-120024936D01*
X190653011Y-120197519D01*
X190940006Y-120316396D01*
X191244679Y-120377000D01*
X191555321Y-120377000D01*
X191859994Y-120316396D01*
X192146989Y-120197519D01*
X192405279Y-120024936D01*
X192624936Y-119805279D01*
X192797519Y-119546989D01*
X192916396Y-119259994D01*
X192977000Y-118955321D01*
X192977000Y-118854684D01*
X204556933Y-118854684D01*
X204603015Y-119213198D01*
X204718154Y-119555833D01*
X204837164Y-119778486D01*
X205122020Y-119898374D01*
X206220395Y-118800000D01*
X205122020Y-117701626D01*
X204837164Y-117821514D01*
X204676301Y-118145210D01*
X204581678Y-118494069D01*
X204556933Y-118854684D01*
X192977000Y-118854684D01*
X192977000Y-118644679D01*
X192916396Y-118340006D01*
X192797519Y-118053011D01*
X192624936Y-117794721D01*
X192405279Y-117575064D01*
X192146989Y-117402481D01*
X191859994Y-117283604D01*
X191555321Y-117223000D01*
X191244679Y-117223000D01*
X190940006Y-117283604D01*
X190653011Y-117402481D01*
X190394721Y-117575064D01*
X190175064Y-117794721D01*
X190002481Y-118053011D01*
X189883604Y-118340006D01*
X189823000Y-118644679D01*
X177819000Y-118644679D01*
X177819000Y-114477472D01*
X196962000Y-114477472D01*
X196962000Y-114630528D01*
X196991859Y-114780643D01*
X197050431Y-114922048D01*
X197135464Y-115049309D01*
X197243691Y-115157536D01*
X197370952Y-115242569D01*
X197512357Y-115301141D01*
X197662472Y-115331000D01*
X197815528Y-115331000D01*
X197965643Y-115301141D01*
X198107048Y-115242569D01*
X198234309Y-115157536D01*
X198342536Y-115049309D01*
X198427569Y-114922048D01*
X198486141Y-114780643D01*
X198516000Y-114630528D01*
X198516000Y-114477472D01*
X202296000Y-114477472D01*
X202296000Y-114630528D01*
X202325859Y-114780643D01*
X202384431Y-114922048D01*
X202469464Y-115049309D01*
X202577691Y-115157536D01*
X202704952Y-115242569D01*
X202846357Y-115301141D01*
X202996472Y-115331000D01*
X203149528Y-115331000D01*
X203299643Y-115301141D01*
X203441048Y-115242569D01*
X203568309Y-115157536D01*
X203676536Y-115049309D01*
X203761569Y-114922048D01*
X203820141Y-114780643D01*
X203850000Y-114630528D01*
X203850000Y-114477472D01*
X203820141Y-114327357D01*
X203761569Y-114185952D01*
X203676536Y-114058691D01*
X203568309Y-113950464D01*
X203441048Y-113865431D01*
X203299643Y-113806859D01*
X203149528Y-113777000D01*
X202996472Y-113777000D01*
X202846357Y-113806859D01*
X202704952Y-113865431D01*
X202577691Y-113950464D01*
X202469464Y-114058691D01*
X202384431Y-114185952D01*
X202325859Y-114327357D01*
X202296000Y-114477472D01*
X198516000Y-114477472D01*
X198486141Y-114327357D01*
X198427569Y-114185952D01*
X198342536Y-114058691D01*
X198234309Y-113950464D01*
X198107048Y-113865431D01*
X197965643Y-113806859D01*
X197815528Y-113777000D01*
X197662472Y-113777000D01*
X197512357Y-113806859D01*
X197370952Y-113865431D01*
X197243691Y-113950464D01*
X197135464Y-114058691D01*
X197050431Y-114185952D01*
X196991859Y-114327357D01*
X196962000Y-114477472D01*
X177819000Y-114477472D01*
X177819000Y-113449764D01*
X188629841Y-113449764D01*
X188677148Y-113673348D01*
X188898516Y-113774237D01*
X189135313Y-113830000D01*
X189378438Y-113838495D01*
X189618549Y-113799395D01*
X189846418Y-113714202D01*
X189922852Y-113673348D01*
X189970159Y-113449764D01*
X189300000Y-112779605D01*
X188629841Y-113449764D01*
X177819000Y-113449764D01*
X177819000Y-112678438D01*
X188061505Y-112678438D01*
X188100605Y-112918549D01*
X188185798Y-113146418D01*
X188226652Y-113222852D01*
X188450236Y-113270159D01*
X189120395Y-112600000D01*
X189479605Y-112600000D01*
X190149764Y-113270159D01*
X190324446Y-113233199D01*
X190328455Y-113273905D01*
X190350012Y-113344970D01*
X190385019Y-113410463D01*
X190432131Y-113467869D01*
X190489537Y-113514981D01*
X190555030Y-113549988D01*
X190626095Y-113571545D01*
X190700000Y-113578824D01*
X191900000Y-113578824D01*
X191973905Y-113571545D01*
X192044970Y-113549988D01*
X192110463Y-113514981D01*
X192167869Y-113467869D01*
X192214981Y-113410463D01*
X192249988Y-113344970D01*
X192271545Y-113273905D01*
X192278824Y-113200000D01*
X192278824Y-112000000D01*
X192271545Y-111926095D01*
X192249988Y-111855030D01*
X192214981Y-111789537D01*
X192167869Y-111732131D01*
X192110463Y-111685019D01*
X192044970Y-111650012D01*
X191973905Y-111628455D01*
X191900000Y-111621176D01*
X190700000Y-111621176D01*
X190626095Y-111628455D01*
X190555030Y-111650012D01*
X190489537Y-111685019D01*
X190432131Y-111732131D01*
X190385019Y-111789537D01*
X190350012Y-111855030D01*
X190328455Y-111926095D01*
X190324446Y-111966801D01*
X190149764Y-111929841D01*
X189479605Y-112600000D01*
X189120395Y-112600000D01*
X188450236Y-111929841D01*
X188226652Y-111977148D01*
X188125763Y-112198516D01*
X188070000Y-112435313D01*
X188061505Y-112678438D01*
X177819000Y-112678438D01*
X177819000Y-112420877D01*
X177821549Y-112394999D01*
X177819000Y-112369119D01*
X177811374Y-112291690D01*
X177781239Y-112192350D01*
X177732304Y-112100798D01*
X177666448Y-112020552D01*
X177646339Y-112004049D01*
X177392526Y-111750236D01*
X188629841Y-111750236D01*
X189300000Y-112420395D01*
X189970159Y-111750236D01*
X189922852Y-111526652D01*
X189701484Y-111425763D01*
X189464687Y-111370000D01*
X189221562Y-111361505D01*
X188981451Y-111400605D01*
X188753582Y-111485798D01*
X188677148Y-111526652D01*
X188629841Y-111750236D01*
X177392526Y-111750236D01*
X176927000Y-111284711D01*
X176927000Y-108952026D01*
X177023133Y-108873133D01*
X177132726Y-108739592D01*
X177214162Y-108587237D01*
X177225529Y-108549764D01*
X188629841Y-108549764D01*
X188677148Y-108773348D01*
X188898516Y-108874237D01*
X189135313Y-108930000D01*
X189378438Y-108938495D01*
X189618549Y-108899395D01*
X189846418Y-108814202D01*
X189922852Y-108773348D01*
X189970159Y-108549764D01*
X189300000Y-107879605D01*
X188629841Y-108549764D01*
X177225529Y-108549764D01*
X177264310Y-108421922D01*
X177281243Y-108250000D01*
X177264310Y-108078077D01*
X177214162Y-107912763D01*
X177142364Y-107778438D01*
X188061505Y-107778438D01*
X188100605Y-108018549D01*
X188185798Y-108246418D01*
X188226652Y-108322852D01*
X188450236Y-108370159D01*
X189120395Y-107700000D01*
X189479605Y-107700000D01*
X190149764Y-108370159D01*
X190324446Y-108333199D01*
X190328455Y-108373905D01*
X190350012Y-108444970D01*
X190385019Y-108510463D01*
X190432131Y-108567869D01*
X190489537Y-108614981D01*
X190555030Y-108649988D01*
X190626095Y-108671545D01*
X190700000Y-108678824D01*
X191900000Y-108678824D01*
X191973905Y-108671545D01*
X192044970Y-108649988D01*
X192110463Y-108614981D01*
X192167869Y-108567869D01*
X192214981Y-108510463D01*
X192249988Y-108444970D01*
X192271545Y-108373905D01*
X192278824Y-108300000D01*
X192278824Y-107100000D01*
X192271545Y-107026095D01*
X192249988Y-106955030D01*
X192214981Y-106889537D01*
X192167869Y-106832131D01*
X192110463Y-106785019D01*
X192044970Y-106750012D01*
X191973905Y-106728455D01*
X191900000Y-106721176D01*
X190700000Y-106721176D01*
X190626095Y-106728455D01*
X190555030Y-106750012D01*
X190489537Y-106785019D01*
X190432131Y-106832131D01*
X190385019Y-106889537D01*
X190350012Y-106955030D01*
X190328455Y-107026095D01*
X190324446Y-107066801D01*
X190149764Y-107029841D01*
X189479605Y-107700000D01*
X189120395Y-107700000D01*
X188450236Y-107029841D01*
X188226652Y-107077148D01*
X188125763Y-107298516D01*
X188070000Y-107535313D01*
X188061505Y-107778438D01*
X177142364Y-107778438D01*
X177132726Y-107760407D01*
X177050594Y-107660328D01*
X176240502Y-106850236D01*
X188629841Y-106850236D01*
X189300000Y-107520395D01*
X189970159Y-106850236D01*
X189922852Y-106626652D01*
X189701484Y-106525763D01*
X189464687Y-106470000D01*
X189221562Y-106461505D01*
X188981451Y-106500605D01*
X188753582Y-106585798D01*
X188677148Y-106626652D01*
X188629841Y-106850236D01*
X176240502Y-106850236D01*
X172940030Y-103549764D01*
X188629841Y-103549764D01*
X188677148Y-103773348D01*
X188898516Y-103874237D01*
X189135313Y-103930000D01*
X189378438Y-103938495D01*
X189618549Y-103899395D01*
X189846418Y-103814202D01*
X189922852Y-103773348D01*
X189970159Y-103549764D01*
X189300000Y-102879605D01*
X188629841Y-103549764D01*
X172940030Y-103549764D01*
X172708000Y-103317735D01*
X172708000Y-102778438D01*
X188061505Y-102778438D01*
X188100605Y-103018549D01*
X188185798Y-103246418D01*
X188226652Y-103322852D01*
X188450236Y-103370159D01*
X189120395Y-102700000D01*
X189479605Y-102700000D01*
X190149764Y-103370159D01*
X190324446Y-103333199D01*
X190328455Y-103373905D01*
X190350012Y-103444970D01*
X190385019Y-103510463D01*
X190432131Y-103567869D01*
X190489537Y-103614981D01*
X190555030Y-103649988D01*
X190626095Y-103671545D01*
X190700000Y-103678824D01*
X191900000Y-103678824D01*
X191973905Y-103671545D01*
X192044970Y-103649988D01*
X192110463Y-103614981D01*
X192167869Y-103567869D01*
X192214981Y-103510463D01*
X192249988Y-103444970D01*
X192271545Y-103373905D01*
X192278824Y-103300000D01*
X192278824Y-102100000D01*
X192271545Y-102026095D01*
X192249988Y-101955030D01*
X192214981Y-101889537D01*
X192167869Y-101832131D01*
X192110463Y-101785019D01*
X192044970Y-101750012D01*
X191973905Y-101728455D01*
X191900000Y-101721176D01*
X190700000Y-101721176D01*
X190626095Y-101728455D01*
X190555030Y-101750012D01*
X190489537Y-101785019D01*
X190432131Y-101832131D01*
X190385019Y-101889537D01*
X190350012Y-101955030D01*
X190328455Y-102026095D01*
X190324446Y-102066801D01*
X190149764Y-102029841D01*
X189479605Y-102700000D01*
X189120395Y-102700000D01*
X188450236Y-102029841D01*
X188226652Y-102077148D01*
X188125763Y-102298516D01*
X188070000Y-102535313D01*
X188061505Y-102778438D01*
X172708000Y-102778438D01*
X172708000Y-101850236D01*
X188629841Y-101850236D01*
X189300000Y-102520395D01*
X189970159Y-101850236D01*
X189922852Y-101626652D01*
X189701484Y-101525763D01*
X189464687Y-101470000D01*
X189221562Y-101461505D01*
X188981451Y-101500605D01*
X188753582Y-101585798D01*
X188677148Y-101626652D01*
X188629841Y-101850236D01*
X172708000Y-101850236D01*
X172708000Y-96447818D01*
X174561000Y-96447818D01*
X174561000Y-96672182D01*
X174604771Y-96892234D01*
X174690631Y-97099519D01*
X174815281Y-97286070D01*
X174973930Y-97444719D01*
X175160481Y-97569369D01*
X175367766Y-97655229D01*
X175587818Y-97699000D01*
X175812182Y-97699000D01*
X176032234Y-97655229D01*
X176239519Y-97569369D01*
X176426070Y-97444719D01*
X176584719Y-97286070D01*
X176709369Y-97099519D01*
X176795229Y-96892234D01*
X176839000Y-96672182D01*
X176839000Y-96447818D01*
X176795229Y-96227766D01*
X176709369Y-96020481D01*
X176584719Y-95833930D01*
X176426070Y-95675281D01*
X176239519Y-95550631D01*
X176032234Y-95464771D01*
X175812182Y-95421000D01*
X175587818Y-95421000D01*
X175367766Y-95464771D01*
X175160481Y-95550631D01*
X174973930Y-95675281D01*
X174815281Y-95833930D01*
X174690631Y-96020481D01*
X174604771Y-96227766D01*
X174561000Y-96447818D01*
X172708000Y-96447818D01*
X172708000Y-93907818D01*
X174561000Y-93907818D01*
X174561000Y-94132182D01*
X174604771Y-94352234D01*
X174690631Y-94559519D01*
X174815281Y-94746070D01*
X174973930Y-94904719D01*
X175160481Y-95029369D01*
X175367766Y-95115229D01*
X175587818Y-95159000D01*
X175812182Y-95159000D01*
X176032234Y-95115229D01*
X176239519Y-95029369D01*
X176426070Y-94904719D01*
X176584719Y-94746070D01*
X176709369Y-94559519D01*
X176795229Y-94352234D01*
X176839000Y-94132182D01*
X176839000Y-93907818D01*
X176795229Y-93687766D01*
X176709369Y-93480481D01*
X176584719Y-93293930D01*
X176426070Y-93135281D01*
X176239519Y-93010631D01*
X176032234Y-92924771D01*
X175812182Y-92881000D01*
X175587818Y-92881000D01*
X175367766Y-92924771D01*
X175160481Y-93010631D01*
X174973930Y-93135281D01*
X174815281Y-93293930D01*
X174690631Y-93480481D01*
X174604771Y-93687766D01*
X174561000Y-93907818D01*
X172708000Y-93907818D01*
X172708000Y-91367818D01*
X174561000Y-91367818D01*
X174561000Y-91592182D01*
X174604771Y-91812234D01*
X174690631Y-92019519D01*
X174815281Y-92206070D01*
X174973930Y-92364719D01*
X175160481Y-92489369D01*
X175367766Y-92575229D01*
X175587818Y-92619000D01*
X175812182Y-92619000D01*
X176032234Y-92575229D01*
X176239519Y-92489369D01*
X176426070Y-92364719D01*
X176584719Y-92206070D01*
X176709369Y-92019519D01*
X176795229Y-91812234D01*
X176839000Y-91592182D01*
X176839000Y-91367818D01*
X176795229Y-91147766D01*
X176709369Y-90940481D01*
X176584719Y-90753930D01*
X176426070Y-90595281D01*
X176239519Y-90470631D01*
X176032234Y-90384771D01*
X175812182Y-90341000D01*
X175587818Y-90341000D01*
X175367766Y-90384771D01*
X175160481Y-90470631D01*
X174973930Y-90595281D01*
X174815281Y-90753930D01*
X174690631Y-90940481D01*
X174604771Y-91147766D01*
X174561000Y-91367818D01*
X172708000Y-91367818D01*
X172708000Y-88827818D01*
X174561000Y-88827818D01*
X174561000Y-89052182D01*
X174604771Y-89272234D01*
X174690631Y-89479519D01*
X174815281Y-89666070D01*
X174973930Y-89824719D01*
X175160481Y-89949369D01*
X175367766Y-90035229D01*
X175587818Y-90079000D01*
X175812182Y-90079000D01*
X176032234Y-90035229D01*
X176239519Y-89949369D01*
X176426070Y-89824719D01*
X176584719Y-89666070D01*
X176709369Y-89479519D01*
X176795229Y-89272234D01*
X176839000Y-89052182D01*
X176839000Y-88827818D01*
X176795229Y-88607766D01*
X176709369Y-88400481D01*
X176584719Y-88213930D01*
X176426070Y-88055281D01*
X176239519Y-87930631D01*
X176032234Y-87844771D01*
X175812182Y-87801000D01*
X175587818Y-87801000D01*
X175367766Y-87844771D01*
X175160481Y-87930631D01*
X174973930Y-88055281D01*
X174815281Y-88213930D01*
X174690631Y-88400481D01*
X174604771Y-88607766D01*
X174561000Y-88827818D01*
X172708000Y-88827818D01*
X172708000Y-86287818D01*
X174561000Y-86287818D01*
X174561000Y-86512182D01*
X174604771Y-86732234D01*
X174690631Y-86939519D01*
X174815281Y-87126070D01*
X174973930Y-87284719D01*
X175160481Y-87409369D01*
X175367766Y-87495229D01*
X175587818Y-87539000D01*
X175812182Y-87539000D01*
X176032234Y-87495229D01*
X176239519Y-87409369D01*
X176426070Y-87284719D01*
X176584719Y-87126070D01*
X176709369Y-86939519D01*
X176795229Y-86732234D01*
X176839000Y-86512182D01*
X176839000Y-86287818D01*
X176795229Y-86067766D01*
X176709369Y-85860481D01*
X176584719Y-85673930D01*
X176426070Y-85515281D01*
X176239519Y-85390631D01*
X176032234Y-85304771D01*
X175812182Y-85261000D01*
X175587818Y-85261000D01*
X175367766Y-85304771D01*
X175160481Y-85390631D01*
X174973930Y-85515281D01*
X174815281Y-85673930D01*
X174690631Y-85860481D01*
X174604771Y-86067766D01*
X174561000Y-86287818D01*
X172708000Y-86287818D01*
X172708000Y-83747818D01*
X174561000Y-83747818D01*
X174561000Y-83972182D01*
X174604771Y-84192234D01*
X174690631Y-84399519D01*
X174815281Y-84586070D01*
X174973930Y-84744719D01*
X175160481Y-84869369D01*
X175367766Y-84955229D01*
X175587818Y-84999000D01*
X175812182Y-84999000D01*
X176032234Y-84955229D01*
X176239519Y-84869369D01*
X176426070Y-84744719D01*
X176584719Y-84586070D01*
X176709369Y-84399519D01*
X176795229Y-84192234D01*
X176839000Y-83972182D01*
X176839000Y-83747818D01*
X176795229Y-83527766D01*
X176709369Y-83320481D01*
X176584719Y-83133930D01*
X176426070Y-82975281D01*
X176239519Y-82850631D01*
X176032234Y-82764771D01*
X175812182Y-82721000D01*
X175587818Y-82721000D01*
X175367766Y-82764771D01*
X175160481Y-82850631D01*
X174973930Y-82975281D01*
X174815281Y-83133930D01*
X174690631Y-83320481D01*
X174604771Y-83527766D01*
X174561000Y-83747818D01*
X172708000Y-83747818D01*
X172708000Y-81207818D01*
X174561000Y-81207818D01*
X174561000Y-81432182D01*
X174604771Y-81652234D01*
X174690631Y-81859519D01*
X174815281Y-82046070D01*
X174973930Y-82204719D01*
X175160481Y-82329369D01*
X175367766Y-82415229D01*
X175587818Y-82459000D01*
X175812182Y-82459000D01*
X176032234Y-82415229D01*
X176239519Y-82329369D01*
X176426070Y-82204719D01*
X176584719Y-82046070D01*
X176709369Y-81859519D01*
X176795229Y-81652234D01*
X176839000Y-81432182D01*
X176839000Y-81207818D01*
X176795229Y-80987766D01*
X176709369Y-80780481D01*
X176584719Y-80593930D01*
X176426070Y-80435281D01*
X176239519Y-80310631D01*
X176032234Y-80224771D01*
X175812182Y-80181000D01*
X175587818Y-80181000D01*
X175367766Y-80224771D01*
X175160481Y-80310631D01*
X174973930Y-80435281D01*
X174815281Y-80593930D01*
X174690631Y-80780481D01*
X174604771Y-80987766D01*
X174561000Y-81207818D01*
X172708000Y-81207818D01*
X172708000Y-78667818D01*
X174561000Y-78667818D01*
X174561000Y-78892182D01*
X174604771Y-79112234D01*
X174690631Y-79319519D01*
X174815281Y-79506070D01*
X174973930Y-79664719D01*
X175160481Y-79789369D01*
X175367766Y-79875229D01*
X175587818Y-79919000D01*
X175812182Y-79919000D01*
X176032234Y-79875229D01*
X176239519Y-79789369D01*
X176426070Y-79664719D01*
X176584719Y-79506070D01*
X176709369Y-79319519D01*
X176795229Y-79112234D01*
X176839000Y-78892182D01*
X176839000Y-78667818D01*
X176795229Y-78447766D01*
X176709369Y-78240481D01*
X176584719Y-78053930D01*
X176426070Y-77895281D01*
X176239519Y-77770631D01*
X176032234Y-77684771D01*
X175812182Y-77641000D01*
X175587818Y-77641000D01*
X175367766Y-77684771D01*
X175160481Y-77770631D01*
X174973930Y-77895281D01*
X174815281Y-78053930D01*
X174690631Y-78240481D01*
X174604771Y-78447766D01*
X174561000Y-78667818D01*
X172708000Y-78667818D01*
X172708000Y-76127818D01*
X174561000Y-76127818D01*
X174561000Y-76352182D01*
X174604771Y-76572234D01*
X174690631Y-76779519D01*
X174815281Y-76966070D01*
X174973930Y-77124719D01*
X175160481Y-77249369D01*
X175367766Y-77335229D01*
X175587818Y-77379000D01*
X175812182Y-77379000D01*
X176032234Y-77335229D01*
X176239519Y-77249369D01*
X176426070Y-77124719D01*
X176584719Y-76966070D01*
X176709369Y-76779519D01*
X176795229Y-76572234D01*
X176839000Y-76352182D01*
X176839000Y-76127818D01*
X176795229Y-75907766D01*
X176709369Y-75700481D01*
X176584719Y-75513930D01*
X176426070Y-75355281D01*
X176239519Y-75230631D01*
X176032234Y-75144771D01*
X175812182Y-75101000D01*
X175587818Y-75101000D01*
X175367766Y-75144771D01*
X175160481Y-75230631D01*
X174973930Y-75355281D01*
X174815281Y-75513930D01*
X174690631Y-75700481D01*
X174604771Y-75907766D01*
X174561000Y-76127818D01*
X172708000Y-76127818D01*
X172708000Y-73587818D01*
X174561000Y-73587818D01*
X174561000Y-73812182D01*
X174604771Y-74032234D01*
X174690631Y-74239519D01*
X174815281Y-74426070D01*
X174973930Y-74584719D01*
X175160481Y-74709369D01*
X175367766Y-74795229D01*
X175587818Y-74839000D01*
X175812182Y-74839000D01*
X176032234Y-74795229D01*
X176239519Y-74709369D01*
X176426070Y-74584719D01*
X176584719Y-74426070D01*
X176709369Y-74239519D01*
X176795229Y-74032234D01*
X176839000Y-73812182D01*
X176839000Y-73587818D01*
X176795229Y-73367766D01*
X176709369Y-73160481D01*
X176584719Y-72973930D01*
X176426070Y-72815281D01*
X176239519Y-72690631D01*
X176032234Y-72604771D01*
X175812182Y-72561000D01*
X175587818Y-72561000D01*
X175367766Y-72604771D01*
X175160481Y-72690631D01*
X174973930Y-72815281D01*
X174815281Y-72973930D01*
X174690631Y-73160481D01*
X174604771Y-73367766D01*
X174561000Y-73587818D01*
X172708000Y-73587818D01*
X172708000Y-71047818D01*
X174561000Y-71047818D01*
X174561000Y-71272182D01*
X174604771Y-71492234D01*
X174690631Y-71699519D01*
X174815281Y-71886070D01*
X174973930Y-72044719D01*
X175160481Y-72169369D01*
X175367766Y-72255229D01*
X175587818Y-72299000D01*
X175812182Y-72299000D01*
X176032234Y-72255229D01*
X176239519Y-72169369D01*
X176426070Y-72044719D01*
X176584719Y-71886070D01*
X176709369Y-71699519D01*
X176795229Y-71492234D01*
X176839000Y-71272182D01*
X176839000Y-71047818D01*
X176795229Y-70827766D01*
X176709369Y-70620481D01*
X176584719Y-70433930D01*
X176426070Y-70275281D01*
X176239519Y-70150631D01*
X176032234Y-70064771D01*
X175812182Y-70021000D01*
X175587818Y-70021000D01*
X175367766Y-70064771D01*
X175160481Y-70150631D01*
X174973930Y-70275281D01*
X174815281Y-70433930D01*
X174690631Y-70620481D01*
X174604771Y-70827766D01*
X174561000Y-71047818D01*
X172708000Y-71047818D01*
X172708000Y-68507818D01*
X174561000Y-68507818D01*
X174561000Y-68732182D01*
X174604771Y-68952234D01*
X174690631Y-69159519D01*
X174815281Y-69346070D01*
X174973930Y-69504719D01*
X175160481Y-69629369D01*
X175367766Y-69715229D01*
X175587818Y-69759000D01*
X175812182Y-69759000D01*
X176032234Y-69715229D01*
X176239519Y-69629369D01*
X176426070Y-69504719D01*
X176584719Y-69346070D01*
X176709369Y-69159519D01*
X176795229Y-68952234D01*
X176839000Y-68732182D01*
X176839000Y-68507818D01*
X176795229Y-68287766D01*
X176709369Y-68080481D01*
X176584719Y-67893930D01*
X176426070Y-67735281D01*
X176239519Y-67610631D01*
X176032234Y-67524771D01*
X175812182Y-67481000D01*
X175587818Y-67481000D01*
X175367766Y-67524771D01*
X175160481Y-67610631D01*
X174973930Y-67735281D01*
X174815281Y-67893930D01*
X174690631Y-68080481D01*
X174604771Y-68287766D01*
X174561000Y-68507818D01*
X172708000Y-68507818D01*
X172708000Y-65967818D01*
X174561000Y-65967818D01*
X174561000Y-66192182D01*
X174604771Y-66412234D01*
X174690631Y-66619519D01*
X174815281Y-66806070D01*
X174973930Y-66964719D01*
X175160481Y-67089369D01*
X175367766Y-67175229D01*
X175587818Y-67219000D01*
X175812182Y-67219000D01*
X176032234Y-67175229D01*
X176239519Y-67089369D01*
X176426070Y-66964719D01*
X176584719Y-66806070D01*
X176709369Y-66619519D01*
X176795229Y-66412234D01*
X176839000Y-66192182D01*
X176839000Y-65967818D01*
X176795229Y-65747766D01*
X176709369Y-65540481D01*
X176584719Y-65353930D01*
X176426070Y-65195281D01*
X176239519Y-65070631D01*
X176032234Y-64984771D01*
X175812182Y-64941000D01*
X175778058Y-64941000D01*
X176044133Y-64900922D01*
X176303023Y-64807636D01*
X176418980Y-64745656D01*
X176485960Y-64505565D01*
X175700000Y-63719605D01*
X174914040Y-64505565D01*
X174981020Y-64745656D01*
X175230048Y-64862756D01*
X175497135Y-64929023D01*
X175752607Y-64941000D01*
X175587818Y-64941000D01*
X175367766Y-64984771D01*
X175160481Y-65070631D01*
X174973930Y-65195281D01*
X174815281Y-65353930D01*
X174690631Y-65540481D01*
X174604771Y-65747766D01*
X174561000Y-65967818D01*
X172708000Y-65967818D01*
X172708000Y-63228265D01*
X173325265Y-62611000D01*
X174644654Y-62611000D01*
X174618023Y-62637631D01*
X174734433Y-62754041D01*
X174494344Y-62821020D01*
X174377244Y-63070048D01*
X174310977Y-63337135D01*
X174298090Y-63612017D01*
X174339078Y-63884133D01*
X174432364Y-64143023D01*
X174494344Y-64258980D01*
X174734435Y-64325960D01*
X175520395Y-63540000D01*
X175506253Y-63525858D01*
X175685858Y-63346253D01*
X175700000Y-63360395D01*
X175714143Y-63346253D01*
X175893748Y-63525858D01*
X175879605Y-63540000D01*
X176665565Y-64325960D01*
X176905656Y-64258980D01*
X177022756Y-64009952D01*
X177089023Y-63742865D01*
X177101910Y-63467983D01*
X177060922Y-63195867D01*
X176967636Y-62936977D01*
X176905656Y-62821020D01*
X176665567Y-62754041D01*
X176781977Y-62637631D01*
X176755346Y-62611000D01*
X179832000Y-62611000D01*
X179856776Y-62608560D01*
X179880601Y-62601333D01*
X179902557Y-62589597D01*
X179921803Y-62573803D01*
X179937597Y-62554557D01*
X179949333Y-62532601D01*
X179956560Y-62508776D01*
X179959000Y-62484000D01*
X179959000Y-56515000D01*
X198501000Y-56515000D01*
X198501000Y-64008000D01*
X198503440Y-64032776D01*
X198510667Y-64056601D01*
X198522403Y-64078557D01*
X198538197Y-64097803D01*
X198557443Y-64113597D01*
X198579399Y-64125333D01*
X198603224Y-64132560D01*
X198628000Y-64135000D01*
X207645000Y-64135000D01*
X207645000Y-117438232D01*
X207613580Y-117406812D01*
X207498373Y-117522019D01*
X207378486Y-117237164D01*
X207054790Y-117076301D01*
X206705931Y-116981678D01*
X206345316Y-116956933D01*
X205986802Y-117003015D01*
X205644167Y-117118154D01*
X205421514Y-117237164D01*
X205301626Y-117522020D01*
X206400000Y-118620395D01*
X206414142Y-118606252D01*
X206593748Y-118785858D01*
X206579605Y-118800000D01*
X206593748Y-118814142D01*
X206414142Y-118993748D01*
X206400000Y-118979605D01*
X205301626Y-120077980D01*
X205421514Y-120362836D01*
X205745210Y-120523699D01*
X206094069Y-120618322D01*
X206454684Y-120643067D01*
X206813198Y-120596985D01*
X207155833Y-120481846D01*
X207378486Y-120362836D01*
X207498373Y-120077981D01*
X207613580Y-120193188D01*
X207645000Y-120161768D01*
X207645000Y-126365000D01*
X206538089Y-126365000D01*
X206660044Y-126299814D01*
X206755808Y-126035413D01*
X205800000Y-125079605D01*
X204844192Y-126035413D01*
X204939956Y-126299814D01*
X205073953Y-126365000D01*
X186944000Y-126365000D01*
X186919224Y-126367440D01*
X186895399Y-126374667D01*
X186873443Y-126386403D01*
X186854197Y-126402197D01*
X186838403Y-126421443D01*
X186826667Y-126443399D01*
X186819440Y-126467224D01*
X186817000Y-126492000D01*
X186817000Y-127408393D01*
X186713097Y-127512296D01*
X186641514Y-127268329D01*
X186386004Y-127147429D01*
X186111816Y-127078700D01*
X185829488Y-127064783D01*
X185549870Y-127106213D01*
X185283708Y-127201397D01*
X185158486Y-127268329D01*
X185086903Y-127512298D01*
X185900000Y-128325395D01*
X185914143Y-128311253D01*
X186093748Y-128490858D01*
X186079605Y-128505000D01*
X186093748Y-128519143D01*
X185914143Y-128698748D01*
X185900000Y-128684605D01*
X185086903Y-129497702D01*
X185158486Y-129741671D01*
X185413996Y-129862571D01*
X185688184Y-129931300D01*
X185970512Y-129945217D01*
X186250130Y-129903787D01*
X186516292Y-129808603D01*
X186641514Y-129741671D01*
X186713097Y-129497704D01*
X186817000Y-129601607D01*
X186817000Y-130429000D01*
X164131718Y-130429000D01*
X163012592Y-129449764D01*
X169829841Y-129449764D01*
X169877148Y-129673348D01*
X170098516Y-129774237D01*
X170335313Y-129830000D01*
X170578438Y-129838495D01*
X170818549Y-129799395D01*
X171046418Y-129714202D01*
X171122852Y-129673348D01*
X171170159Y-129449764D01*
X175629841Y-129449764D01*
X175677148Y-129673348D01*
X175898516Y-129774237D01*
X176135313Y-129830000D01*
X176378438Y-129838495D01*
X176618549Y-129799395D01*
X176846418Y-129714202D01*
X176922852Y-129673348D01*
X176970159Y-129449764D01*
X176870159Y-129349764D01*
X180729841Y-129349764D01*
X180777148Y-129573348D01*
X180998516Y-129674237D01*
X181235313Y-129730000D01*
X181478438Y-129738495D01*
X181718549Y-129699395D01*
X181946418Y-129614202D01*
X182022852Y-129573348D01*
X182070159Y-129349764D01*
X181400000Y-128679605D01*
X180729841Y-129349764D01*
X176870159Y-129349764D01*
X176300000Y-128779605D01*
X175629841Y-129449764D01*
X171170159Y-129449764D01*
X170500000Y-128779605D01*
X169829841Y-129449764D01*
X163012592Y-129449764D01*
X162131076Y-128678438D01*
X169261505Y-128678438D01*
X169300605Y-128918549D01*
X169385798Y-129146418D01*
X169426652Y-129222852D01*
X169650236Y-129270159D01*
X170320395Y-128600000D01*
X170679605Y-128600000D01*
X171349764Y-129270159D01*
X171573348Y-129222852D01*
X171674237Y-129001484D01*
X171730000Y-128764687D01*
X171733013Y-128678438D01*
X175061505Y-128678438D01*
X175100605Y-128918549D01*
X175185798Y-129146418D01*
X175226652Y-129222852D01*
X175450236Y-129270159D01*
X176120395Y-128600000D01*
X176479605Y-128600000D01*
X177149764Y-129270159D01*
X177373348Y-129222852D01*
X177474237Y-129001484D01*
X177530000Y-128764687D01*
X177536507Y-128578438D01*
X180161505Y-128578438D01*
X180200605Y-128818549D01*
X180285798Y-129046418D01*
X180326652Y-129122852D01*
X180550236Y-129170159D01*
X181220395Y-128500000D01*
X181579605Y-128500000D01*
X182249764Y-129170159D01*
X182473348Y-129122852D01*
X182574237Y-128901484D01*
X182630000Y-128664687D01*
X182633115Y-128575512D01*
X184459783Y-128575512D01*
X184501213Y-128855130D01*
X184596397Y-129121292D01*
X184663329Y-129246514D01*
X184907298Y-129318097D01*
X185720395Y-128505000D01*
X184907298Y-127691903D01*
X184663329Y-127763486D01*
X184542429Y-128018996D01*
X184473700Y-128293184D01*
X184459783Y-128575512D01*
X182633115Y-128575512D01*
X182638495Y-128421562D01*
X182599395Y-128181451D01*
X182514202Y-127953582D01*
X182473348Y-127877148D01*
X182249764Y-127829841D01*
X181579605Y-128500000D01*
X181220395Y-128500000D01*
X180550236Y-127829841D01*
X180326652Y-127877148D01*
X180225763Y-128098516D01*
X180170000Y-128335313D01*
X180161505Y-128578438D01*
X177536507Y-128578438D01*
X177538495Y-128521562D01*
X177499395Y-128281451D01*
X177414202Y-128053582D01*
X177373348Y-127977148D01*
X177149764Y-127929841D01*
X176479605Y-128600000D01*
X176120395Y-128600000D01*
X175450236Y-127929841D01*
X175226652Y-127977148D01*
X175125763Y-128198516D01*
X175070000Y-128435313D01*
X175061505Y-128678438D01*
X171733013Y-128678438D01*
X171738495Y-128521562D01*
X171699395Y-128281451D01*
X171614202Y-128053582D01*
X171573348Y-127977148D01*
X171349764Y-127929841D01*
X170679605Y-128600000D01*
X170320395Y-128600000D01*
X169650236Y-127929841D01*
X169426652Y-127977148D01*
X169325763Y-128198516D01*
X169270000Y-128435313D01*
X169261505Y-128678438D01*
X162131076Y-128678438D01*
X160103630Y-126904423D01*
X160083377Y-126889944D01*
X160060688Y-126879694D01*
X160036436Y-126874068D01*
X160020000Y-126873000D01*
X150876000Y-126873000D01*
X150851224Y-126875440D01*
X150825972Y-126883269D01*
X143713972Y-129931269D01*
X143692160Y-129943271D01*
X143673109Y-129959299D01*
X143657551Y-129978735D01*
X143646083Y-130000833D01*
X143639147Y-130024744D01*
X143637000Y-130048000D01*
X143637000Y-138557000D01*
X120015000Y-138557000D01*
X120015000Y-128524000D01*
X120012560Y-128499224D01*
X120005333Y-128475399D01*
X119993597Y-128453443D01*
X119977803Y-128434197D01*
X119958557Y-128418403D01*
X119936601Y-128406667D01*
X119912776Y-128399440D01*
X119888000Y-128397000D01*
X116495359Y-128397000D01*
X116551185Y-128351185D01*
X116630537Y-128254494D01*
X116689502Y-128144180D01*
X116725812Y-128024482D01*
X116738072Y-127900000D01*
X116735000Y-126685750D01*
X116576250Y-126527000D01*
X114727000Y-126527000D01*
X114727000Y-126547000D01*
X114473000Y-126547000D01*
X114473000Y-126527000D01*
X114453000Y-126527000D01*
X114453000Y-126273000D01*
X114473000Y-126273000D01*
X114473000Y-126253000D01*
X114727000Y-126253000D01*
X114727000Y-126273000D01*
X116576250Y-126273000D01*
X116735000Y-126114250D01*
X116735289Y-126000000D01*
X169521176Y-126000000D01*
X169521176Y-127200000D01*
X169528455Y-127273905D01*
X169550012Y-127344970D01*
X169585019Y-127410463D01*
X169632131Y-127467869D01*
X169689537Y-127514981D01*
X169755030Y-127549988D01*
X169826095Y-127571545D01*
X169866801Y-127575554D01*
X169829841Y-127750236D01*
X170500000Y-128420395D01*
X171170159Y-127750236D01*
X171133199Y-127575554D01*
X171173905Y-127571545D01*
X171244970Y-127549988D01*
X171310463Y-127514981D01*
X171367869Y-127467869D01*
X171414981Y-127410463D01*
X171449988Y-127344970D01*
X171471545Y-127273905D01*
X171478824Y-127200000D01*
X171478824Y-126000000D01*
X175321176Y-126000000D01*
X175321176Y-127200000D01*
X175328455Y-127273905D01*
X175350012Y-127344970D01*
X175385019Y-127410463D01*
X175432131Y-127467869D01*
X175489537Y-127514981D01*
X175555030Y-127549988D01*
X175626095Y-127571545D01*
X175666801Y-127575554D01*
X175629841Y-127750236D01*
X176300000Y-128420395D01*
X176970159Y-127750236D01*
X176933199Y-127575554D01*
X176973905Y-127571545D01*
X177044970Y-127549988D01*
X177110463Y-127514981D01*
X177167869Y-127467869D01*
X177214981Y-127410463D01*
X177249988Y-127344970D01*
X177271545Y-127273905D01*
X177278824Y-127200000D01*
X177278824Y-126000000D01*
X177271545Y-125926095D01*
X177263630Y-125900000D01*
X180421176Y-125900000D01*
X180421176Y-127100000D01*
X180428455Y-127173905D01*
X180450012Y-127244970D01*
X180485019Y-127310463D01*
X180532131Y-127367869D01*
X180589537Y-127414981D01*
X180655030Y-127449988D01*
X180726095Y-127471545D01*
X180766801Y-127475554D01*
X180729841Y-127650236D01*
X181400000Y-128320395D01*
X182070159Y-127650236D01*
X182033199Y-127475554D01*
X182073905Y-127471545D01*
X182144970Y-127449988D01*
X182210463Y-127414981D01*
X182267869Y-127367869D01*
X182314981Y-127310463D01*
X182349988Y-127244970D01*
X182371545Y-127173905D01*
X182378824Y-127100000D01*
X182378824Y-125900000D01*
X182371545Y-125826095D01*
X182349988Y-125755030D01*
X182314981Y-125689537D01*
X182267869Y-125632131D01*
X182210463Y-125585019D01*
X182144970Y-125550012D01*
X182073905Y-125528455D01*
X182000000Y-125521176D01*
X180800000Y-125521176D01*
X180726095Y-125528455D01*
X180655030Y-125550012D01*
X180589537Y-125585019D01*
X180532131Y-125632131D01*
X180485019Y-125689537D01*
X180450012Y-125755030D01*
X180428455Y-125826095D01*
X180421176Y-125900000D01*
X177263630Y-125900000D01*
X177249988Y-125855030D01*
X177214981Y-125789537D01*
X177167869Y-125732131D01*
X177110463Y-125685019D01*
X177044970Y-125650012D01*
X176973905Y-125628455D01*
X176900000Y-125621176D01*
X175700000Y-125621176D01*
X175626095Y-125628455D01*
X175555030Y-125650012D01*
X175489537Y-125685019D01*
X175432131Y-125732131D01*
X175385019Y-125789537D01*
X175350012Y-125855030D01*
X175328455Y-125926095D01*
X175321176Y-126000000D01*
X171478824Y-126000000D01*
X171471545Y-125926095D01*
X171449988Y-125855030D01*
X171414981Y-125789537D01*
X171367869Y-125732131D01*
X171310463Y-125685019D01*
X171244970Y-125650012D01*
X171173905Y-125628455D01*
X171100000Y-125621176D01*
X169900000Y-125621176D01*
X169826095Y-125628455D01*
X169755030Y-125650012D01*
X169689537Y-125685019D01*
X169632131Y-125732131D01*
X169585019Y-125789537D01*
X169550012Y-125855030D01*
X169528455Y-125926095D01*
X169521176Y-126000000D01*
X116735289Y-126000000D01*
X116738072Y-124900000D01*
X116725812Y-124775518D01*
X116689502Y-124655820D01*
X116652716Y-124587000D01*
X119888000Y-124587000D01*
X119912776Y-124584560D01*
X119936601Y-124577333D01*
X119958557Y-124565597D01*
X119977803Y-124549803D01*
X119993597Y-124530557D01*
X120005333Y-124508601D01*
X120012560Y-124484776D01*
X120015000Y-124460000D01*
X120015000Y-124385413D01*
X129294192Y-124385413D01*
X129389956Y-124649814D01*
X129679571Y-124790704D01*
X129991108Y-124872384D01*
X130312595Y-124891718D01*
X130631675Y-124847961D01*
X130936088Y-124742795D01*
X131110044Y-124649814D01*
X131205808Y-124385413D01*
X130250000Y-123429605D01*
X129294192Y-124385413D01*
X120015000Y-124385413D01*
X120015000Y-123312595D01*
X128608282Y-123312595D01*
X128652039Y-123631675D01*
X128757205Y-123936088D01*
X128850186Y-124110044D01*
X129114587Y-124205808D01*
X130070395Y-123250000D01*
X130429605Y-123250000D01*
X131385413Y-124205808D01*
X131649814Y-124110044D01*
X131790704Y-123820429D01*
X131872384Y-123508892D01*
X131891718Y-123187405D01*
X131881704Y-123114377D01*
X133373000Y-123114377D01*
X133373000Y-123385623D01*
X133425917Y-123651656D01*
X133529718Y-123902254D01*
X133680414Y-124127787D01*
X133872213Y-124319586D01*
X134097746Y-124470282D01*
X134348344Y-124574083D01*
X134614377Y-124627000D01*
X134885623Y-124627000D01*
X135151656Y-124574083D01*
X135402254Y-124470282D01*
X135529269Y-124385413D01*
X140044192Y-124385413D01*
X140139956Y-124649814D01*
X140429571Y-124790704D01*
X140741108Y-124872384D01*
X141062595Y-124891718D01*
X141381675Y-124847961D01*
X141623616Y-124764377D01*
X194423000Y-124764377D01*
X194423000Y-125035623D01*
X194475917Y-125301656D01*
X194579718Y-125552254D01*
X194730414Y-125777787D01*
X194922213Y-125969586D01*
X195147746Y-126120282D01*
X195398344Y-126224083D01*
X195664377Y-126277000D01*
X195935623Y-126277000D01*
X196201656Y-126224083D01*
X196452254Y-126120282D01*
X196677787Y-125969586D01*
X196869586Y-125777787D01*
X197020282Y-125552254D01*
X197124083Y-125301656D01*
X197177000Y-125035623D01*
X197177000Y-124962595D01*
X204158282Y-124962595D01*
X204202039Y-125281675D01*
X204307205Y-125586088D01*
X204400186Y-125760044D01*
X204664587Y-125855808D01*
X205620395Y-124900000D01*
X205979605Y-124900000D01*
X206935413Y-125855808D01*
X207199814Y-125760044D01*
X207340704Y-125470429D01*
X207422384Y-125158892D01*
X207441718Y-124837405D01*
X207397961Y-124518325D01*
X207292795Y-124213912D01*
X207199814Y-124039956D01*
X206935413Y-123944192D01*
X205979605Y-124900000D01*
X205620395Y-124900000D01*
X204664587Y-123944192D01*
X204400186Y-124039956D01*
X204259296Y-124329571D01*
X204177616Y-124641108D01*
X204158282Y-124962595D01*
X197177000Y-124962595D01*
X197177000Y-124764377D01*
X197124083Y-124498344D01*
X197020282Y-124247746D01*
X196869586Y-124022213D01*
X196677787Y-123830414D01*
X196579270Y-123764587D01*
X204844192Y-123764587D01*
X205800000Y-124720395D01*
X206755808Y-123764587D01*
X206660044Y-123500186D01*
X206370429Y-123359296D01*
X206058892Y-123277616D01*
X205737405Y-123258282D01*
X205418325Y-123302039D01*
X205113912Y-123407205D01*
X204939956Y-123500186D01*
X204844192Y-123764587D01*
X196579270Y-123764587D01*
X196452254Y-123679718D01*
X196201656Y-123575917D01*
X195935623Y-123523000D01*
X195664377Y-123523000D01*
X195398344Y-123575917D01*
X195147746Y-123679718D01*
X194922213Y-123830414D01*
X194730414Y-124022213D01*
X194579718Y-124247746D01*
X194475917Y-124498344D01*
X194423000Y-124764377D01*
X141623616Y-124764377D01*
X141686088Y-124742795D01*
X141860044Y-124649814D01*
X141955808Y-124385413D01*
X141000000Y-123429605D01*
X140044192Y-124385413D01*
X135529269Y-124385413D01*
X135627787Y-124319586D01*
X135819586Y-124127787D01*
X135970282Y-123902254D01*
X136074083Y-123651656D01*
X136127000Y-123385623D01*
X136127000Y-123312595D01*
X139358282Y-123312595D01*
X139402039Y-123631675D01*
X139507205Y-123936088D01*
X139600186Y-124110044D01*
X139864587Y-124205808D01*
X140820395Y-123250000D01*
X141179605Y-123250000D01*
X142135413Y-124205808D01*
X142399814Y-124110044D01*
X142540704Y-123820429D01*
X142622384Y-123508892D01*
X142641718Y-123187405D01*
X142631704Y-123114377D01*
X144123000Y-123114377D01*
X144123000Y-123385623D01*
X144175917Y-123651656D01*
X144279718Y-123902254D01*
X144430414Y-124127787D01*
X144622213Y-124319586D01*
X144847746Y-124470282D01*
X145098344Y-124574083D01*
X145364377Y-124627000D01*
X145635623Y-124627000D01*
X145901656Y-124574083D01*
X146152254Y-124470282D01*
X146377787Y-124319586D01*
X146569586Y-124127787D01*
X146720282Y-123902254D01*
X146824083Y-123651656D01*
X146877000Y-123385623D01*
X146877000Y-123114377D01*
X146826297Y-122859472D01*
X173975000Y-122859472D01*
X173975000Y-123012528D01*
X174004859Y-123162643D01*
X174063431Y-123304048D01*
X174148464Y-123431309D01*
X174256691Y-123539536D01*
X174383952Y-123624569D01*
X174525357Y-123683141D01*
X174675472Y-123713000D01*
X174828528Y-123713000D01*
X174978643Y-123683141D01*
X175120048Y-123624569D01*
X175247309Y-123539536D01*
X175355536Y-123431309D01*
X175440569Y-123304048D01*
X175499141Y-123162643D01*
X175529000Y-123012528D01*
X175529000Y-122859472D01*
X179055000Y-122859472D01*
X179055000Y-123012528D01*
X179084859Y-123162643D01*
X179143431Y-123304048D01*
X179228464Y-123431309D01*
X179336691Y-123539536D01*
X179463952Y-123624569D01*
X179605357Y-123683141D01*
X179755472Y-123713000D01*
X179908528Y-123713000D01*
X180058643Y-123683141D01*
X180200048Y-123624569D01*
X180327309Y-123539536D01*
X180435536Y-123431309D01*
X180520569Y-123304048D01*
X180579141Y-123162643D01*
X180609000Y-123012528D01*
X180609000Y-122859472D01*
X180579141Y-122709357D01*
X180520569Y-122567952D01*
X180435536Y-122440691D01*
X180327309Y-122332464D01*
X180200048Y-122247431D01*
X180058643Y-122188859D01*
X179908528Y-122159000D01*
X179755472Y-122159000D01*
X179605357Y-122188859D01*
X179463952Y-122247431D01*
X179336691Y-122332464D01*
X179228464Y-122440691D01*
X179143431Y-122567952D01*
X179084859Y-122709357D01*
X179055000Y-122859472D01*
X175529000Y-122859472D01*
X175499141Y-122709357D01*
X175440569Y-122567952D01*
X175355536Y-122440691D01*
X175247309Y-122332464D01*
X175120048Y-122247431D01*
X174978643Y-122188859D01*
X174828528Y-122159000D01*
X174675472Y-122159000D01*
X174525357Y-122188859D01*
X174383952Y-122247431D01*
X174256691Y-122332464D01*
X174148464Y-122440691D01*
X174063431Y-122567952D01*
X174004859Y-122709357D01*
X173975000Y-122859472D01*
X146826297Y-122859472D01*
X146824083Y-122848344D01*
X146720282Y-122597746D01*
X146569586Y-122372213D01*
X146377787Y-122180414D01*
X146152254Y-122029718D01*
X145901656Y-121925917D01*
X145635623Y-121873000D01*
X145364377Y-121873000D01*
X145098344Y-121925917D01*
X144847746Y-122029718D01*
X144622213Y-122180414D01*
X144430414Y-122372213D01*
X144279718Y-122597746D01*
X144175917Y-122848344D01*
X144123000Y-123114377D01*
X142631704Y-123114377D01*
X142597961Y-122868325D01*
X142492795Y-122563912D01*
X142399814Y-122389956D01*
X142135413Y-122294192D01*
X141179605Y-123250000D01*
X140820395Y-123250000D01*
X139864587Y-122294192D01*
X139600186Y-122389956D01*
X139459296Y-122679571D01*
X139377616Y-122991108D01*
X139358282Y-123312595D01*
X136127000Y-123312595D01*
X136127000Y-123114377D01*
X136074083Y-122848344D01*
X135970282Y-122597746D01*
X135819586Y-122372213D01*
X135627787Y-122180414D01*
X135529270Y-122114587D01*
X140044192Y-122114587D01*
X141000000Y-123070395D01*
X141955808Y-122114587D01*
X141860044Y-121850186D01*
X141570429Y-121709296D01*
X141258892Y-121627616D01*
X140937405Y-121608282D01*
X140618325Y-121652039D01*
X140313912Y-121757205D01*
X140139956Y-121850186D01*
X140044192Y-122114587D01*
X135529270Y-122114587D01*
X135402254Y-122029718D01*
X135151656Y-121925917D01*
X134885623Y-121873000D01*
X134614377Y-121873000D01*
X134348344Y-121925917D01*
X134097746Y-122029718D01*
X133872213Y-122180414D01*
X133680414Y-122372213D01*
X133529718Y-122597746D01*
X133425917Y-122848344D01*
X133373000Y-123114377D01*
X131881704Y-123114377D01*
X131847961Y-122868325D01*
X131742795Y-122563912D01*
X131649814Y-122389956D01*
X131385413Y-122294192D01*
X130429605Y-123250000D01*
X130070395Y-123250000D01*
X129114587Y-122294192D01*
X128850186Y-122389956D01*
X128709296Y-122679571D01*
X128627616Y-122991108D01*
X128608282Y-123312595D01*
X120015000Y-123312595D01*
X120015000Y-122114587D01*
X129294192Y-122114587D01*
X130250000Y-123070395D01*
X131205808Y-122114587D01*
X131110044Y-121850186D01*
X130820429Y-121709296D01*
X130508892Y-121627616D01*
X130187405Y-121608282D01*
X129868325Y-121652039D01*
X129563912Y-121757205D01*
X129389956Y-121850186D01*
X129294192Y-122114587D01*
X120015000Y-122114587D01*
X120015000Y-119811472D01*
X173975000Y-119811472D01*
X173975000Y-119964528D01*
X174004859Y-120114643D01*
X174063431Y-120256048D01*
X174148464Y-120383309D01*
X174256691Y-120491536D01*
X174383952Y-120576569D01*
X174525357Y-120635141D01*
X174675472Y-120665000D01*
X174828528Y-120665000D01*
X174978643Y-120635141D01*
X175120048Y-120576569D01*
X175247309Y-120491536D01*
X175355536Y-120383309D01*
X175440569Y-120256048D01*
X175499141Y-120114643D01*
X175529000Y-119964528D01*
X175529000Y-119811472D01*
X175499141Y-119661357D01*
X175440569Y-119519952D01*
X175355536Y-119392691D01*
X175247309Y-119284464D01*
X175120048Y-119199431D01*
X174978643Y-119140859D01*
X174828528Y-119111000D01*
X174675472Y-119111000D01*
X174525357Y-119140859D01*
X174383952Y-119199431D01*
X174256691Y-119284464D01*
X174148464Y-119392691D01*
X174063431Y-119519952D01*
X174004859Y-119661357D01*
X173975000Y-119811472D01*
X120015000Y-119811472D01*
X120015000Y-117885413D01*
X129294192Y-117885413D01*
X129389956Y-118149814D01*
X129679571Y-118290704D01*
X129991108Y-118372384D01*
X130312595Y-118391718D01*
X130631675Y-118347961D01*
X130936088Y-118242795D01*
X131110044Y-118149814D01*
X131205808Y-117885413D01*
X130250000Y-116929605D01*
X129294192Y-117885413D01*
X120015000Y-117885413D01*
X120015000Y-116812595D01*
X128608282Y-116812595D01*
X128652039Y-117131675D01*
X128757205Y-117436088D01*
X128850186Y-117610044D01*
X129114587Y-117705808D01*
X130070395Y-116750000D01*
X130429605Y-116750000D01*
X131385413Y-117705808D01*
X131649814Y-117610044D01*
X131790704Y-117320429D01*
X131872384Y-117008892D01*
X131891718Y-116687405D01*
X131881704Y-116614377D01*
X133373000Y-116614377D01*
X133373000Y-116885623D01*
X133425917Y-117151656D01*
X133529718Y-117402254D01*
X133680414Y-117627787D01*
X133872213Y-117819586D01*
X134097746Y-117970282D01*
X134348344Y-118074083D01*
X134614377Y-118127000D01*
X134885623Y-118127000D01*
X135151656Y-118074083D01*
X135402254Y-117970282D01*
X135529269Y-117885413D01*
X140044192Y-117885413D01*
X140139956Y-118149814D01*
X140429571Y-118290704D01*
X140741108Y-118372384D01*
X141062595Y-118391718D01*
X141381675Y-118347961D01*
X141686088Y-118242795D01*
X141860044Y-118149814D01*
X141955808Y-117885413D01*
X141000000Y-116929605D01*
X140044192Y-117885413D01*
X135529269Y-117885413D01*
X135627787Y-117819586D01*
X135819586Y-117627787D01*
X135970282Y-117402254D01*
X136074083Y-117151656D01*
X136127000Y-116885623D01*
X136127000Y-116812595D01*
X139358282Y-116812595D01*
X139402039Y-117131675D01*
X139507205Y-117436088D01*
X139600186Y-117610044D01*
X139864587Y-117705808D01*
X140820395Y-116750000D01*
X141179605Y-116750000D01*
X142135413Y-117705808D01*
X142399814Y-117610044D01*
X142540704Y-117320429D01*
X142622384Y-117008892D01*
X142641718Y-116687405D01*
X142631704Y-116614377D01*
X144123000Y-116614377D01*
X144123000Y-116885623D01*
X144175917Y-117151656D01*
X144279718Y-117402254D01*
X144430414Y-117627787D01*
X144622213Y-117819586D01*
X144847746Y-117970282D01*
X145098344Y-118074083D01*
X145364377Y-118127000D01*
X145635623Y-118127000D01*
X145901656Y-118074083D01*
X146152254Y-117970282D01*
X146377787Y-117819586D01*
X146569586Y-117627787D01*
X146720282Y-117402254D01*
X146824083Y-117151656D01*
X146877000Y-116885623D01*
X146877000Y-116614377D01*
X146824083Y-116348344D01*
X146720282Y-116097746D01*
X146569586Y-115872213D01*
X146377787Y-115680414D01*
X146152254Y-115529718D01*
X145901656Y-115425917D01*
X145635623Y-115373000D01*
X145364377Y-115373000D01*
X145098344Y-115425917D01*
X144847746Y-115529718D01*
X144622213Y-115680414D01*
X144430414Y-115872213D01*
X144279718Y-116097746D01*
X144175917Y-116348344D01*
X144123000Y-116614377D01*
X142631704Y-116614377D01*
X142597961Y-116368325D01*
X142492795Y-116063912D01*
X142399814Y-115889956D01*
X142135413Y-115794192D01*
X141179605Y-116750000D01*
X140820395Y-116750000D01*
X139864587Y-115794192D01*
X139600186Y-115889956D01*
X139459296Y-116179571D01*
X139377616Y-116491108D01*
X139358282Y-116812595D01*
X136127000Y-116812595D01*
X136127000Y-116614377D01*
X136074083Y-116348344D01*
X135970282Y-116097746D01*
X135819586Y-115872213D01*
X135627787Y-115680414D01*
X135529270Y-115614587D01*
X140044192Y-115614587D01*
X141000000Y-116570395D01*
X141955808Y-115614587D01*
X141860044Y-115350186D01*
X141570429Y-115209296D01*
X141258892Y-115127616D01*
X140937405Y-115108282D01*
X140618325Y-115152039D01*
X140313912Y-115257205D01*
X140139956Y-115350186D01*
X140044192Y-115614587D01*
X135529270Y-115614587D01*
X135402254Y-115529718D01*
X135151656Y-115425917D01*
X134885623Y-115373000D01*
X134614377Y-115373000D01*
X134348344Y-115425917D01*
X134097746Y-115529718D01*
X133872213Y-115680414D01*
X133680414Y-115872213D01*
X133529718Y-116097746D01*
X133425917Y-116348344D01*
X133373000Y-116614377D01*
X131881704Y-116614377D01*
X131847961Y-116368325D01*
X131742795Y-116063912D01*
X131649814Y-115889956D01*
X131385413Y-115794192D01*
X130429605Y-116750000D01*
X130070395Y-116750000D01*
X129114587Y-115794192D01*
X128850186Y-115889956D01*
X128709296Y-116179571D01*
X128627616Y-116491108D01*
X128608282Y-116812595D01*
X120015000Y-116812595D01*
X120015000Y-115614587D01*
X129294192Y-115614587D01*
X130250000Y-116570395D01*
X131205808Y-115614587D01*
X131110044Y-115350186D01*
X130820429Y-115209296D01*
X130508892Y-115127616D01*
X130187405Y-115108282D01*
X129868325Y-115152039D01*
X129563912Y-115257205D01*
X129389956Y-115350186D01*
X129294192Y-115614587D01*
X120015000Y-115614587D01*
X120015000Y-112268000D01*
X120012560Y-112243224D01*
X120005333Y-112219399D01*
X119993597Y-112197443D01*
X119977803Y-112178197D01*
X119958557Y-112162403D01*
X119936601Y-112150667D01*
X119912776Y-112143440D01*
X119888000Y-112141000D01*
X116720801Y-112141000D01*
X116725812Y-112124482D01*
X116738072Y-112000000D01*
X116735023Y-110794472D01*
X130160000Y-110794472D01*
X130160000Y-110947528D01*
X130189859Y-111097643D01*
X130248431Y-111239048D01*
X130333464Y-111366309D01*
X130441691Y-111474536D01*
X130568952Y-111559569D01*
X130710357Y-111618141D01*
X130860472Y-111648000D01*
X131013528Y-111648000D01*
X131163643Y-111618141D01*
X131305048Y-111559569D01*
X131432309Y-111474536D01*
X131540536Y-111366309D01*
X131625569Y-111239048D01*
X131684141Y-111097643D01*
X131714000Y-110947528D01*
X131714000Y-110839289D01*
X132552290Y-110001000D01*
X141541155Y-110001000D01*
X141617691Y-110077536D01*
X141744952Y-110162569D01*
X141886357Y-110221141D01*
X142036472Y-110251000D01*
X142189528Y-110251000D01*
X142339643Y-110221141D01*
X142481048Y-110162569D01*
X142608309Y-110077536D01*
X142716536Y-109969309D01*
X142801569Y-109842048D01*
X142860141Y-109700643D01*
X142890000Y-109550528D01*
X142890000Y-109397472D01*
X142860141Y-109247357D01*
X142801569Y-109105952D01*
X142716536Y-108978691D01*
X142640000Y-108902155D01*
X142640000Y-96447818D01*
X149161000Y-96447818D01*
X149161000Y-96672182D01*
X149204771Y-96892234D01*
X149290631Y-97099519D01*
X149415281Y-97286070D01*
X149573930Y-97444719D01*
X149760481Y-97569369D01*
X149967766Y-97655229D01*
X150187818Y-97699000D01*
X150412182Y-97699000D01*
X150632234Y-97655229D01*
X150839519Y-97569369D01*
X151026070Y-97444719D01*
X151184719Y-97286070D01*
X151309369Y-97099519D01*
X151395229Y-96892234D01*
X151439000Y-96672182D01*
X151439000Y-96447818D01*
X151395229Y-96227766D01*
X151309369Y-96020481D01*
X151184719Y-95833930D01*
X151026070Y-95675281D01*
X150839519Y-95550631D01*
X150632234Y-95464771D01*
X150412182Y-95421000D01*
X150187818Y-95421000D01*
X149967766Y-95464771D01*
X149760481Y-95550631D01*
X149573930Y-95675281D01*
X149415281Y-95833930D01*
X149290631Y-96020481D01*
X149204771Y-96227766D01*
X149161000Y-96447818D01*
X142640000Y-96447818D01*
X142640000Y-94579289D01*
X143311471Y-93907818D01*
X149161000Y-93907818D01*
X149161000Y-94132182D01*
X149204771Y-94352234D01*
X149290631Y-94559519D01*
X149415281Y-94746070D01*
X149573930Y-94904719D01*
X149760481Y-95029369D01*
X149967766Y-95115229D01*
X150187818Y-95159000D01*
X150412182Y-95159000D01*
X150632234Y-95115229D01*
X150839519Y-95029369D01*
X151026070Y-94904719D01*
X151184719Y-94746070D01*
X151309369Y-94559519D01*
X151395229Y-94352234D01*
X151439000Y-94132182D01*
X151439000Y-93907818D01*
X151395229Y-93687766D01*
X151309369Y-93480481D01*
X151184719Y-93293930D01*
X151026070Y-93135281D01*
X150839519Y-93010631D01*
X150632234Y-92924771D01*
X150412182Y-92881000D01*
X150187818Y-92881000D01*
X149967766Y-92924771D01*
X149760481Y-93010631D01*
X149573930Y-93135281D01*
X149415281Y-93293930D01*
X149290631Y-93480481D01*
X149204771Y-93687766D01*
X149161000Y-93907818D01*
X143311471Y-93907818D01*
X144113290Y-93106000D01*
X144221528Y-93106000D01*
X144371643Y-93076141D01*
X144513048Y-93017569D01*
X144640309Y-92932536D01*
X144748536Y-92824309D01*
X144833569Y-92697048D01*
X144892141Y-92555643D01*
X144922000Y-92405528D01*
X144922000Y-92252472D01*
X144892141Y-92102357D01*
X144833569Y-91960952D01*
X144748536Y-91833691D01*
X144640309Y-91725464D01*
X144513048Y-91640431D01*
X144371643Y-91581859D01*
X144221528Y-91552000D01*
X144203399Y-91552000D01*
X144058149Y-91367818D01*
X149161000Y-91367818D01*
X149161000Y-91592182D01*
X149204771Y-91812234D01*
X149290631Y-92019519D01*
X149415281Y-92206070D01*
X149573930Y-92364719D01*
X149760481Y-92489369D01*
X149967766Y-92575229D01*
X150187818Y-92619000D01*
X150412182Y-92619000D01*
X150632234Y-92575229D01*
X150839519Y-92489369D01*
X151026070Y-92364719D01*
X151184719Y-92206070D01*
X151309369Y-92019519D01*
X151395229Y-91812234D01*
X151439000Y-91592182D01*
X151439000Y-91367818D01*
X151395229Y-91147766D01*
X151309369Y-90940481D01*
X151184719Y-90753930D01*
X151026070Y-90595281D01*
X150839519Y-90470631D01*
X150632234Y-90384771D01*
X150412182Y-90341000D01*
X150187818Y-90341000D01*
X149967766Y-90384771D01*
X149760481Y-90470631D01*
X149573930Y-90595281D01*
X149415281Y-90753930D01*
X149290631Y-90940481D01*
X149204771Y-91147766D01*
X149161000Y-91367818D01*
X144058149Y-91367818D01*
X143910000Y-91179962D01*
X143910000Y-88827818D01*
X149161000Y-88827818D01*
X149161000Y-89052182D01*
X149204771Y-89272234D01*
X149290631Y-89479519D01*
X149415281Y-89666070D01*
X149573930Y-89824719D01*
X149760481Y-89949369D01*
X149967766Y-90035229D01*
X150187818Y-90079000D01*
X150412182Y-90079000D01*
X150632234Y-90035229D01*
X150839519Y-89949369D01*
X151026070Y-89824719D01*
X151184719Y-89666070D01*
X151309369Y-89479519D01*
X151395229Y-89272234D01*
X151439000Y-89052182D01*
X151439000Y-88827818D01*
X151395229Y-88607766D01*
X151309369Y-88400481D01*
X151184719Y-88213930D01*
X151026070Y-88055281D01*
X150839519Y-87930631D01*
X150632234Y-87844771D01*
X150412182Y-87801000D01*
X150187818Y-87801000D01*
X149967766Y-87844771D01*
X149760481Y-87930631D01*
X149573930Y-88055281D01*
X149415281Y-88213930D01*
X149290631Y-88400481D01*
X149204771Y-88607766D01*
X149161000Y-88827818D01*
X143910000Y-88827818D01*
X143910000Y-86287818D01*
X149161000Y-86287818D01*
X149161000Y-86512182D01*
X149204771Y-86732234D01*
X149290631Y-86939519D01*
X149415281Y-87126070D01*
X149573930Y-87284719D01*
X149760481Y-87409369D01*
X149967766Y-87495229D01*
X150187818Y-87539000D01*
X150412182Y-87539000D01*
X150632234Y-87495229D01*
X150839519Y-87409369D01*
X151026070Y-87284719D01*
X151184719Y-87126070D01*
X151309369Y-86939519D01*
X151395229Y-86732234D01*
X151439000Y-86512182D01*
X151439000Y-86287818D01*
X151395229Y-86067766D01*
X151309369Y-85860481D01*
X151184719Y-85673930D01*
X151026070Y-85515281D01*
X150839519Y-85390631D01*
X150632234Y-85304771D01*
X150412182Y-85261000D01*
X150187818Y-85261000D01*
X149967766Y-85304771D01*
X149760481Y-85390631D01*
X149573930Y-85515281D01*
X149415281Y-85673930D01*
X149290631Y-85860481D01*
X149204771Y-86067766D01*
X149161000Y-86287818D01*
X143910000Y-86287818D01*
X143910000Y-84137845D01*
X143986536Y-84061309D01*
X144071569Y-83934048D01*
X144130141Y-83792643D01*
X144139057Y-83747818D01*
X149161000Y-83747818D01*
X149161000Y-83972182D01*
X149204771Y-84192234D01*
X149290631Y-84399519D01*
X149415281Y-84586070D01*
X149573930Y-84744719D01*
X149760481Y-84869369D01*
X149967766Y-84955229D01*
X150187818Y-84999000D01*
X150412182Y-84999000D01*
X150632234Y-84955229D01*
X150839519Y-84869369D01*
X151026070Y-84744719D01*
X151184719Y-84586070D01*
X151309369Y-84399519D01*
X151395229Y-84192234D01*
X151439000Y-83972182D01*
X151439000Y-83747818D01*
X151395229Y-83527766D01*
X151309369Y-83320481D01*
X151184719Y-83133930D01*
X151026070Y-82975281D01*
X150839519Y-82850631D01*
X150632234Y-82764771D01*
X150412182Y-82721000D01*
X150187818Y-82721000D01*
X149967766Y-82764771D01*
X149760481Y-82850631D01*
X149573930Y-82975281D01*
X149415281Y-83133930D01*
X149290631Y-83320481D01*
X149204771Y-83527766D01*
X149161000Y-83747818D01*
X144139057Y-83747818D01*
X144160000Y-83642528D01*
X144160000Y-83489472D01*
X144130141Y-83339357D01*
X144071569Y-83197952D01*
X143986536Y-83070691D01*
X143916685Y-83000840D01*
X143937779Y-81207818D01*
X149161000Y-81207818D01*
X149161000Y-81432182D01*
X149204771Y-81652234D01*
X149290631Y-81859519D01*
X149415281Y-82046070D01*
X149573930Y-82204719D01*
X149760481Y-82329369D01*
X149967766Y-82415229D01*
X150187818Y-82459000D01*
X150412182Y-82459000D01*
X150632234Y-82415229D01*
X150839519Y-82329369D01*
X151026070Y-82204719D01*
X151184719Y-82046070D01*
X151309369Y-81859519D01*
X151395229Y-81652234D01*
X151439000Y-81432182D01*
X151439000Y-81207818D01*
X151395229Y-80987766D01*
X151309369Y-80780481D01*
X151184719Y-80593930D01*
X151026070Y-80435281D01*
X150839519Y-80310631D01*
X150632234Y-80224771D01*
X150412182Y-80181000D01*
X150187818Y-80181000D01*
X149967766Y-80224771D01*
X149760481Y-80310631D01*
X149573930Y-80435281D01*
X149415281Y-80593930D01*
X149290631Y-80780481D01*
X149204771Y-80987766D01*
X149161000Y-81207818D01*
X143937779Y-81207818D01*
X143967661Y-78667818D01*
X149161000Y-78667818D01*
X149161000Y-78892182D01*
X149204771Y-79112234D01*
X149290631Y-79319519D01*
X149415281Y-79506070D01*
X149573930Y-79664719D01*
X149760481Y-79789369D01*
X149967766Y-79875229D01*
X150187818Y-79919000D01*
X150412182Y-79919000D01*
X150632234Y-79875229D01*
X150839519Y-79789369D01*
X151026070Y-79664719D01*
X151184719Y-79506070D01*
X151309369Y-79319519D01*
X151395229Y-79112234D01*
X151439000Y-78892182D01*
X151439000Y-78667818D01*
X151395229Y-78447766D01*
X151309369Y-78240481D01*
X151184719Y-78053930D01*
X151026070Y-77895281D01*
X150839519Y-77770631D01*
X150632234Y-77684771D01*
X150412182Y-77641000D01*
X150187818Y-77641000D01*
X149967766Y-77684771D01*
X149760481Y-77770631D01*
X149573930Y-77895281D01*
X149415281Y-78053930D01*
X149290631Y-78240481D01*
X149204771Y-78447766D01*
X149161000Y-78667818D01*
X143967661Y-78667818D01*
X143997543Y-76127818D01*
X149161000Y-76127818D01*
X149161000Y-76352182D01*
X149204771Y-76572234D01*
X149290631Y-76779519D01*
X149415281Y-76966070D01*
X149573930Y-77124719D01*
X149760481Y-77249369D01*
X149967766Y-77335229D01*
X150187818Y-77379000D01*
X150412182Y-77379000D01*
X150632234Y-77335229D01*
X150839519Y-77249369D01*
X151026070Y-77124719D01*
X151184719Y-76966070D01*
X151309369Y-76779519D01*
X151395229Y-76572234D01*
X151439000Y-76352182D01*
X151439000Y-76127818D01*
X151395229Y-75907766D01*
X151309369Y-75700481D01*
X151184719Y-75513930D01*
X151026070Y-75355281D01*
X150839519Y-75230631D01*
X150632234Y-75144771D01*
X150412182Y-75101000D01*
X150187818Y-75101000D01*
X149967766Y-75144771D01*
X149760481Y-75230631D01*
X149573930Y-75355281D01*
X149415281Y-75513930D01*
X149290631Y-75700481D01*
X149204771Y-75907766D01*
X149161000Y-76127818D01*
X143997543Y-76127818D01*
X144027425Y-73587818D01*
X149161000Y-73587818D01*
X149161000Y-73812182D01*
X149204771Y-74032234D01*
X149290631Y-74239519D01*
X149415281Y-74426070D01*
X149573930Y-74584719D01*
X149760481Y-74709369D01*
X149967766Y-74795229D01*
X150187818Y-74839000D01*
X150412182Y-74839000D01*
X150632234Y-74795229D01*
X150839519Y-74709369D01*
X151026070Y-74584719D01*
X151184719Y-74426070D01*
X151309369Y-74239519D01*
X151395229Y-74032234D01*
X151439000Y-73812182D01*
X151439000Y-73587818D01*
X151395229Y-73367766D01*
X151309369Y-73160481D01*
X151184719Y-72973930D01*
X151026070Y-72815281D01*
X150839519Y-72690631D01*
X150632234Y-72604771D01*
X150412182Y-72561000D01*
X150187818Y-72561000D01*
X149967766Y-72604771D01*
X149760481Y-72690631D01*
X149573930Y-72815281D01*
X149415281Y-72973930D01*
X149290631Y-73160481D01*
X149204771Y-73367766D01*
X149161000Y-73587818D01*
X144027425Y-73587818D01*
X144030228Y-73349617D01*
X144113536Y-73266309D01*
X144198569Y-73139048D01*
X144257141Y-72997643D01*
X144287000Y-72847528D01*
X144287000Y-72694472D01*
X144257141Y-72544357D01*
X144198569Y-72402952D01*
X144113536Y-72275691D01*
X144031191Y-72193346D01*
X144019621Y-71047818D01*
X149161000Y-71047818D01*
X149161000Y-71272182D01*
X149204771Y-71492234D01*
X149290631Y-71699519D01*
X149415281Y-71886070D01*
X149573930Y-72044719D01*
X149760481Y-72169369D01*
X149967766Y-72255229D01*
X150187818Y-72299000D01*
X150412182Y-72299000D01*
X150632234Y-72255229D01*
X150839519Y-72169369D01*
X151026070Y-72044719D01*
X151184719Y-71886070D01*
X151309369Y-71699519D01*
X151395229Y-71492234D01*
X151439000Y-71272182D01*
X151439000Y-71047818D01*
X151395229Y-70827766D01*
X151309369Y-70620481D01*
X151184719Y-70433930D01*
X151026070Y-70275281D01*
X150839519Y-70150631D01*
X150632234Y-70064771D01*
X150412182Y-70021000D01*
X150187818Y-70021000D01*
X149967766Y-70064771D01*
X149760481Y-70150631D01*
X149573930Y-70275281D01*
X149415281Y-70433930D01*
X149290631Y-70620481D01*
X149204771Y-70827766D01*
X149161000Y-71047818D01*
X144019621Y-71047818D01*
X143993965Y-68507818D01*
X149161000Y-68507818D01*
X149161000Y-68732182D01*
X149204771Y-68952234D01*
X149290631Y-69159519D01*
X149415281Y-69346070D01*
X149573930Y-69504719D01*
X149760481Y-69629369D01*
X149967766Y-69715229D01*
X150187818Y-69759000D01*
X150412182Y-69759000D01*
X150632234Y-69715229D01*
X150839519Y-69629369D01*
X151026070Y-69504719D01*
X151184719Y-69346070D01*
X151309369Y-69159519D01*
X151395229Y-68952234D01*
X151439000Y-68732182D01*
X151439000Y-68507818D01*
X151395229Y-68287766D01*
X151309369Y-68080481D01*
X151184719Y-67893930D01*
X151026070Y-67735281D01*
X150839519Y-67610631D01*
X150632234Y-67524771D01*
X150412182Y-67481000D01*
X150187818Y-67481000D01*
X149967766Y-67524771D01*
X149760481Y-67610631D01*
X149573930Y-67735281D01*
X149415281Y-67893930D01*
X149290631Y-68080481D01*
X149204771Y-68287766D01*
X149161000Y-68507818D01*
X143993965Y-68507818D01*
X143968308Y-65967818D01*
X149161000Y-65967818D01*
X149161000Y-66192182D01*
X149204771Y-66412234D01*
X149290631Y-66619519D01*
X149415281Y-66806070D01*
X149573930Y-66964719D01*
X149760481Y-67089369D01*
X149967766Y-67175229D01*
X150187818Y-67219000D01*
X150412182Y-67219000D01*
X150632234Y-67175229D01*
X150839519Y-67089369D01*
X151026070Y-66964719D01*
X151184719Y-66806070D01*
X151309369Y-66619519D01*
X151395229Y-66412234D01*
X151439000Y-66192182D01*
X151439000Y-65967818D01*
X151395229Y-65747766D01*
X151309369Y-65540481D01*
X151184719Y-65353930D01*
X151026070Y-65195281D01*
X150839519Y-65070631D01*
X150632234Y-64984771D01*
X150412182Y-64941000D01*
X150378058Y-64941000D01*
X150644133Y-64900922D01*
X150903023Y-64807636D01*
X151018980Y-64745656D01*
X151085960Y-64505565D01*
X150300000Y-63719605D01*
X149514040Y-64505565D01*
X149581020Y-64745656D01*
X149830048Y-64862756D01*
X150097135Y-64929023D01*
X150352607Y-64941000D01*
X150187818Y-64941000D01*
X149967766Y-64984771D01*
X149760481Y-65070631D01*
X149573930Y-65195281D01*
X149415281Y-65353930D01*
X149290631Y-65540481D01*
X149204771Y-65747766D01*
X149161000Y-65967818D01*
X143968308Y-65967818D01*
X143915744Y-60764101D01*
X143986536Y-60693309D01*
X144071569Y-60566048D01*
X144130141Y-60424643D01*
X144160000Y-60274528D01*
X144160000Y-60121472D01*
X144130141Y-59971357D01*
X144071569Y-59829952D01*
X143986536Y-59702691D01*
X143878309Y-59594464D01*
X143751048Y-59509431D01*
X143609643Y-59450859D01*
X143459528Y-59421000D01*
X143306472Y-59421000D01*
X143156357Y-59450859D01*
X143014952Y-59509431D01*
X142887691Y-59594464D01*
X142779464Y-59702691D01*
X142694431Y-59829952D01*
X142635859Y-59971357D01*
X142606000Y-60121472D01*
X142606000Y-60274528D01*
X142635859Y-60424643D01*
X142694431Y-60566048D01*
X142779464Y-60693309D01*
X142861809Y-60775654D01*
X142977256Y-72204899D01*
X142906464Y-72275691D01*
X142821431Y-72402952D01*
X142762859Y-72544357D01*
X142733000Y-72694472D01*
X142733000Y-72847528D01*
X142762859Y-72997643D01*
X142821431Y-73139048D01*
X142906464Y-73266309D01*
X142976315Y-73336160D01*
X142862772Y-82987383D01*
X142779464Y-83070691D01*
X142694431Y-83197952D01*
X142635859Y-83339357D01*
X142606000Y-83489472D01*
X142606000Y-83642528D01*
X142635859Y-83792643D01*
X142694431Y-83934048D01*
X142779464Y-84061309D01*
X142856000Y-84137845D01*
X142856001Y-91357647D01*
X142855091Y-91404403D01*
X142860574Y-91435075D01*
X142863627Y-91466072D01*
X142869686Y-91486044D01*
X142873359Y-91506593D01*
X142884720Y-91535604D01*
X142893762Y-91565412D01*
X142903600Y-91583818D01*
X142911212Y-91603256D01*
X142928013Y-91629492D01*
X142942697Y-91656964D01*
X142972341Y-91693086D01*
X143377162Y-92206411D01*
X143368000Y-92252472D01*
X143368000Y-92360710D01*
X141758666Y-93970045D01*
X141738552Y-93986552D01*
X141672696Y-94066798D01*
X141647333Y-94114250D01*
X141623761Y-94158351D01*
X141593626Y-94257691D01*
X141583451Y-94361000D01*
X141586000Y-94386881D01*
X141586001Y-108902154D01*
X141541155Y-108947000D01*
X132359877Y-108947000D01*
X132333999Y-108944451D01*
X132308121Y-108947000D01*
X132308119Y-108947000D01*
X132230690Y-108954626D01*
X132131350Y-108984761D01*
X132039798Y-109033696D01*
X131959552Y-109099552D01*
X131943049Y-109119661D01*
X130968711Y-110094000D01*
X130860472Y-110094000D01*
X130710357Y-110123859D01*
X130568952Y-110182431D01*
X130441691Y-110267464D01*
X130333464Y-110375691D01*
X130248431Y-110502952D01*
X130189859Y-110644357D01*
X130160000Y-110794472D01*
X116735023Y-110794472D01*
X116735000Y-110785750D01*
X116576250Y-110627000D01*
X114727000Y-110627000D01*
X114727000Y-110647000D01*
X114473000Y-110647000D01*
X114473000Y-110627000D01*
X114453000Y-110627000D01*
X114453000Y-110373000D01*
X114473000Y-110373000D01*
X114473000Y-110353000D01*
X114727000Y-110353000D01*
X114727000Y-110373000D01*
X116576250Y-110373000D01*
X116735000Y-110214250D01*
X116738072Y-109000000D01*
X116725812Y-108875518D01*
X116714734Y-108839000D01*
X119888000Y-108839000D01*
X119912776Y-108836560D01*
X119936601Y-108829333D01*
X119958557Y-108817597D01*
X119977803Y-108801803D01*
X119993597Y-108782557D01*
X120005333Y-108760601D01*
X120012560Y-108736776D01*
X120015000Y-108712000D01*
X120015000Y-97589039D01*
X128358096Y-97589039D01*
X128398754Y-97723087D01*
X128518963Y-97977420D01*
X128686481Y-98203414D01*
X128894869Y-98392385D01*
X129136119Y-98537070D01*
X129400960Y-98631909D01*
X129623000Y-98510624D01*
X129623000Y-97367000D01*
X129877000Y-97367000D01*
X129877000Y-98510624D01*
X130099040Y-98631909D01*
X130363881Y-98537070D01*
X130605131Y-98392385D01*
X130813519Y-98203414D01*
X130981037Y-97977420D01*
X131101246Y-97723087D01*
X131141904Y-97589039D01*
X135978096Y-97589039D01*
X136018754Y-97723087D01*
X136138963Y-97977420D01*
X136306481Y-98203414D01*
X136514869Y-98392385D01*
X136756119Y-98537070D01*
X137020960Y-98631909D01*
X137243000Y-98510624D01*
X137243000Y-97367000D01*
X137497000Y-97367000D01*
X137497000Y-98510624D01*
X137719040Y-98631909D01*
X137983881Y-98537070D01*
X138225131Y-98392385D01*
X138433519Y-98203414D01*
X138601037Y-97977420D01*
X138721246Y-97723087D01*
X138761904Y-97589039D01*
X138639915Y-97367000D01*
X137497000Y-97367000D01*
X137243000Y-97367000D01*
X136100085Y-97367000D01*
X135978096Y-97589039D01*
X131141904Y-97589039D01*
X131019915Y-97367000D01*
X129877000Y-97367000D01*
X129623000Y-97367000D01*
X128480085Y-97367000D01*
X128358096Y-97589039D01*
X120015000Y-97589039D01*
X120015000Y-96890961D01*
X128358096Y-96890961D01*
X128480085Y-97113000D01*
X129623000Y-97113000D01*
X129623000Y-97093000D01*
X129877000Y-97093000D01*
X129877000Y-97113000D01*
X131019915Y-97113000D01*
X131141904Y-96890961D01*
X135978096Y-96890961D01*
X136100085Y-97113000D01*
X137243000Y-97113000D01*
X137243000Y-97093000D01*
X137497000Y-97093000D01*
X137497000Y-97113000D01*
X138639915Y-97113000D01*
X138761904Y-96890961D01*
X138721246Y-96756913D01*
X138601037Y-96502580D01*
X138433519Y-96276586D01*
X138225131Y-96087615D01*
X137983881Y-95942930D01*
X137719040Y-95848091D01*
X137497002Y-95969375D01*
X137497002Y-95874796D01*
X137713318Y-95831769D01*
X137927519Y-95743044D01*
X138120294Y-95614236D01*
X138284236Y-95450294D01*
X138413044Y-95257519D01*
X138501769Y-95043318D01*
X138547000Y-94815924D01*
X138547000Y-94584076D01*
X138501769Y-94356682D01*
X138413044Y-94142481D01*
X138284236Y-93949706D01*
X138120294Y-93785764D01*
X137927519Y-93656956D01*
X137713318Y-93568231D01*
X137485924Y-93523000D01*
X137254076Y-93523000D01*
X137026682Y-93568231D01*
X136812481Y-93656956D01*
X136619706Y-93785764D01*
X136455764Y-93949706D01*
X136326956Y-94142481D01*
X136238231Y-94356682D01*
X136193000Y-94584076D01*
X136193000Y-94815924D01*
X136238231Y-95043318D01*
X136326956Y-95257519D01*
X136455764Y-95450294D01*
X136619706Y-95614236D01*
X136812481Y-95743044D01*
X137026682Y-95831769D01*
X137242998Y-95874796D01*
X137242998Y-95969375D01*
X137020960Y-95848091D01*
X136756119Y-95942930D01*
X136514869Y-96087615D01*
X136306481Y-96276586D01*
X136138963Y-96502580D01*
X136018754Y-96756913D01*
X135978096Y-96890961D01*
X131141904Y-96890961D01*
X131101246Y-96756913D01*
X130981037Y-96502580D01*
X130813519Y-96276586D01*
X130605131Y-96087615D01*
X130363881Y-95942930D01*
X130184863Y-95878824D01*
X130550000Y-95878824D01*
X130623905Y-95871545D01*
X130694970Y-95849988D01*
X130760463Y-95814981D01*
X130817869Y-95767869D01*
X130864981Y-95710463D01*
X130899988Y-95644970D01*
X130921545Y-95573905D01*
X130928824Y-95500000D01*
X130928824Y-93900000D01*
X130921545Y-93826095D01*
X130899988Y-93755030D01*
X130864981Y-93689537D01*
X130817869Y-93632131D01*
X130760463Y-93585019D01*
X130694970Y-93550012D01*
X130623905Y-93528455D01*
X130550000Y-93521176D01*
X128950000Y-93521176D01*
X128876095Y-93528455D01*
X128805030Y-93550012D01*
X128739537Y-93585019D01*
X128682131Y-93632131D01*
X128635019Y-93689537D01*
X128600012Y-93755030D01*
X128578455Y-93826095D01*
X128571176Y-93900000D01*
X128571176Y-95500000D01*
X128578455Y-95573905D01*
X128600012Y-95644970D01*
X128635019Y-95710463D01*
X128682131Y-95767869D01*
X128739537Y-95814981D01*
X128805030Y-95849988D01*
X128876095Y-95871545D01*
X128950000Y-95878824D01*
X129315137Y-95878824D01*
X129136119Y-95942930D01*
X128894869Y-96087615D01*
X128686481Y-96276586D01*
X128518963Y-96502580D01*
X128398754Y-96756913D01*
X128358096Y-96890961D01*
X120015000Y-96890961D01*
X120015000Y-96520000D01*
X120012560Y-96495224D01*
X120005333Y-96471399D01*
X119993597Y-96449443D01*
X119977803Y-96430197D01*
X119958557Y-96414403D01*
X119936601Y-96402667D01*
X119912776Y-96395440D01*
X119888000Y-96393000D01*
X116500233Y-96393000D01*
X116551185Y-96351185D01*
X116630537Y-96254494D01*
X116689502Y-96144180D01*
X116725812Y-96024482D01*
X116738072Y-95900000D01*
X116735000Y-94685750D01*
X116576250Y-94527000D01*
X114727000Y-94527000D01*
X114727000Y-94547000D01*
X114473000Y-94547000D01*
X114473000Y-94527000D01*
X114453000Y-94527000D01*
X114453000Y-94273000D01*
X114473000Y-94273000D01*
X114473000Y-94253000D01*
X114727000Y-94253000D01*
X114727000Y-94273000D01*
X116576250Y-94273000D01*
X116735000Y-94114250D01*
X116738072Y-92900000D01*
X116725812Y-92775518D01*
X116689502Y-92655820D01*
X116650578Y-92583000D01*
X119888000Y-92583000D01*
X119912776Y-92580560D01*
X119936601Y-92573333D01*
X119958557Y-92561597D01*
X119977803Y-92545803D01*
X119993597Y-92526557D01*
X120005333Y-92504601D01*
X120012560Y-92480776D01*
X120015000Y-92456000D01*
X120015000Y-86519039D01*
X128263096Y-86519039D01*
X128303754Y-86653087D01*
X128423963Y-86907420D01*
X128591481Y-87133414D01*
X128799869Y-87322385D01*
X129041119Y-87467070D01*
X129305960Y-87561909D01*
X129528000Y-87440624D01*
X129528000Y-86297000D01*
X129782000Y-86297000D01*
X129782000Y-87440624D01*
X130004040Y-87561909D01*
X130268881Y-87467070D01*
X130510131Y-87322385D01*
X130718519Y-87133414D01*
X130886037Y-86907420D01*
X131006246Y-86653087D01*
X131046904Y-86519039D01*
X135883096Y-86519039D01*
X135923754Y-86653087D01*
X136043963Y-86907420D01*
X136211481Y-87133414D01*
X136419869Y-87322385D01*
X136661119Y-87467070D01*
X136925960Y-87561909D01*
X137148000Y-87440624D01*
X137148000Y-86297000D01*
X137402000Y-86297000D01*
X137402000Y-87440624D01*
X137624040Y-87561909D01*
X137888881Y-87467070D01*
X138130131Y-87322385D01*
X138338519Y-87133414D01*
X138506037Y-86907420D01*
X138626246Y-86653087D01*
X138666904Y-86519039D01*
X138544915Y-86297000D01*
X137402000Y-86297000D01*
X137148000Y-86297000D01*
X136005085Y-86297000D01*
X135883096Y-86519039D01*
X131046904Y-86519039D01*
X130924915Y-86297000D01*
X129782000Y-86297000D01*
X129528000Y-86297000D01*
X128385085Y-86297000D01*
X128263096Y-86519039D01*
X120015000Y-86519039D01*
X120015000Y-85820961D01*
X128263096Y-85820961D01*
X128385085Y-86043000D01*
X129528000Y-86043000D01*
X129528000Y-86023000D01*
X129782000Y-86023000D01*
X129782000Y-86043000D01*
X130924915Y-86043000D01*
X131046904Y-85820961D01*
X135883096Y-85820961D01*
X136005085Y-86043000D01*
X137148000Y-86043000D01*
X137148000Y-86023000D01*
X137402000Y-86023000D01*
X137402000Y-86043000D01*
X138544915Y-86043000D01*
X138666904Y-85820961D01*
X138626246Y-85686913D01*
X138506037Y-85432580D01*
X138338519Y-85206586D01*
X138130131Y-85017615D01*
X137888881Y-84872930D01*
X137624040Y-84778091D01*
X137402002Y-84899375D01*
X137402002Y-84804796D01*
X137618318Y-84761769D01*
X137832519Y-84673044D01*
X138025294Y-84544236D01*
X138189236Y-84380294D01*
X138318044Y-84187519D01*
X138406769Y-83973318D01*
X138452000Y-83745924D01*
X138452000Y-83514076D01*
X138406769Y-83286682D01*
X138318044Y-83072481D01*
X138189236Y-82879706D01*
X138025294Y-82715764D01*
X137832519Y-82586956D01*
X137618318Y-82498231D01*
X137390924Y-82453000D01*
X137159076Y-82453000D01*
X136931682Y-82498231D01*
X136717481Y-82586956D01*
X136524706Y-82715764D01*
X136360764Y-82879706D01*
X136231956Y-83072481D01*
X136143231Y-83286682D01*
X136098000Y-83514076D01*
X136098000Y-83745924D01*
X136143231Y-83973318D01*
X136231956Y-84187519D01*
X136360764Y-84380294D01*
X136524706Y-84544236D01*
X136717481Y-84673044D01*
X136931682Y-84761769D01*
X137147998Y-84804796D01*
X137147998Y-84899375D01*
X136925960Y-84778091D01*
X136661119Y-84872930D01*
X136419869Y-85017615D01*
X136211481Y-85206586D01*
X136043963Y-85432580D01*
X135923754Y-85686913D01*
X135883096Y-85820961D01*
X131046904Y-85820961D01*
X131006246Y-85686913D01*
X130886037Y-85432580D01*
X130718519Y-85206586D01*
X130510131Y-85017615D01*
X130268881Y-84872930D01*
X130089863Y-84808824D01*
X130455000Y-84808824D01*
X130528905Y-84801545D01*
X130599970Y-84779988D01*
X130665463Y-84744981D01*
X130722869Y-84697869D01*
X130769981Y-84640463D01*
X130804988Y-84574970D01*
X130826545Y-84503905D01*
X130833824Y-84430000D01*
X130833824Y-82830000D01*
X130826545Y-82756095D01*
X130804988Y-82685030D01*
X130769981Y-82619537D01*
X130722869Y-82562131D01*
X130665463Y-82515019D01*
X130599970Y-82480012D01*
X130528905Y-82458455D01*
X130455000Y-82451176D01*
X128855000Y-82451176D01*
X128781095Y-82458455D01*
X128710030Y-82480012D01*
X128644537Y-82515019D01*
X128587131Y-82562131D01*
X128540019Y-82619537D01*
X128505012Y-82685030D01*
X128483455Y-82756095D01*
X128476176Y-82830000D01*
X128476176Y-84430000D01*
X128483455Y-84503905D01*
X128505012Y-84574970D01*
X128540019Y-84640463D01*
X128587131Y-84697869D01*
X128644537Y-84744981D01*
X128710030Y-84779988D01*
X128781095Y-84801545D01*
X128855000Y-84808824D01*
X129220137Y-84808824D01*
X129041119Y-84872930D01*
X128799869Y-85017615D01*
X128591481Y-85206586D01*
X128423963Y-85432580D01*
X128303754Y-85686913D01*
X128263096Y-85820961D01*
X120015000Y-85820961D01*
X120015000Y-79756000D01*
X120012560Y-79731224D01*
X120005333Y-79707399D01*
X119993597Y-79685443D01*
X119977803Y-79666197D01*
X119958557Y-79650403D01*
X119936601Y-79638667D01*
X119912776Y-79631440D01*
X119888000Y-79629000D01*
X116737639Y-79629000D01*
X116735000Y-78585750D01*
X116576250Y-78427000D01*
X114727000Y-78427000D01*
X114727000Y-78447000D01*
X114473000Y-78447000D01*
X114473000Y-78427000D01*
X114453000Y-78427000D01*
X114453000Y-78173000D01*
X114473000Y-78173000D01*
X114473000Y-78153000D01*
X114727000Y-78153000D01*
X114727000Y-78173000D01*
X116576250Y-78173000D01*
X116735000Y-78014250D01*
X116738072Y-76800000D01*
X116725812Y-76675518D01*
X116689502Y-76555820D01*
X116630537Y-76445506D01*
X116551185Y-76348815D01*
X116524603Y-76327000D01*
X119888000Y-76327000D01*
X119912776Y-76324560D01*
X119936601Y-76317333D01*
X119958557Y-76305597D01*
X119977803Y-76289803D01*
X119993597Y-76270557D01*
X120005333Y-76248601D01*
X120012560Y-76224776D01*
X120015000Y-76200000D01*
X120015000Y-75689039D01*
X128408096Y-75689039D01*
X128448754Y-75823087D01*
X128568963Y-76077420D01*
X128736481Y-76303414D01*
X128944869Y-76492385D01*
X129186119Y-76637070D01*
X129450960Y-76731909D01*
X129673000Y-76610624D01*
X129673000Y-75467000D01*
X129927000Y-75467000D01*
X129927000Y-76610624D01*
X130149040Y-76731909D01*
X130413881Y-76637070D01*
X130655131Y-76492385D01*
X130863519Y-76303414D01*
X131031037Y-76077420D01*
X131151246Y-75823087D01*
X131191904Y-75689039D01*
X136028096Y-75689039D01*
X136068754Y-75823087D01*
X136188963Y-76077420D01*
X136356481Y-76303414D01*
X136564869Y-76492385D01*
X136806119Y-76637070D01*
X137070960Y-76731909D01*
X137293000Y-76610624D01*
X137293000Y-75467000D01*
X137547000Y-75467000D01*
X137547000Y-76610624D01*
X137769040Y-76731909D01*
X138033881Y-76637070D01*
X138275131Y-76492385D01*
X138483519Y-76303414D01*
X138651037Y-76077420D01*
X138771246Y-75823087D01*
X138811904Y-75689039D01*
X138689915Y-75467000D01*
X137547000Y-75467000D01*
X137293000Y-75467000D01*
X136150085Y-75467000D01*
X136028096Y-75689039D01*
X131191904Y-75689039D01*
X131069915Y-75467000D01*
X129927000Y-75467000D01*
X129673000Y-75467000D01*
X128530085Y-75467000D01*
X128408096Y-75689039D01*
X120015000Y-75689039D01*
X120015000Y-74990961D01*
X128408096Y-74990961D01*
X128530085Y-75213000D01*
X129673000Y-75213000D01*
X129673000Y-75193000D01*
X129927000Y-75193000D01*
X129927000Y-75213000D01*
X131069915Y-75213000D01*
X131191904Y-74990961D01*
X136028096Y-74990961D01*
X136150085Y-75213000D01*
X137293000Y-75213000D01*
X137293000Y-75193000D01*
X137547000Y-75193000D01*
X137547000Y-75213000D01*
X138689915Y-75213000D01*
X138811904Y-74990961D01*
X138771246Y-74856913D01*
X138651037Y-74602580D01*
X138483519Y-74376586D01*
X138275131Y-74187615D01*
X138033881Y-74042930D01*
X137769040Y-73948091D01*
X137547002Y-74069375D01*
X137547002Y-73974796D01*
X137763318Y-73931769D01*
X137977519Y-73843044D01*
X138170294Y-73714236D01*
X138334236Y-73550294D01*
X138463044Y-73357519D01*
X138551769Y-73143318D01*
X138597000Y-72915924D01*
X138597000Y-72684076D01*
X138551769Y-72456682D01*
X138463044Y-72242481D01*
X138334236Y-72049706D01*
X138170294Y-71885764D01*
X137977519Y-71756956D01*
X137763318Y-71668231D01*
X137535924Y-71623000D01*
X137304076Y-71623000D01*
X137076682Y-71668231D01*
X136862481Y-71756956D01*
X136669706Y-71885764D01*
X136505764Y-72049706D01*
X136376956Y-72242481D01*
X136288231Y-72456682D01*
X136243000Y-72684076D01*
X136243000Y-72915924D01*
X136288231Y-73143318D01*
X136376956Y-73357519D01*
X136505764Y-73550294D01*
X136669706Y-73714236D01*
X136862481Y-73843044D01*
X137076682Y-73931769D01*
X137292998Y-73974796D01*
X137292998Y-74069375D01*
X137070960Y-73948091D01*
X136806119Y-74042930D01*
X136564869Y-74187615D01*
X136356481Y-74376586D01*
X136188963Y-74602580D01*
X136068754Y-74856913D01*
X136028096Y-74990961D01*
X131191904Y-74990961D01*
X131151246Y-74856913D01*
X131031037Y-74602580D01*
X130863519Y-74376586D01*
X130655131Y-74187615D01*
X130413881Y-74042930D01*
X130234863Y-73978824D01*
X130600000Y-73978824D01*
X130673905Y-73971545D01*
X130744970Y-73949988D01*
X130810463Y-73914981D01*
X130867869Y-73867869D01*
X130914981Y-73810463D01*
X130949988Y-73744970D01*
X130971545Y-73673905D01*
X130978824Y-73600000D01*
X130978824Y-72000000D01*
X130971545Y-71926095D01*
X130949988Y-71855030D01*
X130914981Y-71789537D01*
X130867869Y-71732131D01*
X130810463Y-71685019D01*
X130744970Y-71650012D01*
X130673905Y-71628455D01*
X130600000Y-71621176D01*
X129000000Y-71621176D01*
X128926095Y-71628455D01*
X128855030Y-71650012D01*
X128789537Y-71685019D01*
X128732131Y-71732131D01*
X128685019Y-71789537D01*
X128650012Y-71855030D01*
X128628455Y-71926095D01*
X128621176Y-72000000D01*
X128621176Y-73600000D01*
X128628455Y-73673905D01*
X128650012Y-73744970D01*
X128685019Y-73810463D01*
X128732131Y-73867869D01*
X128789537Y-73914981D01*
X128855030Y-73949988D01*
X128926095Y-73971545D01*
X129000000Y-73978824D01*
X129365137Y-73978824D01*
X129186119Y-74042930D01*
X128944869Y-74187615D01*
X128736481Y-74376586D01*
X128568963Y-74602580D01*
X128448754Y-74856913D01*
X128408096Y-74990961D01*
X120015000Y-74990961D01*
X120015000Y-63089039D01*
X128208096Y-63089039D01*
X128248754Y-63223087D01*
X128368963Y-63477420D01*
X128536481Y-63703414D01*
X128744869Y-63892385D01*
X128986119Y-64037070D01*
X129250960Y-64131909D01*
X129473000Y-64010624D01*
X129473000Y-62867000D01*
X129727000Y-62867000D01*
X129727000Y-64010624D01*
X129949040Y-64131909D01*
X130213881Y-64037070D01*
X130455131Y-63892385D01*
X130663519Y-63703414D01*
X130831037Y-63477420D01*
X130951246Y-63223087D01*
X130991904Y-63089039D01*
X135828096Y-63089039D01*
X135868754Y-63223087D01*
X135988963Y-63477420D01*
X136156481Y-63703414D01*
X136364869Y-63892385D01*
X136606119Y-64037070D01*
X136870960Y-64131909D01*
X137093000Y-64010624D01*
X137093000Y-62867000D01*
X137347000Y-62867000D01*
X137347000Y-64010624D01*
X137569040Y-64131909D01*
X137833881Y-64037070D01*
X138075131Y-63892385D01*
X138283519Y-63703414D01*
X138451037Y-63477420D01*
X138571246Y-63223087D01*
X138611904Y-63089039D01*
X138489915Y-62867000D01*
X137347000Y-62867000D01*
X137093000Y-62867000D01*
X135950085Y-62867000D01*
X135828096Y-63089039D01*
X130991904Y-63089039D01*
X130869915Y-62867000D01*
X129727000Y-62867000D01*
X129473000Y-62867000D01*
X128330085Y-62867000D01*
X128208096Y-63089039D01*
X120015000Y-63089039D01*
X120015000Y-62390961D01*
X128208096Y-62390961D01*
X128330085Y-62613000D01*
X129473000Y-62613000D01*
X129473000Y-62593000D01*
X129727000Y-62593000D01*
X129727000Y-62613000D01*
X130869915Y-62613000D01*
X130991904Y-62390961D01*
X135828096Y-62390961D01*
X135950085Y-62613000D01*
X137093000Y-62613000D01*
X137093000Y-62593000D01*
X137347000Y-62593000D01*
X137347000Y-62613000D01*
X138489915Y-62613000D01*
X138611904Y-62390961D01*
X138571246Y-62256913D01*
X138451037Y-62002580D01*
X138283519Y-61776586D01*
X138075131Y-61587615D01*
X137833881Y-61442930D01*
X137569040Y-61348091D01*
X137347002Y-61469375D01*
X137347002Y-61374796D01*
X137563318Y-61331769D01*
X137777519Y-61243044D01*
X137970294Y-61114236D01*
X138134236Y-60950294D01*
X138263044Y-60757519D01*
X138351769Y-60543318D01*
X138397000Y-60315924D01*
X138397000Y-60084076D01*
X138351769Y-59856682D01*
X138263044Y-59642481D01*
X138134236Y-59449706D01*
X137970294Y-59285764D01*
X137777519Y-59156956D01*
X137563318Y-59068231D01*
X137335924Y-59023000D01*
X137104076Y-59023000D01*
X136876682Y-59068231D01*
X136662481Y-59156956D01*
X136469706Y-59285764D01*
X136305764Y-59449706D01*
X136176956Y-59642481D01*
X136088231Y-59856682D01*
X136043000Y-60084076D01*
X136043000Y-60315924D01*
X136088231Y-60543318D01*
X136176956Y-60757519D01*
X136305764Y-60950294D01*
X136469706Y-61114236D01*
X136662481Y-61243044D01*
X136876682Y-61331769D01*
X137092998Y-61374796D01*
X137092998Y-61469375D01*
X136870960Y-61348091D01*
X136606119Y-61442930D01*
X136364869Y-61587615D01*
X136156481Y-61776586D01*
X135988963Y-62002580D01*
X135868754Y-62256913D01*
X135828096Y-62390961D01*
X130991904Y-62390961D01*
X130951246Y-62256913D01*
X130831037Y-62002580D01*
X130663519Y-61776586D01*
X130455131Y-61587615D01*
X130213881Y-61442930D01*
X130034863Y-61378824D01*
X130400000Y-61378824D01*
X130473905Y-61371545D01*
X130544970Y-61349988D01*
X130610463Y-61314981D01*
X130667869Y-61267869D01*
X130714981Y-61210463D01*
X130749988Y-61144970D01*
X130771545Y-61073905D01*
X130778824Y-61000000D01*
X130778824Y-59400000D01*
X130771545Y-59326095D01*
X130749988Y-59255030D01*
X130714981Y-59189537D01*
X130667869Y-59132131D01*
X130610463Y-59085019D01*
X130544970Y-59050012D01*
X130473905Y-59028455D01*
X130400000Y-59021176D01*
X128800000Y-59021176D01*
X128726095Y-59028455D01*
X128655030Y-59050012D01*
X128589537Y-59085019D01*
X128532131Y-59132131D01*
X128485019Y-59189537D01*
X128450012Y-59255030D01*
X128428455Y-59326095D01*
X128421176Y-59400000D01*
X128421176Y-61000000D01*
X128428455Y-61073905D01*
X128450012Y-61144970D01*
X128485019Y-61210463D01*
X128532131Y-61267869D01*
X128589537Y-61314981D01*
X128655030Y-61349988D01*
X128726095Y-61371545D01*
X128800000Y-61378824D01*
X129165137Y-61378824D01*
X128986119Y-61442930D01*
X128744869Y-61587615D01*
X128536481Y-61776586D01*
X128368963Y-62002580D01*
X128248754Y-62256913D01*
X128208096Y-62390961D01*
X120015000Y-62390961D01*
X120015000Y-56007000D01*
X146177000Y-56007000D01*
X146177000Y-62484000D01*
G37*
X146177000Y-62484000D02*
X146179440Y-62508776D01*
X146186667Y-62532601D01*
X146198403Y-62554557D01*
X146214197Y-62573803D01*
X146233443Y-62589597D01*
X146255399Y-62601333D01*
X146279224Y-62608560D01*
X146304000Y-62611000D01*
X149244654Y-62611000D01*
X149218023Y-62637631D01*
X149334433Y-62754041D01*
X149094344Y-62821020D01*
X148977244Y-63070048D01*
X148910977Y-63337135D01*
X148898090Y-63612017D01*
X148939078Y-63884133D01*
X149032364Y-64143023D01*
X149094344Y-64258980D01*
X149334435Y-64325960D01*
X150120395Y-63540000D01*
X150106253Y-63525858D01*
X150285858Y-63346253D01*
X150300000Y-63360395D01*
X150314143Y-63346253D01*
X150493748Y-63525858D01*
X150479605Y-63540000D01*
X151265565Y-64325960D01*
X151505656Y-64258980D01*
X151622756Y-64009952D01*
X151689023Y-63742865D01*
X151701910Y-63467983D01*
X151660922Y-63195867D01*
X151567636Y-62936977D01*
X151505656Y-62821020D01*
X151265567Y-62754041D01*
X151381977Y-62637631D01*
X151355346Y-62611000D01*
X170991588Y-62611000D01*
X170966690Y-62693078D01*
X170949757Y-62865000D01*
X170954000Y-62908080D01*
X170954001Y-103637910D01*
X170949757Y-103681000D01*
X170966690Y-103852922D01*
X171016838Y-104018236D01*
X171098274Y-104170592D01*
X171180406Y-104270671D01*
X171180409Y-104270674D01*
X171207868Y-104304133D01*
X171241327Y-104331592D01*
X175810328Y-108900594D01*
X175873001Y-108952028D01*
X175873000Y-111477119D01*
X175870451Y-111503000D01*
X175873000Y-111528880D01*
X175880626Y-111606309D01*
X175910761Y-111705649D01*
X175959696Y-111797202D01*
X176025552Y-111877448D01*
X176045666Y-111893955D01*
X176765001Y-112613291D01*
X176765000Y-120840155D01*
X176688464Y-120916691D01*
X176603431Y-121043952D01*
X176544859Y-121185357D01*
X176515000Y-121335472D01*
X176515000Y-121488528D01*
X176544859Y-121638643D01*
X176603431Y-121780048D01*
X176688464Y-121907309D01*
X176796691Y-122015536D01*
X176923952Y-122100569D01*
X177065357Y-122159141D01*
X177215472Y-122189000D01*
X177368528Y-122189000D01*
X177518643Y-122159141D01*
X177660048Y-122100569D01*
X177787309Y-122015536D01*
X177895536Y-121907309D01*
X177980569Y-121780048D01*
X178039141Y-121638643D01*
X178069000Y-121488528D01*
X178069000Y-121335472D01*
X178039141Y-121185357D01*
X177980569Y-121043952D01*
X177895536Y-120916691D01*
X177819000Y-120840155D01*
X177819000Y-119811472D01*
X179055000Y-119811472D01*
X179055000Y-119964528D01*
X179084859Y-120114643D01*
X179143431Y-120256048D01*
X179228464Y-120383309D01*
X179336691Y-120491536D01*
X179463952Y-120576569D01*
X179605357Y-120635141D01*
X179755472Y-120665000D01*
X179908528Y-120665000D01*
X180058643Y-120635141D01*
X180200048Y-120576569D01*
X180327309Y-120491536D01*
X180435536Y-120383309D01*
X180520569Y-120256048D01*
X180579141Y-120114643D01*
X180609000Y-119964528D01*
X180609000Y-119811472D01*
X180579141Y-119661357D01*
X180520569Y-119519952D01*
X180435536Y-119392691D01*
X180327309Y-119284464D01*
X180200048Y-119199431D01*
X180058643Y-119140859D01*
X179908528Y-119111000D01*
X179755472Y-119111000D01*
X179605357Y-119140859D01*
X179463952Y-119199431D01*
X179336691Y-119284464D01*
X179228464Y-119392691D01*
X179143431Y-119519952D01*
X179084859Y-119661357D01*
X179055000Y-119811472D01*
X177819000Y-119811472D01*
X177819000Y-118644679D01*
X189823000Y-118644679D01*
X189823000Y-118955321D01*
X189883604Y-119259994D01*
X190002481Y-119546989D01*
X190175064Y-119805279D01*
X190394721Y-120024936D01*
X190653011Y-120197519D01*
X190940006Y-120316396D01*
X191244679Y-120377000D01*
X191555321Y-120377000D01*
X191859994Y-120316396D01*
X192146989Y-120197519D01*
X192405279Y-120024936D01*
X192624936Y-119805279D01*
X192797519Y-119546989D01*
X192916396Y-119259994D01*
X192977000Y-118955321D01*
X192977000Y-118854684D01*
X204556933Y-118854684D01*
X204603015Y-119213198D01*
X204718154Y-119555833D01*
X204837164Y-119778486D01*
X205122020Y-119898374D01*
X206220395Y-118800000D01*
X205122020Y-117701626D01*
X204837164Y-117821514D01*
X204676301Y-118145210D01*
X204581678Y-118494069D01*
X204556933Y-118854684D01*
X192977000Y-118854684D01*
X192977000Y-118644679D01*
X192916396Y-118340006D01*
X192797519Y-118053011D01*
X192624936Y-117794721D01*
X192405279Y-117575064D01*
X192146989Y-117402481D01*
X191859994Y-117283604D01*
X191555321Y-117223000D01*
X191244679Y-117223000D01*
X190940006Y-117283604D01*
X190653011Y-117402481D01*
X190394721Y-117575064D01*
X190175064Y-117794721D01*
X190002481Y-118053011D01*
X189883604Y-118340006D01*
X189823000Y-118644679D01*
X177819000Y-118644679D01*
X177819000Y-114477472D01*
X196962000Y-114477472D01*
X196962000Y-114630528D01*
X196991859Y-114780643D01*
X197050431Y-114922048D01*
X197135464Y-115049309D01*
X197243691Y-115157536D01*
X197370952Y-115242569D01*
X197512357Y-115301141D01*
X197662472Y-115331000D01*
X197815528Y-115331000D01*
X197965643Y-115301141D01*
X198107048Y-115242569D01*
X198234309Y-115157536D01*
X198342536Y-115049309D01*
X198427569Y-114922048D01*
X198486141Y-114780643D01*
X198516000Y-114630528D01*
X198516000Y-114477472D01*
X202296000Y-114477472D01*
X202296000Y-114630528D01*
X202325859Y-114780643D01*
X202384431Y-114922048D01*
X202469464Y-115049309D01*
X202577691Y-115157536D01*
X202704952Y-115242569D01*
X202846357Y-115301141D01*
X202996472Y-115331000D01*
X203149528Y-115331000D01*
X203299643Y-115301141D01*
X203441048Y-115242569D01*
X203568309Y-115157536D01*
X203676536Y-115049309D01*
X203761569Y-114922048D01*
X203820141Y-114780643D01*
X203850000Y-114630528D01*
X203850000Y-114477472D01*
X203820141Y-114327357D01*
X203761569Y-114185952D01*
X203676536Y-114058691D01*
X203568309Y-113950464D01*
X203441048Y-113865431D01*
X203299643Y-113806859D01*
X203149528Y-113777000D01*
X202996472Y-113777000D01*
X202846357Y-113806859D01*
X202704952Y-113865431D01*
X202577691Y-113950464D01*
X202469464Y-114058691D01*
X202384431Y-114185952D01*
X202325859Y-114327357D01*
X202296000Y-114477472D01*
X198516000Y-114477472D01*
X198486141Y-114327357D01*
X198427569Y-114185952D01*
X198342536Y-114058691D01*
X198234309Y-113950464D01*
X198107048Y-113865431D01*
X197965643Y-113806859D01*
X197815528Y-113777000D01*
X197662472Y-113777000D01*
X197512357Y-113806859D01*
X197370952Y-113865431D01*
X197243691Y-113950464D01*
X197135464Y-114058691D01*
X197050431Y-114185952D01*
X196991859Y-114327357D01*
X196962000Y-114477472D01*
X177819000Y-114477472D01*
X177819000Y-113449764D01*
X188629841Y-113449764D01*
X188677148Y-113673348D01*
X188898516Y-113774237D01*
X189135313Y-113830000D01*
X189378438Y-113838495D01*
X189618549Y-113799395D01*
X189846418Y-113714202D01*
X189922852Y-113673348D01*
X189970159Y-113449764D01*
X189300000Y-112779605D01*
X188629841Y-113449764D01*
X177819000Y-113449764D01*
X177819000Y-112678438D01*
X188061505Y-112678438D01*
X188100605Y-112918549D01*
X188185798Y-113146418D01*
X188226652Y-113222852D01*
X188450236Y-113270159D01*
X189120395Y-112600000D01*
X189479605Y-112600000D01*
X190149764Y-113270159D01*
X190324446Y-113233199D01*
X190328455Y-113273905D01*
X190350012Y-113344970D01*
X190385019Y-113410463D01*
X190432131Y-113467869D01*
X190489537Y-113514981D01*
X190555030Y-113549988D01*
X190626095Y-113571545D01*
X190700000Y-113578824D01*
X191900000Y-113578824D01*
X191973905Y-113571545D01*
X192044970Y-113549988D01*
X192110463Y-113514981D01*
X192167869Y-113467869D01*
X192214981Y-113410463D01*
X192249988Y-113344970D01*
X192271545Y-113273905D01*
X192278824Y-113200000D01*
X192278824Y-112000000D01*
X192271545Y-111926095D01*
X192249988Y-111855030D01*
X192214981Y-111789537D01*
X192167869Y-111732131D01*
X192110463Y-111685019D01*
X192044970Y-111650012D01*
X191973905Y-111628455D01*
X191900000Y-111621176D01*
X190700000Y-111621176D01*
X190626095Y-111628455D01*
X190555030Y-111650012D01*
X190489537Y-111685019D01*
X190432131Y-111732131D01*
X190385019Y-111789537D01*
X190350012Y-111855030D01*
X190328455Y-111926095D01*
X190324446Y-111966801D01*
X190149764Y-111929841D01*
X189479605Y-112600000D01*
X189120395Y-112600000D01*
X188450236Y-111929841D01*
X188226652Y-111977148D01*
X188125763Y-112198516D01*
X188070000Y-112435313D01*
X188061505Y-112678438D01*
X177819000Y-112678438D01*
X177819000Y-112420877D01*
X177821549Y-112394999D01*
X177819000Y-112369119D01*
X177811374Y-112291690D01*
X177781239Y-112192350D01*
X177732304Y-112100798D01*
X177666448Y-112020552D01*
X177646339Y-112004049D01*
X177392526Y-111750236D01*
X188629841Y-111750236D01*
X189300000Y-112420395D01*
X189970159Y-111750236D01*
X189922852Y-111526652D01*
X189701484Y-111425763D01*
X189464687Y-111370000D01*
X189221562Y-111361505D01*
X188981451Y-111400605D01*
X188753582Y-111485798D01*
X188677148Y-111526652D01*
X188629841Y-111750236D01*
X177392526Y-111750236D01*
X176927000Y-111284711D01*
X176927000Y-108952026D01*
X177023133Y-108873133D01*
X177132726Y-108739592D01*
X177214162Y-108587237D01*
X177225529Y-108549764D01*
X188629841Y-108549764D01*
X188677148Y-108773348D01*
X188898516Y-108874237D01*
X189135313Y-108930000D01*
X189378438Y-108938495D01*
X189618549Y-108899395D01*
X189846418Y-108814202D01*
X189922852Y-108773348D01*
X189970159Y-108549764D01*
X189300000Y-107879605D01*
X188629841Y-108549764D01*
X177225529Y-108549764D01*
X177264310Y-108421922D01*
X177281243Y-108250000D01*
X177264310Y-108078077D01*
X177214162Y-107912763D01*
X177142364Y-107778438D01*
X188061505Y-107778438D01*
X188100605Y-108018549D01*
X188185798Y-108246418D01*
X188226652Y-108322852D01*
X188450236Y-108370159D01*
X189120395Y-107700000D01*
X189479605Y-107700000D01*
X190149764Y-108370159D01*
X190324446Y-108333199D01*
X190328455Y-108373905D01*
X190350012Y-108444970D01*
X190385019Y-108510463D01*
X190432131Y-108567869D01*
X190489537Y-108614981D01*
X190555030Y-108649988D01*
X190626095Y-108671545D01*
X190700000Y-108678824D01*
X191900000Y-108678824D01*
X191973905Y-108671545D01*
X192044970Y-108649988D01*
X192110463Y-108614981D01*
X192167869Y-108567869D01*
X192214981Y-108510463D01*
X192249988Y-108444970D01*
X192271545Y-108373905D01*
X192278824Y-108300000D01*
X192278824Y-107100000D01*
X192271545Y-107026095D01*
X192249988Y-106955030D01*
X192214981Y-106889537D01*
X192167869Y-106832131D01*
X192110463Y-106785019D01*
X192044970Y-106750012D01*
X191973905Y-106728455D01*
X191900000Y-106721176D01*
X190700000Y-106721176D01*
X190626095Y-106728455D01*
X190555030Y-106750012D01*
X190489537Y-106785019D01*
X190432131Y-106832131D01*
X190385019Y-106889537D01*
X190350012Y-106955030D01*
X190328455Y-107026095D01*
X190324446Y-107066801D01*
X190149764Y-107029841D01*
X189479605Y-107700000D01*
X189120395Y-107700000D01*
X188450236Y-107029841D01*
X188226652Y-107077148D01*
X188125763Y-107298516D01*
X188070000Y-107535313D01*
X188061505Y-107778438D01*
X177142364Y-107778438D01*
X177132726Y-107760407D01*
X177050594Y-107660328D01*
X176240502Y-106850236D01*
X188629841Y-106850236D01*
X189300000Y-107520395D01*
X189970159Y-106850236D01*
X189922852Y-106626652D01*
X189701484Y-106525763D01*
X189464687Y-106470000D01*
X189221562Y-106461505D01*
X188981451Y-106500605D01*
X188753582Y-106585798D01*
X188677148Y-106626652D01*
X188629841Y-106850236D01*
X176240502Y-106850236D01*
X172940030Y-103549764D01*
X188629841Y-103549764D01*
X188677148Y-103773348D01*
X188898516Y-103874237D01*
X189135313Y-103930000D01*
X189378438Y-103938495D01*
X189618549Y-103899395D01*
X189846418Y-103814202D01*
X189922852Y-103773348D01*
X189970159Y-103549764D01*
X189300000Y-102879605D01*
X188629841Y-103549764D01*
X172940030Y-103549764D01*
X172708000Y-103317735D01*
X172708000Y-102778438D01*
X188061505Y-102778438D01*
X188100605Y-103018549D01*
X188185798Y-103246418D01*
X188226652Y-103322852D01*
X188450236Y-103370159D01*
X189120395Y-102700000D01*
X189479605Y-102700000D01*
X190149764Y-103370159D01*
X190324446Y-103333199D01*
X190328455Y-103373905D01*
X190350012Y-103444970D01*
X190385019Y-103510463D01*
X190432131Y-103567869D01*
X190489537Y-103614981D01*
X190555030Y-103649988D01*
X190626095Y-103671545D01*
X190700000Y-103678824D01*
X191900000Y-103678824D01*
X191973905Y-103671545D01*
X192044970Y-103649988D01*
X192110463Y-103614981D01*
X192167869Y-103567869D01*
X192214981Y-103510463D01*
X192249988Y-103444970D01*
X192271545Y-103373905D01*
X192278824Y-103300000D01*
X192278824Y-102100000D01*
X192271545Y-102026095D01*
X192249988Y-101955030D01*
X192214981Y-101889537D01*
X192167869Y-101832131D01*
X192110463Y-101785019D01*
X192044970Y-101750012D01*
X191973905Y-101728455D01*
X191900000Y-101721176D01*
X190700000Y-101721176D01*
X190626095Y-101728455D01*
X190555030Y-101750012D01*
X190489537Y-101785019D01*
X190432131Y-101832131D01*
X190385019Y-101889537D01*
X190350012Y-101955030D01*
X190328455Y-102026095D01*
X190324446Y-102066801D01*
X190149764Y-102029841D01*
X189479605Y-102700000D01*
X189120395Y-102700000D01*
X188450236Y-102029841D01*
X188226652Y-102077148D01*
X188125763Y-102298516D01*
X188070000Y-102535313D01*
X188061505Y-102778438D01*
X172708000Y-102778438D01*
X172708000Y-101850236D01*
X188629841Y-101850236D01*
X189300000Y-102520395D01*
X189970159Y-101850236D01*
X189922852Y-101626652D01*
X189701484Y-101525763D01*
X189464687Y-101470000D01*
X189221562Y-101461505D01*
X188981451Y-101500605D01*
X188753582Y-101585798D01*
X188677148Y-101626652D01*
X188629841Y-101850236D01*
X172708000Y-101850236D01*
X172708000Y-96447818D01*
X174561000Y-96447818D01*
X174561000Y-96672182D01*
X174604771Y-96892234D01*
X174690631Y-97099519D01*
X174815281Y-97286070D01*
X174973930Y-97444719D01*
X175160481Y-97569369D01*
X175367766Y-97655229D01*
X175587818Y-97699000D01*
X175812182Y-97699000D01*
X176032234Y-97655229D01*
X176239519Y-97569369D01*
X176426070Y-97444719D01*
X176584719Y-97286070D01*
X176709369Y-97099519D01*
X176795229Y-96892234D01*
X176839000Y-96672182D01*
X176839000Y-96447818D01*
X176795229Y-96227766D01*
X176709369Y-96020481D01*
X176584719Y-95833930D01*
X176426070Y-95675281D01*
X176239519Y-95550631D01*
X176032234Y-95464771D01*
X175812182Y-95421000D01*
X175587818Y-95421000D01*
X175367766Y-95464771D01*
X175160481Y-95550631D01*
X174973930Y-95675281D01*
X174815281Y-95833930D01*
X174690631Y-96020481D01*
X174604771Y-96227766D01*
X174561000Y-96447818D01*
X172708000Y-96447818D01*
X172708000Y-93907818D01*
X174561000Y-93907818D01*
X174561000Y-94132182D01*
X174604771Y-94352234D01*
X174690631Y-94559519D01*
X174815281Y-94746070D01*
X174973930Y-94904719D01*
X175160481Y-95029369D01*
X175367766Y-95115229D01*
X175587818Y-95159000D01*
X175812182Y-95159000D01*
X176032234Y-95115229D01*
X176239519Y-95029369D01*
X176426070Y-94904719D01*
X176584719Y-94746070D01*
X176709369Y-94559519D01*
X176795229Y-94352234D01*
X176839000Y-94132182D01*
X176839000Y-93907818D01*
X176795229Y-93687766D01*
X176709369Y-93480481D01*
X176584719Y-93293930D01*
X176426070Y-93135281D01*
X176239519Y-93010631D01*
X176032234Y-92924771D01*
X175812182Y-92881000D01*
X175587818Y-92881000D01*
X175367766Y-92924771D01*
X175160481Y-93010631D01*
X174973930Y-93135281D01*
X174815281Y-93293930D01*
X174690631Y-93480481D01*
X174604771Y-93687766D01*
X174561000Y-93907818D01*
X172708000Y-93907818D01*
X172708000Y-91367818D01*
X174561000Y-91367818D01*
X174561000Y-91592182D01*
X174604771Y-91812234D01*
X174690631Y-92019519D01*
X174815281Y-92206070D01*
X174973930Y-92364719D01*
X175160481Y-92489369D01*
X175367766Y-92575229D01*
X175587818Y-92619000D01*
X175812182Y-92619000D01*
X176032234Y-92575229D01*
X176239519Y-92489369D01*
X176426070Y-92364719D01*
X176584719Y-92206070D01*
X176709369Y-92019519D01*
X176795229Y-91812234D01*
X176839000Y-91592182D01*
X176839000Y-91367818D01*
X176795229Y-91147766D01*
X176709369Y-90940481D01*
X176584719Y-90753930D01*
X176426070Y-90595281D01*
X176239519Y-90470631D01*
X176032234Y-90384771D01*
X175812182Y-90341000D01*
X175587818Y-90341000D01*
X175367766Y-90384771D01*
X175160481Y-90470631D01*
X174973930Y-90595281D01*
X174815281Y-90753930D01*
X174690631Y-90940481D01*
X174604771Y-91147766D01*
X174561000Y-91367818D01*
X172708000Y-91367818D01*
X172708000Y-88827818D01*
X174561000Y-88827818D01*
X174561000Y-89052182D01*
X174604771Y-89272234D01*
X174690631Y-89479519D01*
X174815281Y-89666070D01*
X174973930Y-89824719D01*
X175160481Y-89949369D01*
X175367766Y-90035229D01*
X175587818Y-90079000D01*
X175812182Y-90079000D01*
X176032234Y-90035229D01*
X176239519Y-89949369D01*
X176426070Y-89824719D01*
X176584719Y-89666070D01*
X176709369Y-89479519D01*
X176795229Y-89272234D01*
X176839000Y-89052182D01*
X176839000Y-88827818D01*
X176795229Y-88607766D01*
X176709369Y-88400481D01*
X176584719Y-88213930D01*
X176426070Y-88055281D01*
X176239519Y-87930631D01*
X176032234Y-87844771D01*
X175812182Y-87801000D01*
X175587818Y-87801000D01*
X175367766Y-87844771D01*
X175160481Y-87930631D01*
X174973930Y-88055281D01*
X174815281Y-88213930D01*
X174690631Y-88400481D01*
X174604771Y-88607766D01*
X174561000Y-88827818D01*
X172708000Y-88827818D01*
X172708000Y-86287818D01*
X174561000Y-86287818D01*
X174561000Y-86512182D01*
X174604771Y-86732234D01*
X174690631Y-86939519D01*
X174815281Y-87126070D01*
X174973930Y-87284719D01*
X175160481Y-87409369D01*
X175367766Y-87495229D01*
X175587818Y-87539000D01*
X175812182Y-87539000D01*
X176032234Y-87495229D01*
X176239519Y-87409369D01*
X176426070Y-87284719D01*
X176584719Y-87126070D01*
X176709369Y-86939519D01*
X176795229Y-86732234D01*
X176839000Y-86512182D01*
X176839000Y-86287818D01*
X176795229Y-86067766D01*
X176709369Y-85860481D01*
X176584719Y-85673930D01*
X176426070Y-85515281D01*
X176239519Y-85390631D01*
X176032234Y-85304771D01*
X175812182Y-85261000D01*
X175587818Y-85261000D01*
X175367766Y-85304771D01*
X175160481Y-85390631D01*
X174973930Y-85515281D01*
X174815281Y-85673930D01*
X174690631Y-85860481D01*
X174604771Y-86067766D01*
X174561000Y-86287818D01*
X172708000Y-86287818D01*
X172708000Y-83747818D01*
X174561000Y-83747818D01*
X174561000Y-83972182D01*
X174604771Y-84192234D01*
X174690631Y-84399519D01*
X174815281Y-84586070D01*
X174973930Y-84744719D01*
X175160481Y-84869369D01*
X175367766Y-84955229D01*
X175587818Y-84999000D01*
X175812182Y-84999000D01*
X176032234Y-84955229D01*
X176239519Y-84869369D01*
X176426070Y-84744719D01*
X176584719Y-84586070D01*
X176709369Y-84399519D01*
X176795229Y-84192234D01*
X176839000Y-83972182D01*
X176839000Y-83747818D01*
X176795229Y-83527766D01*
X176709369Y-83320481D01*
X176584719Y-83133930D01*
X176426070Y-82975281D01*
X176239519Y-82850631D01*
X176032234Y-82764771D01*
X175812182Y-82721000D01*
X175587818Y-82721000D01*
X175367766Y-82764771D01*
X175160481Y-82850631D01*
X174973930Y-82975281D01*
X174815281Y-83133930D01*
X174690631Y-83320481D01*
X174604771Y-83527766D01*
X174561000Y-83747818D01*
X172708000Y-83747818D01*
X172708000Y-81207818D01*
X174561000Y-81207818D01*
X174561000Y-81432182D01*
X174604771Y-81652234D01*
X174690631Y-81859519D01*
X174815281Y-82046070D01*
X174973930Y-82204719D01*
X175160481Y-82329369D01*
X175367766Y-82415229D01*
X175587818Y-82459000D01*
X175812182Y-82459000D01*
X176032234Y-82415229D01*
X176239519Y-82329369D01*
X176426070Y-82204719D01*
X176584719Y-82046070D01*
X176709369Y-81859519D01*
X176795229Y-81652234D01*
X176839000Y-81432182D01*
X176839000Y-81207818D01*
X176795229Y-80987766D01*
X176709369Y-80780481D01*
X176584719Y-80593930D01*
X176426070Y-80435281D01*
X176239519Y-80310631D01*
X176032234Y-80224771D01*
X175812182Y-80181000D01*
X175587818Y-80181000D01*
X175367766Y-80224771D01*
X175160481Y-80310631D01*
X174973930Y-80435281D01*
X174815281Y-80593930D01*
X174690631Y-80780481D01*
X174604771Y-80987766D01*
X174561000Y-81207818D01*
X172708000Y-81207818D01*
X172708000Y-78667818D01*
X174561000Y-78667818D01*
X174561000Y-78892182D01*
X174604771Y-79112234D01*
X174690631Y-79319519D01*
X174815281Y-79506070D01*
X174973930Y-79664719D01*
X175160481Y-79789369D01*
X175367766Y-79875229D01*
X175587818Y-79919000D01*
X175812182Y-79919000D01*
X176032234Y-79875229D01*
X176239519Y-79789369D01*
X176426070Y-79664719D01*
X176584719Y-79506070D01*
X176709369Y-79319519D01*
X176795229Y-79112234D01*
X176839000Y-78892182D01*
X176839000Y-78667818D01*
X176795229Y-78447766D01*
X176709369Y-78240481D01*
X176584719Y-78053930D01*
X176426070Y-77895281D01*
X176239519Y-77770631D01*
X176032234Y-77684771D01*
X175812182Y-77641000D01*
X175587818Y-77641000D01*
X175367766Y-77684771D01*
X175160481Y-77770631D01*
X174973930Y-77895281D01*
X174815281Y-78053930D01*
X174690631Y-78240481D01*
X174604771Y-78447766D01*
X174561000Y-78667818D01*
X172708000Y-78667818D01*
X172708000Y-76127818D01*
X174561000Y-76127818D01*
X174561000Y-76352182D01*
X174604771Y-76572234D01*
X174690631Y-76779519D01*
X174815281Y-76966070D01*
X174973930Y-77124719D01*
X175160481Y-77249369D01*
X175367766Y-77335229D01*
X175587818Y-77379000D01*
X175812182Y-77379000D01*
X176032234Y-77335229D01*
X176239519Y-77249369D01*
X176426070Y-77124719D01*
X176584719Y-76966070D01*
X176709369Y-76779519D01*
X176795229Y-76572234D01*
X176839000Y-76352182D01*
X176839000Y-76127818D01*
X176795229Y-75907766D01*
X176709369Y-75700481D01*
X176584719Y-75513930D01*
X176426070Y-75355281D01*
X176239519Y-75230631D01*
X176032234Y-75144771D01*
X175812182Y-75101000D01*
X175587818Y-75101000D01*
X175367766Y-75144771D01*
X175160481Y-75230631D01*
X174973930Y-75355281D01*
X174815281Y-75513930D01*
X174690631Y-75700481D01*
X174604771Y-75907766D01*
X174561000Y-76127818D01*
X172708000Y-76127818D01*
X172708000Y-73587818D01*
X174561000Y-73587818D01*
X174561000Y-73812182D01*
X174604771Y-74032234D01*
X174690631Y-74239519D01*
X174815281Y-74426070D01*
X174973930Y-74584719D01*
X175160481Y-74709369D01*
X175367766Y-74795229D01*
X175587818Y-74839000D01*
X175812182Y-74839000D01*
X176032234Y-74795229D01*
X176239519Y-74709369D01*
X176426070Y-74584719D01*
X176584719Y-74426070D01*
X176709369Y-74239519D01*
X176795229Y-74032234D01*
X176839000Y-73812182D01*
X176839000Y-73587818D01*
X176795229Y-73367766D01*
X176709369Y-73160481D01*
X176584719Y-72973930D01*
X176426070Y-72815281D01*
X176239519Y-72690631D01*
X176032234Y-72604771D01*
X175812182Y-72561000D01*
X175587818Y-72561000D01*
X175367766Y-72604771D01*
X175160481Y-72690631D01*
X174973930Y-72815281D01*
X174815281Y-72973930D01*
X174690631Y-73160481D01*
X174604771Y-73367766D01*
X174561000Y-73587818D01*
X172708000Y-73587818D01*
X172708000Y-71047818D01*
X174561000Y-71047818D01*
X174561000Y-71272182D01*
X174604771Y-71492234D01*
X174690631Y-71699519D01*
X174815281Y-71886070D01*
X174973930Y-72044719D01*
X175160481Y-72169369D01*
X175367766Y-72255229D01*
X175587818Y-72299000D01*
X175812182Y-72299000D01*
X176032234Y-72255229D01*
X176239519Y-72169369D01*
X176426070Y-72044719D01*
X176584719Y-71886070D01*
X176709369Y-71699519D01*
X176795229Y-71492234D01*
X176839000Y-71272182D01*
X176839000Y-71047818D01*
X176795229Y-70827766D01*
X176709369Y-70620481D01*
X176584719Y-70433930D01*
X176426070Y-70275281D01*
X176239519Y-70150631D01*
X176032234Y-70064771D01*
X175812182Y-70021000D01*
X175587818Y-70021000D01*
X175367766Y-70064771D01*
X175160481Y-70150631D01*
X174973930Y-70275281D01*
X174815281Y-70433930D01*
X174690631Y-70620481D01*
X174604771Y-70827766D01*
X174561000Y-71047818D01*
X172708000Y-71047818D01*
X172708000Y-68507818D01*
X174561000Y-68507818D01*
X174561000Y-68732182D01*
X174604771Y-68952234D01*
X174690631Y-69159519D01*
X174815281Y-69346070D01*
X174973930Y-69504719D01*
X175160481Y-69629369D01*
X175367766Y-69715229D01*
X175587818Y-69759000D01*
X175812182Y-69759000D01*
X176032234Y-69715229D01*
X176239519Y-69629369D01*
X176426070Y-69504719D01*
X176584719Y-69346070D01*
X176709369Y-69159519D01*
X176795229Y-68952234D01*
X176839000Y-68732182D01*
X176839000Y-68507818D01*
X176795229Y-68287766D01*
X176709369Y-68080481D01*
X176584719Y-67893930D01*
X176426070Y-67735281D01*
X176239519Y-67610631D01*
X176032234Y-67524771D01*
X175812182Y-67481000D01*
X175587818Y-67481000D01*
X175367766Y-67524771D01*
X175160481Y-67610631D01*
X174973930Y-67735281D01*
X174815281Y-67893930D01*
X174690631Y-68080481D01*
X174604771Y-68287766D01*
X174561000Y-68507818D01*
X172708000Y-68507818D01*
X172708000Y-65967818D01*
X174561000Y-65967818D01*
X174561000Y-66192182D01*
X174604771Y-66412234D01*
X174690631Y-66619519D01*
X174815281Y-66806070D01*
X174973930Y-66964719D01*
X175160481Y-67089369D01*
X175367766Y-67175229D01*
X175587818Y-67219000D01*
X175812182Y-67219000D01*
X176032234Y-67175229D01*
X176239519Y-67089369D01*
X176426070Y-66964719D01*
X176584719Y-66806070D01*
X176709369Y-66619519D01*
X176795229Y-66412234D01*
X176839000Y-66192182D01*
X176839000Y-65967818D01*
X176795229Y-65747766D01*
X176709369Y-65540481D01*
X176584719Y-65353930D01*
X176426070Y-65195281D01*
X176239519Y-65070631D01*
X176032234Y-64984771D01*
X175812182Y-64941000D01*
X175778058Y-64941000D01*
X176044133Y-64900922D01*
X176303023Y-64807636D01*
X176418980Y-64745656D01*
X176485960Y-64505565D01*
X175700000Y-63719605D01*
X174914040Y-64505565D01*
X174981020Y-64745656D01*
X175230048Y-64862756D01*
X175497135Y-64929023D01*
X175752607Y-64941000D01*
X175587818Y-64941000D01*
X175367766Y-64984771D01*
X175160481Y-65070631D01*
X174973930Y-65195281D01*
X174815281Y-65353930D01*
X174690631Y-65540481D01*
X174604771Y-65747766D01*
X174561000Y-65967818D01*
X172708000Y-65967818D01*
X172708000Y-63228265D01*
X173325265Y-62611000D01*
X174644654Y-62611000D01*
X174618023Y-62637631D01*
X174734433Y-62754041D01*
X174494344Y-62821020D01*
X174377244Y-63070048D01*
X174310977Y-63337135D01*
X174298090Y-63612017D01*
X174339078Y-63884133D01*
X174432364Y-64143023D01*
X174494344Y-64258980D01*
X174734435Y-64325960D01*
X175520395Y-63540000D01*
X175506253Y-63525858D01*
X175685858Y-63346253D01*
X175700000Y-63360395D01*
X175714143Y-63346253D01*
X175893748Y-63525858D01*
X175879605Y-63540000D01*
X176665565Y-64325960D01*
X176905656Y-64258980D01*
X177022756Y-64009952D01*
X177089023Y-63742865D01*
X177101910Y-63467983D01*
X177060922Y-63195867D01*
X176967636Y-62936977D01*
X176905656Y-62821020D01*
X176665567Y-62754041D01*
X176781977Y-62637631D01*
X176755346Y-62611000D01*
X179832000Y-62611000D01*
X179856776Y-62608560D01*
X179880601Y-62601333D01*
X179902557Y-62589597D01*
X179921803Y-62573803D01*
X179937597Y-62554557D01*
X179949333Y-62532601D01*
X179956560Y-62508776D01*
X179959000Y-62484000D01*
X179959000Y-56515000D01*
X198501000Y-56515000D01*
X198501000Y-64008000D01*
X198503440Y-64032776D01*
X198510667Y-64056601D01*
X198522403Y-64078557D01*
X198538197Y-64097803D01*
X198557443Y-64113597D01*
X198579399Y-64125333D01*
X198603224Y-64132560D01*
X198628000Y-64135000D01*
X207645000Y-64135000D01*
X207645000Y-117438232D01*
X207613580Y-117406812D01*
X207498373Y-117522019D01*
X207378486Y-117237164D01*
X207054790Y-117076301D01*
X206705931Y-116981678D01*
X206345316Y-116956933D01*
X205986802Y-117003015D01*
X205644167Y-117118154D01*
X205421514Y-117237164D01*
X205301626Y-117522020D01*
X206400000Y-118620395D01*
X206414142Y-118606252D01*
X206593748Y-118785858D01*
X206579605Y-118800000D01*
X206593748Y-118814142D01*
X206414142Y-118993748D01*
X206400000Y-118979605D01*
X205301626Y-120077980D01*
X205421514Y-120362836D01*
X205745210Y-120523699D01*
X206094069Y-120618322D01*
X206454684Y-120643067D01*
X206813198Y-120596985D01*
X207155833Y-120481846D01*
X207378486Y-120362836D01*
X207498373Y-120077981D01*
X207613580Y-120193188D01*
X207645000Y-120161768D01*
X207645000Y-126365000D01*
X206538089Y-126365000D01*
X206660044Y-126299814D01*
X206755808Y-126035413D01*
X205800000Y-125079605D01*
X204844192Y-126035413D01*
X204939956Y-126299814D01*
X205073953Y-126365000D01*
X186944000Y-126365000D01*
X186919224Y-126367440D01*
X186895399Y-126374667D01*
X186873443Y-126386403D01*
X186854197Y-126402197D01*
X186838403Y-126421443D01*
X186826667Y-126443399D01*
X186819440Y-126467224D01*
X186817000Y-126492000D01*
X186817000Y-127408393D01*
X186713097Y-127512296D01*
X186641514Y-127268329D01*
X186386004Y-127147429D01*
X186111816Y-127078700D01*
X185829488Y-127064783D01*
X185549870Y-127106213D01*
X185283708Y-127201397D01*
X185158486Y-127268329D01*
X185086903Y-127512298D01*
X185900000Y-128325395D01*
X185914143Y-128311253D01*
X186093748Y-128490858D01*
X186079605Y-128505000D01*
X186093748Y-128519143D01*
X185914143Y-128698748D01*
X185900000Y-128684605D01*
X185086903Y-129497702D01*
X185158486Y-129741671D01*
X185413996Y-129862571D01*
X185688184Y-129931300D01*
X185970512Y-129945217D01*
X186250130Y-129903787D01*
X186516292Y-129808603D01*
X186641514Y-129741671D01*
X186713097Y-129497704D01*
X186817000Y-129601607D01*
X186817000Y-130429000D01*
X164131718Y-130429000D01*
X163012592Y-129449764D01*
X169829841Y-129449764D01*
X169877148Y-129673348D01*
X170098516Y-129774237D01*
X170335313Y-129830000D01*
X170578438Y-129838495D01*
X170818549Y-129799395D01*
X171046418Y-129714202D01*
X171122852Y-129673348D01*
X171170159Y-129449764D01*
X175629841Y-129449764D01*
X175677148Y-129673348D01*
X175898516Y-129774237D01*
X176135313Y-129830000D01*
X176378438Y-129838495D01*
X176618549Y-129799395D01*
X176846418Y-129714202D01*
X176922852Y-129673348D01*
X176970159Y-129449764D01*
X176870159Y-129349764D01*
X180729841Y-129349764D01*
X180777148Y-129573348D01*
X180998516Y-129674237D01*
X181235313Y-129730000D01*
X181478438Y-129738495D01*
X181718549Y-129699395D01*
X181946418Y-129614202D01*
X182022852Y-129573348D01*
X182070159Y-129349764D01*
X181400000Y-128679605D01*
X180729841Y-129349764D01*
X176870159Y-129349764D01*
X176300000Y-128779605D01*
X175629841Y-129449764D01*
X171170159Y-129449764D01*
X170500000Y-128779605D01*
X169829841Y-129449764D01*
X163012592Y-129449764D01*
X162131076Y-128678438D01*
X169261505Y-128678438D01*
X169300605Y-128918549D01*
X169385798Y-129146418D01*
X169426652Y-129222852D01*
X169650236Y-129270159D01*
X170320395Y-128600000D01*
X170679605Y-128600000D01*
X171349764Y-129270159D01*
X171573348Y-129222852D01*
X171674237Y-129001484D01*
X171730000Y-128764687D01*
X171733013Y-128678438D01*
X175061505Y-128678438D01*
X175100605Y-128918549D01*
X175185798Y-129146418D01*
X175226652Y-129222852D01*
X175450236Y-129270159D01*
X176120395Y-128600000D01*
X176479605Y-128600000D01*
X177149764Y-129270159D01*
X177373348Y-129222852D01*
X177474237Y-129001484D01*
X177530000Y-128764687D01*
X177536507Y-128578438D01*
X180161505Y-128578438D01*
X180200605Y-128818549D01*
X180285798Y-129046418D01*
X180326652Y-129122852D01*
X180550236Y-129170159D01*
X181220395Y-128500000D01*
X181579605Y-128500000D01*
X182249764Y-129170159D01*
X182473348Y-129122852D01*
X182574237Y-128901484D01*
X182630000Y-128664687D01*
X182633115Y-128575512D01*
X184459783Y-128575512D01*
X184501213Y-128855130D01*
X184596397Y-129121292D01*
X184663329Y-129246514D01*
X184907298Y-129318097D01*
X185720395Y-128505000D01*
X184907298Y-127691903D01*
X184663329Y-127763486D01*
X184542429Y-128018996D01*
X184473700Y-128293184D01*
X184459783Y-128575512D01*
X182633115Y-128575512D01*
X182638495Y-128421562D01*
X182599395Y-128181451D01*
X182514202Y-127953582D01*
X182473348Y-127877148D01*
X182249764Y-127829841D01*
X181579605Y-128500000D01*
X181220395Y-128500000D01*
X180550236Y-127829841D01*
X180326652Y-127877148D01*
X180225763Y-128098516D01*
X180170000Y-128335313D01*
X180161505Y-128578438D01*
X177536507Y-128578438D01*
X177538495Y-128521562D01*
X177499395Y-128281451D01*
X177414202Y-128053582D01*
X177373348Y-127977148D01*
X177149764Y-127929841D01*
X176479605Y-128600000D01*
X176120395Y-128600000D01*
X175450236Y-127929841D01*
X175226652Y-127977148D01*
X175125763Y-128198516D01*
X175070000Y-128435313D01*
X175061505Y-128678438D01*
X171733013Y-128678438D01*
X171738495Y-128521562D01*
X171699395Y-128281451D01*
X171614202Y-128053582D01*
X171573348Y-127977148D01*
X171349764Y-127929841D01*
X170679605Y-128600000D01*
X170320395Y-128600000D01*
X169650236Y-127929841D01*
X169426652Y-127977148D01*
X169325763Y-128198516D01*
X169270000Y-128435313D01*
X169261505Y-128678438D01*
X162131076Y-128678438D01*
X160103630Y-126904423D01*
X160083377Y-126889944D01*
X160060688Y-126879694D01*
X160036436Y-126874068D01*
X160020000Y-126873000D01*
X150876000Y-126873000D01*
X150851224Y-126875440D01*
X150825972Y-126883269D01*
X143713972Y-129931269D01*
X143692160Y-129943271D01*
X143673109Y-129959299D01*
X143657551Y-129978735D01*
X143646083Y-130000833D01*
X143639147Y-130024744D01*
X143637000Y-130048000D01*
X143637000Y-138557000D01*
X120015000Y-138557000D01*
X120015000Y-128524000D01*
X120012560Y-128499224D01*
X120005333Y-128475399D01*
X119993597Y-128453443D01*
X119977803Y-128434197D01*
X119958557Y-128418403D01*
X119936601Y-128406667D01*
X119912776Y-128399440D01*
X119888000Y-128397000D01*
X116495359Y-128397000D01*
X116551185Y-128351185D01*
X116630537Y-128254494D01*
X116689502Y-128144180D01*
X116725812Y-128024482D01*
X116738072Y-127900000D01*
X116735000Y-126685750D01*
X116576250Y-126527000D01*
X114727000Y-126527000D01*
X114727000Y-126547000D01*
X114473000Y-126547000D01*
X114473000Y-126527000D01*
X114453000Y-126527000D01*
X114453000Y-126273000D01*
X114473000Y-126273000D01*
X114473000Y-126253000D01*
X114727000Y-126253000D01*
X114727000Y-126273000D01*
X116576250Y-126273000D01*
X116735000Y-126114250D01*
X116735289Y-126000000D01*
X169521176Y-126000000D01*
X169521176Y-127200000D01*
X169528455Y-127273905D01*
X169550012Y-127344970D01*
X169585019Y-127410463D01*
X169632131Y-127467869D01*
X169689537Y-127514981D01*
X169755030Y-127549988D01*
X169826095Y-127571545D01*
X169866801Y-127575554D01*
X169829841Y-127750236D01*
X170500000Y-128420395D01*
X171170159Y-127750236D01*
X171133199Y-127575554D01*
X171173905Y-127571545D01*
X171244970Y-127549988D01*
X171310463Y-127514981D01*
X171367869Y-127467869D01*
X171414981Y-127410463D01*
X171449988Y-127344970D01*
X171471545Y-127273905D01*
X171478824Y-127200000D01*
X171478824Y-126000000D01*
X175321176Y-126000000D01*
X175321176Y-127200000D01*
X175328455Y-127273905D01*
X175350012Y-127344970D01*
X175385019Y-127410463D01*
X175432131Y-127467869D01*
X175489537Y-127514981D01*
X175555030Y-127549988D01*
X175626095Y-127571545D01*
X175666801Y-127575554D01*
X175629841Y-127750236D01*
X176300000Y-128420395D01*
X176970159Y-127750236D01*
X176933199Y-127575554D01*
X176973905Y-127571545D01*
X177044970Y-127549988D01*
X177110463Y-127514981D01*
X177167869Y-127467869D01*
X177214981Y-127410463D01*
X177249988Y-127344970D01*
X177271545Y-127273905D01*
X177278824Y-127200000D01*
X177278824Y-126000000D01*
X177271545Y-125926095D01*
X177263630Y-125900000D01*
X180421176Y-125900000D01*
X180421176Y-127100000D01*
X180428455Y-127173905D01*
X180450012Y-127244970D01*
X180485019Y-127310463D01*
X180532131Y-127367869D01*
X180589537Y-127414981D01*
X180655030Y-127449988D01*
X180726095Y-127471545D01*
X180766801Y-127475554D01*
X180729841Y-127650236D01*
X181400000Y-128320395D01*
X182070159Y-127650236D01*
X182033199Y-127475554D01*
X182073905Y-127471545D01*
X182144970Y-127449988D01*
X182210463Y-127414981D01*
X182267869Y-127367869D01*
X182314981Y-127310463D01*
X182349988Y-127244970D01*
X182371545Y-127173905D01*
X182378824Y-127100000D01*
X182378824Y-125900000D01*
X182371545Y-125826095D01*
X182349988Y-125755030D01*
X182314981Y-125689537D01*
X182267869Y-125632131D01*
X182210463Y-125585019D01*
X182144970Y-125550012D01*
X182073905Y-125528455D01*
X182000000Y-125521176D01*
X180800000Y-125521176D01*
X180726095Y-125528455D01*
X180655030Y-125550012D01*
X180589537Y-125585019D01*
X180532131Y-125632131D01*
X180485019Y-125689537D01*
X180450012Y-125755030D01*
X180428455Y-125826095D01*
X180421176Y-125900000D01*
X177263630Y-125900000D01*
X177249988Y-125855030D01*
X177214981Y-125789537D01*
X177167869Y-125732131D01*
X177110463Y-125685019D01*
X177044970Y-125650012D01*
X176973905Y-125628455D01*
X176900000Y-125621176D01*
X175700000Y-125621176D01*
X175626095Y-125628455D01*
X175555030Y-125650012D01*
X175489537Y-125685019D01*
X175432131Y-125732131D01*
X175385019Y-125789537D01*
X175350012Y-125855030D01*
X175328455Y-125926095D01*
X175321176Y-126000000D01*
X171478824Y-126000000D01*
X171471545Y-125926095D01*
X171449988Y-125855030D01*
X171414981Y-125789537D01*
X171367869Y-125732131D01*
X171310463Y-125685019D01*
X171244970Y-125650012D01*
X171173905Y-125628455D01*
X171100000Y-125621176D01*
X169900000Y-125621176D01*
X169826095Y-125628455D01*
X169755030Y-125650012D01*
X169689537Y-125685019D01*
X169632131Y-125732131D01*
X169585019Y-125789537D01*
X169550012Y-125855030D01*
X169528455Y-125926095D01*
X169521176Y-126000000D01*
X116735289Y-126000000D01*
X116738072Y-124900000D01*
X116725812Y-124775518D01*
X116689502Y-124655820D01*
X116652716Y-124587000D01*
X119888000Y-124587000D01*
X119912776Y-124584560D01*
X119936601Y-124577333D01*
X119958557Y-124565597D01*
X119977803Y-124549803D01*
X119993597Y-124530557D01*
X120005333Y-124508601D01*
X120012560Y-124484776D01*
X120015000Y-124460000D01*
X120015000Y-124385413D01*
X129294192Y-124385413D01*
X129389956Y-124649814D01*
X129679571Y-124790704D01*
X129991108Y-124872384D01*
X130312595Y-124891718D01*
X130631675Y-124847961D01*
X130936088Y-124742795D01*
X131110044Y-124649814D01*
X131205808Y-124385413D01*
X130250000Y-123429605D01*
X129294192Y-124385413D01*
X120015000Y-124385413D01*
X120015000Y-123312595D01*
X128608282Y-123312595D01*
X128652039Y-123631675D01*
X128757205Y-123936088D01*
X128850186Y-124110044D01*
X129114587Y-124205808D01*
X130070395Y-123250000D01*
X130429605Y-123250000D01*
X131385413Y-124205808D01*
X131649814Y-124110044D01*
X131790704Y-123820429D01*
X131872384Y-123508892D01*
X131891718Y-123187405D01*
X131881704Y-123114377D01*
X133373000Y-123114377D01*
X133373000Y-123385623D01*
X133425917Y-123651656D01*
X133529718Y-123902254D01*
X133680414Y-124127787D01*
X133872213Y-124319586D01*
X134097746Y-124470282D01*
X134348344Y-124574083D01*
X134614377Y-124627000D01*
X134885623Y-124627000D01*
X135151656Y-124574083D01*
X135402254Y-124470282D01*
X135529269Y-124385413D01*
X140044192Y-124385413D01*
X140139956Y-124649814D01*
X140429571Y-124790704D01*
X140741108Y-124872384D01*
X141062595Y-124891718D01*
X141381675Y-124847961D01*
X141623616Y-124764377D01*
X194423000Y-124764377D01*
X194423000Y-125035623D01*
X194475917Y-125301656D01*
X194579718Y-125552254D01*
X194730414Y-125777787D01*
X194922213Y-125969586D01*
X195147746Y-126120282D01*
X195398344Y-126224083D01*
X195664377Y-126277000D01*
X195935623Y-126277000D01*
X196201656Y-126224083D01*
X196452254Y-126120282D01*
X196677787Y-125969586D01*
X196869586Y-125777787D01*
X197020282Y-125552254D01*
X197124083Y-125301656D01*
X197177000Y-125035623D01*
X197177000Y-124962595D01*
X204158282Y-124962595D01*
X204202039Y-125281675D01*
X204307205Y-125586088D01*
X204400186Y-125760044D01*
X204664587Y-125855808D01*
X205620395Y-124900000D01*
X205979605Y-124900000D01*
X206935413Y-125855808D01*
X207199814Y-125760044D01*
X207340704Y-125470429D01*
X207422384Y-125158892D01*
X207441718Y-124837405D01*
X207397961Y-124518325D01*
X207292795Y-124213912D01*
X207199814Y-124039956D01*
X206935413Y-123944192D01*
X205979605Y-124900000D01*
X205620395Y-124900000D01*
X204664587Y-123944192D01*
X204400186Y-124039956D01*
X204259296Y-124329571D01*
X204177616Y-124641108D01*
X204158282Y-124962595D01*
X197177000Y-124962595D01*
X197177000Y-124764377D01*
X197124083Y-124498344D01*
X197020282Y-124247746D01*
X196869586Y-124022213D01*
X196677787Y-123830414D01*
X196579270Y-123764587D01*
X204844192Y-123764587D01*
X205800000Y-124720395D01*
X206755808Y-123764587D01*
X206660044Y-123500186D01*
X206370429Y-123359296D01*
X206058892Y-123277616D01*
X205737405Y-123258282D01*
X205418325Y-123302039D01*
X205113912Y-123407205D01*
X204939956Y-123500186D01*
X204844192Y-123764587D01*
X196579270Y-123764587D01*
X196452254Y-123679718D01*
X196201656Y-123575917D01*
X195935623Y-123523000D01*
X195664377Y-123523000D01*
X195398344Y-123575917D01*
X195147746Y-123679718D01*
X194922213Y-123830414D01*
X194730414Y-124022213D01*
X194579718Y-124247746D01*
X194475917Y-124498344D01*
X194423000Y-124764377D01*
X141623616Y-124764377D01*
X141686088Y-124742795D01*
X141860044Y-124649814D01*
X141955808Y-124385413D01*
X141000000Y-123429605D01*
X140044192Y-124385413D01*
X135529269Y-124385413D01*
X135627787Y-124319586D01*
X135819586Y-124127787D01*
X135970282Y-123902254D01*
X136074083Y-123651656D01*
X136127000Y-123385623D01*
X136127000Y-123312595D01*
X139358282Y-123312595D01*
X139402039Y-123631675D01*
X139507205Y-123936088D01*
X139600186Y-124110044D01*
X139864587Y-124205808D01*
X140820395Y-123250000D01*
X141179605Y-123250000D01*
X142135413Y-124205808D01*
X142399814Y-124110044D01*
X142540704Y-123820429D01*
X142622384Y-123508892D01*
X142641718Y-123187405D01*
X142631704Y-123114377D01*
X144123000Y-123114377D01*
X144123000Y-123385623D01*
X144175917Y-123651656D01*
X144279718Y-123902254D01*
X144430414Y-124127787D01*
X144622213Y-124319586D01*
X144847746Y-124470282D01*
X145098344Y-124574083D01*
X145364377Y-124627000D01*
X145635623Y-124627000D01*
X145901656Y-124574083D01*
X146152254Y-124470282D01*
X146377787Y-124319586D01*
X146569586Y-124127787D01*
X146720282Y-123902254D01*
X146824083Y-123651656D01*
X146877000Y-123385623D01*
X146877000Y-123114377D01*
X146826297Y-122859472D01*
X173975000Y-122859472D01*
X173975000Y-123012528D01*
X174004859Y-123162643D01*
X174063431Y-123304048D01*
X174148464Y-123431309D01*
X174256691Y-123539536D01*
X174383952Y-123624569D01*
X174525357Y-123683141D01*
X174675472Y-123713000D01*
X174828528Y-123713000D01*
X174978643Y-123683141D01*
X175120048Y-123624569D01*
X175247309Y-123539536D01*
X175355536Y-123431309D01*
X175440569Y-123304048D01*
X175499141Y-123162643D01*
X175529000Y-123012528D01*
X175529000Y-122859472D01*
X179055000Y-122859472D01*
X179055000Y-123012528D01*
X179084859Y-123162643D01*
X179143431Y-123304048D01*
X179228464Y-123431309D01*
X179336691Y-123539536D01*
X179463952Y-123624569D01*
X179605357Y-123683141D01*
X179755472Y-123713000D01*
X179908528Y-123713000D01*
X180058643Y-123683141D01*
X180200048Y-123624569D01*
X180327309Y-123539536D01*
X180435536Y-123431309D01*
X180520569Y-123304048D01*
X180579141Y-123162643D01*
X180609000Y-123012528D01*
X180609000Y-122859472D01*
X180579141Y-122709357D01*
X180520569Y-122567952D01*
X180435536Y-122440691D01*
X180327309Y-122332464D01*
X180200048Y-122247431D01*
X180058643Y-122188859D01*
X179908528Y-122159000D01*
X179755472Y-122159000D01*
X179605357Y-122188859D01*
X179463952Y-122247431D01*
X179336691Y-122332464D01*
X179228464Y-122440691D01*
X179143431Y-122567952D01*
X179084859Y-122709357D01*
X179055000Y-122859472D01*
X175529000Y-122859472D01*
X175499141Y-122709357D01*
X175440569Y-122567952D01*
X175355536Y-122440691D01*
X175247309Y-122332464D01*
X175120048Y-122247431D01*
X174978643Y-122188859D01*
X174828528Y-122159000D01*
X174675472Y-122159000D01*
X174525357Y-122188859D01*
X174383952Y-122247431D01*
X174256691Y-122332464D01*
X174148464Y-122440691D01*
X174063431Y-122567952D01*
X174004859Y-122709357D01*
X173975000Y-122859472D01*
X146826297Y-122859472D01*
X146824083Y-122848344D01*
X146720282Y-122597746D01*
X146569586Y-122372213D01*
X146377787Y-122180414D01*
X146152254Y-122029718D01*
X145901656Y-121925917D01*
X145635623Y-121873000D01*
X145364377Y-121873000D01*
X145098344Y-121925917D01*
X144847746Y-122029718D01*
X144622213Y-122180414D01*
X144430414Y-122372213D01*
X144279718Y-122597746D01*
X144175917Y-122848344D01*
X144123000Y-123114377D01*
X142631704Y-123114377D01*
X142597961Y-122868325D01*
X142492795Y-122563912D01*
X142399814Y-122389956D01*
X142135413Y-122294192D01*
X141179605Y-123250000D01*
X140820395Y-123250000D01*
X139864587Y-122294192D01*
X139600186Y-122389956D01*
X139459296Y-122679571D01*
X139377616Y-122991108D01*
X139358282Y-123312595D01*
X136127000Y-123312595D01*
X136127000Y-123114377D01*
X136074083Y-122848344D01*
X135970282Y-122597746D01*
X135819586Y-122372213D01*
X135627787Y-122180414D01*
X135529270Y-122114587D01*
X140044192Y-122114587D01*
X141000000Y-123070395D01*
X141955808Y-122114587D01*
X141860044Y-121850186D01*
X141570429Y-121709296D01*
X141258892Y-121627616D01*
X140937405Y-121608282D01*
X140618325Y-121652039D01*
X140313912Y-121757205D01*
X140139956Y-121850186D01*
X140044192Y-122114587D01*
X135529270Y-122114587D01*
X135402254Y-122029718D01*
X135151656Y-121925917D01*
X134885623Y-121873000D01*
X134614377Y-121873000D01*
X134348344Y-121925917D01*
X134097746Y-122029718D01*
X133872213Y-122180414D01*
X133680414Y-122372213D01*
X133529718Y-122597746D01*
X133425917Y-122848344D01*
X133373000Y-123114377D01*
X131881704Y-123114377D01*
X131847961Y-122868325D01*
X131742795Y-122563912D01*
X131649814Y-122389956D01*
X131385413Y-122294192D01*
X130429605Y-123250000D01*
X130070395Y-123250000D01*
X129114587Y-122294192D01*
X128850186Y-122389956D01*
X128709296Y-122679571D01*
X128627616Y-122991108D01*
X128608282Y-123312595D01*
X120015000Y-123312595D01*
X120015000Y-122114587D01*
X129294192Y-122114587D01*
X130250000Y-123070395D01*
X131205808Y-122114587D01*
X131110044Y-121850186D01*
X130820429Y-121709296D01*
X130508892Y-121627616D01*
X130187405Y-121608282D01*
X129868325Y-121652039D01*
X129563912Y-121757205D01*
X129389956Y-121850186D01*
X129294192Y-122114587D01*
X120015000Y-122114587D01*
X120015000Y-119811472D01*
X173975000Y-119811472D01*
X173975000Y-119964528D01*
X174004859Y-120114643D01*
X174063431Y-120256048D01*
X174148464Y-120383309D01*
X174256691Y-120491536D01*
X174383952Y-120576569D01*
X174525357Y-120635141D01*
X174675472Y-120665000D01*
X174828528Y-120665000D01*
X174978643Y-120635141D01*
X175120048Y-120576569D01*
X175247309Y-120491536D01*
X175355536Y-120383309D01*
X175440569Y-120256048D01*
X175499141Y-120114643D01*
X175529000Y-119964528D01*
X175529000Y-119811472D01*
X175499141Y-119661357D01*
X175440569Y-119519952D01*
X175355536Y-119392691D01*
X175247309Y-119284464D01*
X175120048Y-119199431D01*
X174978643Y-119140859D01*
X174828528Y-119111000D01*
X174675472Y-119111000D01*
X174525357Y-119140859D01*
X174383952Y-119199431D01*
X174256691Y-119284464D01*
X174148464Y-119392691D01*
X174063431Y-119519952D01*
X174004859Y-119661357D01*
X173975000Y-119811472D01*
X120015000Y-119811472D01*
X120015000Y-117885413D01*
X129294192Y-117885413D01*
X129389956Y-118149814D01*
X129679571Y-118290704D01*
X129991108Y-118372384D01*
X130312595Y-118391718D01*
X130631675Y-118347961D01*
X130936088Y-118242795D01*
X131110044Y-118149814D01*
X131205808Y-117885413D01*
X130250000Y-116929605D01*
X129294192Y-117885413D01*
X120015000Y-117885413D01*
X120015000Y-116812595D01*
X128608282Y-116812595D01*
X128652039Y-117131675D01*
X128757205Y-117436088D01*
X128850186Y-117610044D01*
X129114587Y-117705808D01*
X130070395Y-116750000D01*
X130429605Y-116750000D01*
X131385413Y-117705808D01*
X131649814Y-117610044D01*
X131790704Y-117320429D01*
X131872384Y-117008892D01*
X131891718Y-116687405D01*
X131881704Y-116614377D01*
X133373000Y-116614377D01*
X133373000Y-116885623D01*
X133425917Y-117151656D01*
X133529718Y-117402254D01*
X133680414Y-117627787D01*
X133872213Y-117819586D01*
X134097746Y-117970282D01*
X134348344Y-118074083D01*
X134614377Y-118127000D01*
X134885623Y-118127000D01*
X135151656Y-118074083D01*
X135402254Y-117970282D01*
X135529269Y-117885413D01*
X140044192Y-117885413D01*
X140139956Y-118149814D01*
X140429571Y-118290704D01*
X140741108Y-118372384D01*
X141062595Y-118391718D01*
X141381675Y-118347961D01*
X141686088Y-118242795D01*
X141860044Y-118149814D01*
X141955808Y-117885413D01*
X141000000Y-116929605D01*
X140044192Y-117885413D01*
X135529269Y-117885413D01*
X135627787Y-117819586D01*
X135819586Y-117627787D01*
X135970282Y-117402254D01*
X136074083Y-117151656D01*
X136127000Y-116885623D01*
X136127000Y-116812595D01*
X139358282Y-116812595D01*
X139402039Y-117131675D01*
X139507205Y-117436088D01*
X139600186Y-117610044D01*
X139864587Y-117705808D01*
X140820395Y-116750000D01*
X141179605Y-116750000D01*
X142135413Y-117705808D01*
X142399814Y-117610044D01*
X142540704Y-117320429D01*
X142622384Y-117008892D01*
X142641718Y-116687405D01*
X142631704Y-116614377D01*
X144123000Y-116614377D01*
X144123000Y-116885623D01*
X144175917Y-117151656D01*
X144279718Y-117402254D01*
X144430414Y-117627787D01*
X144622213Y-117819586D01*
X144847746Y-117970282D01*
X145098344Y-118074083D01*
X145364377Y-118127000D01*
X145635623Y-118127000D01*
X145901656Y-118074083D01*
X146152254Y-117970282D01*
X146377787Y-117819586D01*
X146569586Y-117627787D01*
X146720282Y-117402254D01*
X146824083Y-117151656D01*
X146877000Y-116885623D01*
X146877000Y-116614377D01*
X146824083Y-116348344D01*
X146720282Y-116097746D01*
X146569586Y-115872213D01*
X146377787Y-115680414D01*
X146152254Y-115529718D01*
X145901656Y-115425917D01*
X145635623Y-115373000D01*
X145364377Y-115373000D01*
X145098344Y-115425917D01*
X144847746Y-115529718D01*
X144622213Y-115680414D01*
X144430414Y-115872213D01*
X144279718Y-116097746D01*
X144175917Y-116348344D01*
X144123000Y-116614377D01*
X142631704Y-116614377D01*
X142597961Y-116368325D01*
X142492795Y-116063912D01*
X142399814Y-115889956D01*
X142135413Y-115794192D01*
X141179605Y-116750000D01*
X140820395Y-116750000D01*
X139864587Y-115794192D01*
X139600186Y-115889956D01*
X139459296Y-116179571D01*
X139377616Y-116491108D01*
X139358282Y-116812595D01*
X136127000Y-116812595D01*
X136127000Y-116614377D01*
X136074083Y-116348344D01*
X135970282Y-116097746D01*
X135819586Y-115872213D01*
X135627787Y-115680414D01*
X135529270Y-115614587D01*
X140044192Y-115614587D01*
X141000000Y-116570395D01*
X141955808Y-115614587D01*
X141860044Y-115350186D01*
X141570429Y-115209296D01*
X141258892Y-115127616D01*
X140937405Y-115108282D01*
X140618325Y-115152039D01*
X140313912Y-115257205D01*
X140139956Y-115350186D01*
X140044192Y-115614587D01*
X135529270Y-115614587D01*
X135402254Y-115529718D01*
X135151656Y-115425917D01*
X134885623Y-115373000D01*
X134614377Y-115373000D01*
X134348344Y-115425917D01*
X134097746Y-115529718D01*
X133872213Y-115680414D01*
X133680414Y-115872213D01*
X133529718Y-116097746D01*
X133425917Y-116348344D01*
X133373000Y-116614377D01*
X131881704Y-116614377D01*
X131847961Y-116368325D01*
X131742795Y-116063912D01*
X131649814Y-115889956D01*
X131385413Y-115794192D01*
X130429605Y-116750000D01*
X130070395Y-116750000D01*
X129114587Y-115794192D01*
X128850186Y-115889956D01*
X128709296Y-116179571D01*
X128627616Y-116491108D01*
X128608282Y-116812595D01*
X120015000Y-116812595D01*
X120015000Y-115614587D01*
X129294192Y-115614587D01*
X130250000Y-116570395D01*
X131205808Y-115614587D01*
X131110044Y-115350186D01*
X130820429Y-115209296D01*
X130508892Y-115127616D01*
X130187405Y-115108282D01*
X129868325Y-115152039D01*
X129563912Y-115257205D01*
X129389956Y-115350186D01*
X129294192Y-115614587D01*
X120015000Y-115614587D01*
X120015000Y-112268000D01*
X120012560Y-112243224D01*
X120005333Y-112219399D01*
X119993597Y-112197443D01*
X119977803Y-112178197D01*
X119958557Y-112162403D01*
X119936601Y-112150667D01*
X119912776Y-112143440D01*
X119888000Y-112141000D01*
X116720801Y-112141000D01*
X116725812Y-112124482D01*
X116738072Y-112000000D01*
X116735023Y-110794472D01*
X130160000Y-110794472D01*
X130160000Y-110947528D01*
X130189859Y-111097643D01*
X130248431Y-111239048D01*
X130333464Y-111366309D01*
X130441691Y-111474536D01*
X130568952Y-111559569D01*
X130710357Y-111618141D01*
X130860472Y-111648000D01*
X131013528Y-111648000D01*
X131163643Y-111618141D01*
X131305048Y-111559569D01*
X131432309Y-111474536D01*
X131540536Y-111366309D01*
X131625569Y-111239048D01*
X131684141Y-111097643D01*
X131714000Y-110947528D01*
X131714000Y-110839289D01*
X132552290Y-110001000D01*
X141541155Y-110001000D01*
X141617691Y-110077536D01*
X141744952Y-110162569D01*
X141886357Y-110221141D01*
X142036472Y-110251000D01*
X142189528Y-110251000D01*
X142339643Y-110221141D01*
X142481048Y-110162569D01*
X142608309Y-110077536D01*
X142716536Y-109969309D01*
X142801569Y-109842048D01*
X142860141Y-109700643D01*
X142890000Y-109550528D01*
X142890000Y-109397472D01*
X142860141Y-109247357D01*
X142801569Y-109105952D01*
X142716536Y-108978691D01*
X142640000Y-108902155D01*
X142640000Y-96447818D01*
X149161000Y-96447818D01*
X149161000Y-96672182D01*
X149204771Y-96892234D01*
X149290631Y-97099519D01*
X149415281Y-97286070D01*
X149573930Y-97444719D01*
X149760481Y-97569369D01*
X149967766Y-97655229D01*
X150187818Y-97699000D01*
X150412182Y-97699000D01*
X150632234Y-97655229D01*
X150839519Y-97569369D01*
X151026070Y-97444719D01*
X151184719Y-97286070D01*
X151309369Y-97099519D01*
X151395229Y-96892234D01*
X151439000Y-96672182D01*
X151439000Y-96447818D01*
X151395229Y-96227766D01*
X151309369Y-96020481D01*
X151184719Y-95833930D01*
X151026070Y-95675281D01*
X150839519Y-95550631D01*
X150632234Y-95464771D01*
X150412182Y-95421000D01*
X150187818Y-95421000D01*
X149967766Y-95464771D01*
X149760481Y-95550631D01*
X149573930Y-95675281D01*
X149415281Y-95833930D01*
X149290631Y-96020481D01*
X149204771Y-96227766D01*
X149161000Y-96447818D01*
X142640000Y-96447818D01*
X142640000Y-94579289D01*
X143311471Y-93907818D01*
X149161000Y-93907818D01*
X149161000Y-94132182D01*
X149204771Y-94352234D01*
X149290631Y-94559519D01*
X149415281Y-94746070D01*
X149573930Y-94904719D01*
X149760481Y-95029369D01*
X149967766Y-95115229D01*
X150187818Y-95159000D01*
X150412182Y-95159000D01*
X150632234Y-95115229D01*
X150839519Y-95029369D01*
X151026070Y-94904719D01*
X151184719Y-94746070D01*
X151309369Y-94559519D01*
X151395229Y-94352234D01*
X151439000Y-94132182D01*
X151439000Y-93907818D01*
X151395229Y-93687766D01*
X151309369Y-93480481D01*
X151184719Y-93293930D01*
X151026070Y-93135281D01*
X150839519Y-93010631D01*
X150632234Y-92924771D01*
X150412182Y-92881000D01*
X150187818Y-92881000D01*
X149967766Y-92924771D01*
X149760481Y-93010631D01*
X149573930Y-93135281D01*
X149415281Y-93293930D01*
X149290631Y-93480481D01*
X149204771Y-93687766D01*
X149161000Y-93907818D01*
X143311471Y-93907818D01*
X144113290Y-93106000D01*
X144221528Y-93106000D01*
X144371643Y-93076141D01*
X144513048Y-93017569D01*
X144640309Y-92932536D01*
X144748536Y-92824309D01*
X144833569Y-92697048D01*
X144892141Y-92555643D01*
X144922000Y-92405528D01*
X144922000Y-92252472D01*
X144892141Y-92102357D01*
X144833569Y-91960952D01*
X144748536Y-91833691D01*
X144640309Y-91725464D01*
X144513048Y-91640431D01*
X144371643Y-91581859D01*
X144221528Y-91552000D01*
X144203399Y-91552000D01*
X144058149Y-91367818D01*
X149161000Y-91367818D01*
X149161000Y-91592182D01*
X149204771Y-91812234D01*
X149290631Y-92019519D01*
X149415281Y-92206070D01*
X149573930Y-92364719D01*
X149760481Y-92489369D01*
X149967766Y-92575229D01*
X150187818Y-92619000D01*
X150412182Y-92619000D01*
X150632234Y-92575229D01*
X150839519Y-92489369D01*
X151026070Y-92364719D01*
X151184719Y-92206070D01*
X151309369Y-92019519D01*
X151395229Y-91812234D01*
X151439000Y-91592182D01*
X151439000Y-91367818D01*
X151395229Y-91147766D01*
X151309369Y-90940481D01*
X151184719Y-90753930D01*
X151026070Y-90595281D01*
X150839519Y-90470631D01*
X150632234Y-90384771D01*
X150412182Y-90341000D01*
X150187818Y-90341000D01*
X149967766Y-90384771D01*
X149760481Y-90470631D01*
X149573930Y-90595281D01*
X149415281Y-90753930D01*
X149290631Y-90940481D01*
X149204771Y-91147766D01*
X149161000Y-91367818D01*
X144058149Y-91367818D01*
X143910000Y-91179962D01*
X143910000Y-88827818D01*
X149161000Y-88827818D01*
X149161000Y-89052182D01*
X149204771Y-89272234D01*
X149290631Y-89479519D01*
X149415281Y-89666070D01*
X149573930Y-89824719D01*
X149760481Y-89949369D01*
X149967766Y-90035229D01*
X150187818Y-90079000D01*
X150412182Y-90079000D01*
X150632234Y-90035229D01*
X150839519Y-89949369D01*
X151026070Y-89824719D01*
X151184719Y-89666070D01*
X151309369Y-89479519D01*
X151395229Y-89272234D01*
X151439000Y-89052182D01*
X151439000Y-88827818D01*
X151395229Y-88607766D01*
X151309369Y-88400481D01*
X151184719Y-88213930D01*
X151026070Y-88055281D01*
X150839519Y-87930631D01*
X150632234Y-87844771D01*
X150412182Y-87801000D01*
X150187818Y-87801000D01*
X149967766Y-87844771D01*
X149760481Y-87930631D01*
X149573930Y-88055281D01*
X149415281Y-88213930D01*
X149290631Y-88400481D01*
X149204771Y-88607766D01*
X149161000Y-88827818D01*
X143910000Y-88827818D01*
X143910000Y-86287818D01*
X149161000Y-86287818D01*
X149161000Y-86512182D01*
X149204771Y-86732234D01*
X149290631Y-86939519D01*
X149415281Y-87126070D01*
X149573930Y-87284719D01*
X149760481Y-87409369D01*
X149967766Y-87495229D01*
X150187818Y-87539000D01*
X150412182Y-87539000D01*
X150632234Y-87495229D01*
X150839519Y-87409369D01*
X151026070Y-87284719D01*
X151184719Y-87126070D01*
X151309369Y-86939519D01*
X151395229Y-86732234D01*
X151439000Y-86512182D01*
X151439000Y-86287818D01*
X151395229Y-86067766D01*
X151309369Y-85860481D01*
X151184719Y-85673930D01*
X151026070Y-85515281D01*
X150839519Y-85390631D01*
X150632234Y-85304771D01*
X150412182Y-85261000D01*
X150187818Y-85261000D01*
X149967766Y-85304771D01*
X149760481Y-85390631D01*
X149573930Y-85515281D01*
X149415281Y-85673930D01*
X149290631Y-85860481D01*
X149204771Y-86067766D01*
X149161000Y-86287818D01*
X143910000Y-86287818D01*
X143910000Y-84137845D01*
X143986536Y-84061309D01*
X144071569Y-83934048D01*
X144130141Y-83792643D01*
X144139057Y-83747818D01*
X149161000Y-83747818D01*
X149161000Y-83972182D01*
X149204771Y-84192234D01*
X149290631Y-84399519D01*
X149415281Y-84586070D01*
X149573930Y-84744719D01*
X149760481Y-84869369D01*
X149967766Y-84955229D01*
X150187818Y-84999000D01*
X150412182Y-84999000D01*
X150632234Y-84955229D01*
X150839519Y-84869369D01*
X151026070Y-84744719D01*
X151184719Y-84586070D01*
X151309369Y-84399519D01*
X151395229Y-84192234D01*
X151439000Y-83972182D01*
X151439000Y-83747818D01*
X151395229Y-83527766D01*
X151309369Y-83320481D01*
X151184719Y-83133930D01*
X151026070Y-82975281D01*
X150839519Y-82850631D01*
X150632234Y-82764771D01*
X150412182Y-82721000D01*
X150187818Y-82721000D01*
X149967766Y-82764771D01*
X149760481Y-82850631D01*
X149573930Y-82975281D01*
X149415281Y-83133930D01*
X149290631Y-83320481D01*
X149204771Y-83527766D01*
X149161000Y-83747818D01*
X144139057Y-83747818D01*
X144160000Y-83642528D01*
X144160000Y-83489472D01*
X144130141Y-83339357D01*
X144071569Y-83197952D01*
X143986536Y-83070691D01*
X143916685Y-83000840D01*
X143937779Y-81207818D01*
X149161000Y-81207818D01*
X149161000Y-81432182D01*
X149204771Y-81652234D01*
X149290631Y-81859519D01*
X149415281Y-82046070D01*
X149573930Y-82204719D01*
X149760481Y-82329369D01*
X149967766Y-82415229D01*
X150187818Y-82459000D01*
X150412182Y-82459000D01*
X150632234Y-82415229D01*
X150839519Y-82329369D01*
X151026070Y-82204719D01*
X151184719Y-82046070D01*
X151309369Y-81859519D01*
X151395229Y-81652234D01*
X151439000Y-81432182D01*
X151439000Y-81207818D01*
X151395229Y-80987766D01*
X151309369Y-80780481D01*
X151184719Y-80593930D01*
X151026070Y-80435281D01*
X150839519Y-80310631D01*
X150632234Y-80224771D01*
X150412182Y-80181000D01*
X150187818Y-80181000D01*
X149967766Y-80224771D01*
X149760481Y-80310631D01*
X149573930Y-80435281D01*
X149415281Y-80593930D01*
X149290631Y-80780481D01*
X149204771Y-80987766D01*
X149161000Y-81207818D01*
X143937779Y-81207818D01*
X143967661Y-78667818D01*
X149161000Y-78667818D01*
X149161000Y-78892182D01*
X149204771Y-79112234D01*
X149290631Y-79319519D01*
X149415281Y-79506070D01*
X149573930Y-79664719D01*
X149760481Y-79789369D01*
X149967766Y-79875229D01*
X150187818Y-79919000D01*
X150412182Y-79919000D01*
X150632234Y-79875229D01*
X150839519Y-79789369D01*
X151026070Y-79664719D01*
X151184719Y-79506070D01*
X151309369Y-79319519D01*
X151395229Y-79112234D01*
X151439000Y-78892182D01*
X151439000Y-78667818D01*
X151395229Y-78447766D01*
X151309369Y-78240481D01*
X151184719Y-78053930D01*
X151026070Y-77895281D01*
X150839519Y-77770631D01*
X150632234Y-77684771D01*
X150412182Y-77641000D01*
X150187818Y-77641000D01*
X149967766Y-77684771D01*
X149760481Y-77770631D01*
X149573930Y-77895281D01*
X149415281Y-78053930D01*
X149290631Y-78240481D01*
X149204771Y-78447766D01*
X149161000Y-78667818D01*
X143967661Y-78667818D01*
X143997543Y-76127818D01*
X149161000Y-76127818D01*
X149161000Y-76352182D01*
X149204771Y-76572234D01*
X149290631Y-76779519D01*
X149415281Y-76966070D01*
X149573930Y-77124719D01*
X149760481Y-77249369D01*
X149967766Y-77335229D01*
X150187818Y-77379000D01*
X150412182Y-77379000D01*
X150632234Y-77335229D01*
X150839519Y-77249369D01*
X151026070Y-77124719D01*
X151184719Y-76966070D01*
X151309369Y-76779519D01*
X151395229Y-76572234D01*
X151439000Y-76352182D01*
X151439000Y-76127818D01*
X151395229Y-75907766D01*
X151309369Y-75700481D01*
X151184719Y-75513930D01*
X151026070Y-75355281D01*
X150839519Y-75230631D01*
X150632234Y-75144771D01*
X150412182Y-75101000D01*
X150187818Y-75101000D01*
X149967766Y-75144771D01*
X149760481Y-75230631D01*
X149573930Y-75355281D01*
X149415281Y-75513930D01*
X149290631Y-75700481D01*
X149204771Y-75907766D01*
X149161000Y-76127818D01*
X143997543Y-76127818D01*
X144027425Y-73587818D01*
X149161000Y-73587818D01*
X149161000Y-73812182D01*
X149204771Y-74032234D01*
X149290631Y-74239519D01*
X149415281Y-74426070D01*
X149573930Y-74584719D01*
X149760481Y-74709369D01*
X149967766Y-74795229D01*
X150187818Y-74839000D01*
X150412182Y-74839000D01*
X150632234Y-74795229D01*
X150839519Y-74709369D01*
X151026070Y-74584719D01*
X151184719Y-74426070D01*
X151309369Y-74239519D01*
X151395229Y-74032234D01*
X151439000Y-73812182D01*
X151439000Y-73587818D01*
X151395229Y-73367766D01*
X151309369Y-73160481D01*
X151184719Y-72973930D01*
X151026070Y-72815281D01*
X150839519Y-72690631D01*
X150632234Y-72604771D01*
X150412182Y-72561000D01*
X150187818Y-72561000D01*
X149967766Y-72604771D01*
X149760481Y-72690631D01*
X149573930Y-72815281D01*
X149415281Y-72973930D01*
X149290631Y-73160481D01*
X149204771Y-73367766D01*
X149161000Y-73587818D01*
X144027425Y-73587818D01*
X144030228Y-73349617D01*
X144113536Y-73266309D01*
X144198569Y-73139048D01*
X144257141Y-72997643D01*
X144287000Y-72847528D01*
X144287000Y-72694472D01*
X144257141Y-72544357D01*
X144198569Y-72402952D01*
X144113536Y-72275691D01*
X144031191Y-72193346D01*
X144019621Y-71047818D01*
X149161000Y-71047818D01*
X149161000Y-71272182D01*
X149204771Y-71492234D01*
X149290631Y-71699519D01*
X149415281Y-71886070D01*
X149573930Y-72044719D01*
X149760481Y-72169369D01*
X149967766Y-72255229D01*
X150187818Y-72299000D01*
X150412182Y-72299000D01*
X150632234Y-72255229D01*
X150839519Y-72169369D01*
X151026070Y-72044719D01*
X151184719Y-71886070D01*
X151309369Y-71699519D01*
X151395229Y-71492234D01*
X151439000Y-71272182D01*
X151439000Y-71047818D01*
X151395229Y-70827766D01*
X151309369Y-70620481D01*
X151184719Y-70433930D01*
X151026070Y-70275281D01*
X150839519Y-70150631D01*
X150632234Y-70064771D01*
X150412182Y-70021000D01*
X150187818Y-70021000D01*
X149967766Y-70064771D01*
X149760481Y-70150631D01*
X149573930Y-70275281D01*
X149415281Y-70433930D01*
X149290631Y-70620481D01*
X149204771Y-70827766D01*
X149161000Y-71047818D01*
X144019621Y-71047818D01*
X143993965Y-68507818D01*
X149161000Y-68507818D01*
X149161000Y-68732182D01*
X149204771Y-68952234D01*
X149290631Y-69159519D01*
X149415281Y-69346070D01*
X149573930Y-69504719D01*
X149760481Y-69629369D01*
X149967766Y-69715229D01*
X150187818Y-69759000D01*
X150412182Y-69759000D01*
X150632234Y-69715229D01*
X150839519Y-69629369D01*
X151026070Y-69504719D01*
X151184719Y-69346070D01*
X151309369Y-69159519D01*
X151395229Y-68952234D01*
X151439000Y-68732182D01*
X151439000Y-68507818D01*
X151395229Y-68287766D01*
X151309369Y-68080481D01*
X151184719Y-67893930D01*
X151026070Y-67735281D01*
X150839519Y-67610631D01*
X150632234Y-67524771D01*
X150412182Y-67481000D01*
X150187818Y-67481000D01*
X149967766Y-67524771D01*
X149760481Y-67610631D01*
X149573930Y-67735281D01*
X149415281Y-67893930D01*
X149290631Y-68080481D01*
X149204771Y-68287766D01*
X149161000Y-68507818D01*
X143993965Y-68507818D01*
X143968308Y-65967818D01*
X149161000Y-65967818D01*
X149161000Y-66192182D01*
X149204771Y-66412234D01*
X149290631Y-66619519D01*
X149415281Y-66806070D01*
X149573930Y-66964719D01*
X149760481Y-67089369D01*
X149967766Y-67175229D01*
X150187818Y-67219000D01*
X150412182Y-67219000D01*
X150632234Y-67175229D01*
X150839519Y-67089369D01*
X151026070Y-66964719D01*
X151184719Y-66806070D01*
X151309369Y-66619519D01*
X151395229Y-66412234D01*
X151439000Y-66192182D01*
X151439000Y-65967818D01*
X151395229Y-65747766D01*
X151309369Y-65540481D01*
X151184719Y-65353930D01*
X151026070Y-65195281D01*
X150839519Y-65070631D01*
X150632234Y-64984771D01*
X150412182Y-64941000D01*
X150378058Y-64941000D01*
X150644133Y-64900922D01*
X150903023Y-64807636D01*
X151018980Y-64745656D01*
X151085960Y-64505565D01*
X150300000Y-63719605D01*
X149514040Y-64505565D01*
X149581020Y-64745656D01*
X149830048Y-64862756D01*
X150097135Y-64929023D01*
X150352607Y-64941000D01*
X150187818Y-64941000D01*
X149967766Y-64984771D01*
X149760481Y-65070631D01*
X149573930Y-65195281D01*
X149415281Y-65353930D01*
X149290631Y-65540481D01*
X149204771Y-65747766D01*
X149161000Y-65967818D01*
X143968308Y-65967818D01*
X143915744Y-60764101D01*
X143986536Y-60693309D01*
X144071569Y-60566048D01*
X144130141Y-60424643D01*
X144160000Y-60274528D01*
X144160000Y-60121472D01*
X144130141Y-59971357D01*
X144071569Y-59829952D01*
X143986536Y-59702691D01*
X143878309Y-59594464D01*
X143751048Y-59509431D01*
X143609643Y-59450859D01*
X143459528Y-59421000D01*
X143306472Y-59421000D01*
X143156357Y-59450859D01*
X143014952Y-59509431D01*
X142887691Y-59594464D01*
X142779464Y-59702691D01*
X142694431Y-59829952D01*
X142635859Y-59971357D01*
X142606000Y-60121472D01*
X142606000Y-60274528D01*
X142635859Y-60424643D01*
X142694431Y-60566048D01*
X142779464Y-60693309D01*
X142861809Y-60775654D01*
X142977256Y-72204899D01*
X142906464Y-72275691D01*
X142821431Y-72402952D01*
X142762859Y-72544357D01*
X142733000Y-72694472D01*
X142733000Y-72847528D01*
X142762859Y-72997643D01*
X142821431Y-73139048D01*
X142906464Y-73266309D01*
X142976315Y-73336160D01*
X142862772Y-82987383D01*
X142779464Y-83070691D01*
X142694431Y-83197952D01*
X142635859Y-83339357D01*
X142606000Y-83489472D01*
X142606000Y-83642528D01*
X142635859Y-83792643D01*
X142694431Y-83934048D01*
X142779464Y-84061309D01*
X142856000Y-84137845D01*
X142856001Y-91357647D01*
X142855091Y-91404403D01*
X142860574Y-91435075D01*
X142863627Y-91466072D01*
X142869686Y-91486044D01*
X142873359Y-91506593D01*
X142884720Y-91535604D01*
X142893762Y-91565412D01*
X142903600Y-91583818D01*
X142911212Y-91603256D01*
X142928013Y-91629492D01*
X142942697Y-91656964D01*
X142972341Y-91693086D01*
X143377162Y-92206411D01*
X143368000Y-92252472D01*
X143368000Y-92360710D01*
X141758666Y-93970045D01*
X141738552Y-93986552D01*
X141672696Y-94066798D01*
X141647333Y-94114250D01*
X141623761Y-94158351D01*
X141593626Y-94257691D01*
X141583451Y-94361000D01*
X141586000Y-94386881D01*
X141586001Y-108902154D01*
X141541155Y-108947000D01*
X132359877Y-108947000D01*
X132333999Y-108944451D01*
X132308121Y-108947000D01*
X132308119Y-108947000D01*
X132230690Y-108954626D01*
X132131350Y-108984761D01*
X132039798Y-109033696D01*
X131959552Y-109099552D01*
X131943049Y-109119661D01*
X130968711Y-110094000D01*
X130860472Y-110094000D01*
X130710357Y-110123859D01*
X130568952Y-110182431D01*
X130441691Y-110267464D01*
X130333464Y-110375691D01*
X130248431Y-110502952D01*
X130189859Y-110644357D01*
X130160000Y-110794472D01*
X116735023Y-110794472D01*
X116735000Y-110785750D01*
X116576250Y-110627000D01*
X114727000Y-110627000D01*
X114727000Y-110647000D01*
X114473000Y-110647000D01*
X114473000Y-110627000D01*
X114453000Y-110627000D01*
X114453000Y-110373000D01*
X114473000Y-110373000D01*
X114473000Y-110353000D01*
X114727000Y-110353000D01*
X114727000Y-110373000D01*
X116576250Y-110373000D01*
X116735000Y-110214250D01*
X116738072Y-109000000D01*
X116725812Y-108875518D01*
X116714734Y-108839000D01*
X119888000Y-108839000D01*
X119912776Y-108836560D01*
X119936601Y-108829333D01*
X119958557Y-108817597D01*
X119977803Y-108801803D01*
X119993597Y-108782557D01*
X120005333Y-108760601D01*
X120012560Y-108736776D01*
X120015000Y-108712000D01*
X120015000Y-97589039D01*
X128358096Y-97589039D01*
X128398754Y-97723087D01*
X128518963Y-97977420D01*
X128686481Y-98203414D01*
X128894869Y-98392385D01*
X129136119Y-98537070D01*
X129400960Y-98631909D01*
X129623000Y-98510624D01*
X129623000Y-97367000D01*
X129877000Y-97367000D01*
X129877000Y-98510624D01*
X130099040Y-98631909D01*
X130363881Y-98537070D01*
X130605131Y-98392385D01*
X130813519Y-98203414D01*
X130981037Y-97977420D01*
X131101246Y-97723087D01*
X131141904Y-97589039D01*
X135978096Y-97589039D01*
X136018754Y-97723087D01*
X136138963Y-97977420D01*
X136306481Y-98203414D01*
X136514869Y-98392385D01*
X136756119Y-98537070D01*
X137020960Y-98631909D01*
X137243000Y-98510624D01*
X137243000Y-97367000D01*
X137497000Y-97367000D01*
X137497000Y-98510624D01*
X137719040Y-98631909D01*
X137983881Y-98537070D01*
X138225131Y-98392385D01*
X138433519Y-98203414D01*
X138601037Y-97977420D01*
X138721246Y-97723087D01*
X138761904Y-97589039D01*
X138639915Y-97367000D01*
X137497000Y-97367000D01*
X137243000Y-97367000D01*
X136100085Y-97367000D01*
X135978096Y-97589039D01*
X131141904Y-97589039D01*
X131019915Y-97367000D01*
X129877000Y-97367000D01*
X129623000Y-97367000D01*
X128480085Y-97367000D01*
X128358096Y-97589039D01*
X120015000Y-97589039D01*
X120015000Y-96890961D01*
X128358096Y-96890961D01*
X128480085Y-97113000D01*
X129623000Y-97113000D01*
X129623000Y-97093000D01*
X129877000Y-97093000D01*
X129877000Y-97113000D01*
X131019915Y-97113000D01*
X131141904Y-96890961D01*
X135978096Y-96890961D01*
X136100085Y-97113000D01*
X137243000Y-97113000D01*
X137243000Y-97093000D01*
X137497000Y-97093000D01*
X137497000Y-97113000D01*
X138639915Y-97113000D01*
X138761904Y-96890961D01*
X138721246Y-96756913D01*
X138601037Y-96502580D01*
X138433519Y-96276586D01*
X138225131Y-96087615D01*
X137983881Y-95942930D01*
X137719040Y-95848091D01*
X137497002Y-95969375D01*
X137497002Y-95874796D01*
X137713318Y-95831769D01*
X137927519Y-95743044D01*
X138120294Y-95614236D01*
X138284236Y-95450294D01*
X138413044Y-95257519D01*
X138501769Y-95043318D01*
X138547000Y-94815924D01*
X138547000Y-94584076D01*
X138501769Y-94356682D01*
X138413044Y-94142481D01*
X138284236Y-93949706D01*
X138120294Y-93785764D01*
X137927519Y-93656956D01*
X137713318Y-93568231D01*
X137485924Y-93523000D01*
X137254076Y-93523000D01*
X137026682Y-93568231D01*
X136812481Y-93656956D01*
X136619706Y-93785764D01*
X136455764Y-93949706D01*
X136326956Y-94142481D01*
X136238231Y-94356682D01*
X136193000Y-94584076D01*
X136193000Y-94815924D01*
X136238231Y-95043318D01*
X136326956Y-95257519D01*
X136455764Y-95450294D01*
X136619706Y-95614236D01*
X136812481Y-95743044D01*
X137026682Y-95831769D01*
X137242998Y-95874796D01*
X137242998Y-95969375D01*
X137020960Y-95848091D01*
X136756119Y-95942930D01*
X136514869Y-96087615D01*
X136306481Y-96276586D01*
X136138963Y-96502580D01*
X136018754Y-96756913D01*
X135978096Y-96890961D01*
X131141904Y-96890961D01*
X131101246Y-96756913D01*
X130981037Y-96502580D01*
X130813519Y-96276586D01*
X130605131Y-96087615D01*
X130363881Y-95942930D01*
X130184863Y-95878824D01*
X130550000Y-95878824D01*
X130623905Y-95871545D01*
X130694970Y-95849988D01*
X130760463Y-95814981D01*
X130817869Y-95767869D01*
X130864981Y-95710463D01*
X130899988Y-95644970D01*
X130921545Y-95573905D01*
X130928824Y-95500000D01*
X130928824Y-93900000D01*
X130921545Y-93826095D01*
X130899988Y-93755030D01*
X130864981Y-93689537D01*
X130817869Y-93632131D01*
X130760463Y-93585019D01*
X130694970Y-93550012D01*
X130623905Y-93528455D01*
X130550000Y-93521176D01*
X128950000Y-93521176D01*
X128876095Y-93528455D01*
X128805030Y-93550012D01*
X128739537Y-93585019D01*
X128682131Y-93632131D01*
X128635019Y-93689537D01*
X128600012Y-93755030D01*
X128578455Y-93826095D01*
X128571176Y-93900000D01*
X128571176Y-95500000D01*
X128578455Y-95573905D01*
X128600012Y-95644970D01*
X128635019Y-95710463D01*
X128682131Y-95767869D01*
X128739537Y-95814981D01*
X128805030Y-95849988D01*
X128876095Y-95871545D01*
X128950000Y-95878824D01*
X129315137Y-95878824D01*
X129136119Y-95942930D01*
X128894869Y-96087615D01*
X128686481Y-96276586D01*
X128518963Y-96502580D01*
X128398754Y-96756913D01*
X128358096Y-96890961D01*
X120015000Y-96890961D01*
X120015000Y-96520000D01*
X120012560Y-96495224D01*
X120005333Y-96471399D01*
X119993597Y-96449443D01*
X119977803Y-96430197D01*
X119958557Y-96414403D01*
X119936601Y-96402667D01*
X119912776Y-96395440D01*
X119888000Y-96393000D01*
X116500233Y-96393000D01*
X116551185Y-96351185D01*
X116630537Y-96254494D01*
X116689502Y-96144180D01*
X116725812Y-96024482D01*
X116738072Y-95900000D01*
X116735000Y-94685750D01*
X116576250Y-94527000D01*
X114727000Y-94527000D01*
X114727000Y-94547000D01*
X114473000Y-94547000D01*
X114473000Y-94527000D01*
X114453000Y-94527000D01*
X114453000Y-94273000D01*
X114473000Y-94273000D01*
X114473000Y-94253000D01*
X114727000Y-94253000D01*
X114727000Y-94273000D01*
X116576250Y-94273000D01*
X116735000Y-94114250D01*
X116738072Y-92900000D01*
X116725812Y-92775518D01*
X116689502Y-92655820D01*
X116650578Y-92583000D01*
X119888000Y-92583000D01*
X119912776Y-92580560D01*
X119936601Y-92573333D01*
X119958557Y-92561597D01*
X119977803Y-92545803D01*
X119993597Y-92526557D01*
X120005333Y-92504601D01*
X120012560Y-92480776D01*
X120015000Y-92456000D01*
X120015000Y-86519039D01*
X128263096Y-86519039D01*
X128303754Y-86653087D01*
X128423963Y-86907420D01*
X128591481Y-87133414D01*
X128799869Y-87322385D01*
X129041119Y-87467070D01*
X129305960Y-87561909D01*
X129528000Y-87440624D01*
X129528000Y-86297000D01*
X129782000Y-86297000D01*
X129782000Y-87440624D01*
X130004040Y-87561909D01*
X130268881Y-87467070D01*
X130510131Y-87322385D01*
X130718519Y-87133414D01*
X130886037Y-86907420D01*
X131006246Y-86653087D01*
X131046904Y-86519039D01*
X135883096Y-86519039D01*
X135923754Y-86653087D01*
X136043963Y-86907420D01*
X136211481Y-87133414D01*
X136419869Y-87322385D01*
X136661119Y-87467070D01*
X136925960Y-87561909D01*
X137148000Y-87440624D01*
X137148000Y-86297000D01*
X137402000Y-86297000D01*
X137402000Y-87440624D01*
X137624040Y-87561909D01*
X137888881Y-87467070D01*
X138130131Y-87322385D01*
X138338519Y-87133414D01*
X138506037Y-86907420D01*
X138626246Y-86653087D01*
X138666904Y-86519039D01*
X138544915Y-86297000D01*
X137402000Y-86297000D01*
X137148000Y-86297000D01*
X136005085Y-86297000D01*
X135883096Y-86519039D01*
X131046904Y-86519039D01*
X130924915Y-86297000D01*
X129782000Y-86297000D01*
X129528000Y-86297000D01*
X128385085Y-86297000D01*
X128263096Y-86519039D01*
X120015000Y-86519039D01*
X120015000Y-85820961D01*
X128263096Y-85820961D01*
X128385085Y-86043000D01*
X129528000Y-86043000D01*
X129528000Y-86023000D01*
X129782000Y-86023000D01*
X129782000Y-86043000D01*
X130924915Y-86043000D01*
X131046904Y-85820961D01*
X135883096Y-85820961D01*
X136005085Y-86043000D01*
X137148000Y-86043000D01*
X137148000Y-86023000D01*
X137402000Y-86023000D01*
X137402000Y-86043000D01*
X138544915Y-86043000D01*
X138666904Y-85820961D01*
X138626246Y-85686913D01*
X138506037Y-85432580D01*
X138338519Y-85206586D01*
X138130131Y-85017615D01*
X137888881Y-84872930D01*
X137624040Y-84778091D01*
X137402002Y-84899375D01*
X137402002Y-84804796D01*
X137618318Y-84761769D01*
X137832519Y-84673044D01*
X138025294Y-84544236D01*
X138189236Y-84380294D01*
X138318044Y-84187519D01*
X138406769Y-83973318D01*
X138452000Y-83745924D01*
X138452000Y-83514076D01*
X138406769Y-83286682D01*
X138318044Y-83072481D01*
X138189236Y-82879706D01*
X138025294Y-82715764D01*
X137832519Y-82586956D01*
X137618318Y-82498231D01*
X137390924Y-82453000D01*
X137159076Y-82453000D01*
X136931682Y-82498231D01*
X136717481Y-82586956D01*
X136524706Y-82715764D01*
X136360764Y-82879706D01*
X136231956Y-83072481D01*
X136143231Y-83286682D01*
X136098000Y-83514076D01*
X136098000Y-83745924D01*
X136143231Y-83973318D01*
X136231956Y-84187519D01*
X136360764Y-84380294D01*
X136524706Y-84544236D01*
X136717481Y-84673044D01*
X136931682Y-84761769D01*
X137147998Y-84804796D01*
X137147998Y-84899375D01*
X136925960Y-84778091D01*
X136661119Y-84872930D01*
X136419869Y-85017615D01*
X136211481Y-85206586D01*
X136043963Y-85432580D01*
X135923754Y-85686913D01*
X135883096Y-85820961D01*
X131046904Y-85820961D01*
X131006246Y-85686913D01*
X130886037Y-85432580D01*
X130718519Y-85206586D01*
X130510131Y-85017615D01*
X130268881Y-84872930D01*
X130089863Y-84808824D01*
X130455000Y-84808824D01*
X130528905Y-84801545D01*
X130599970Y-84779988D01*
X130665463Y-84744981D01*
X130722869Y-84697869D01*
X130769981Y-84640463D01*
X130804988Y-84574970D01*
X130826545Y-84503905D01*
X130833824Y-84430000D01*
X130833824Y-82830000D01*
X130826545Y-82756095D01*
X130804988Y-82685030D01*
X130769981Y-82619537D01*
X130722869Y-82562131D01*
X130665463Y-82515019D01*
X130599970Y-82480012D01*
X130528905Y-82458455D01*
X130455000Y-82451176D01*
X128855000Y-82451176D01*
X128781095Y-82458455D01*
X128710030Y-82480012D01*
X128644537Y-82515019D01*
X128587131Y-82562131D01*
X128540019Y-82619537D01*
X128505012Y-82685030D01*
X128483455Y-82756095D01*
X128476176Y-82830000D01*
X128476176Y-84430000D01*
X128483455Y-84503905D01*
X128505012Y-84574970D01*
X128540019Y-84640463D01*
X128587131Y-84697869D01*
X128644537Y-84744981D01*
X128710030Y-84779988D01*
X128781095Y-84801545D01*
X128855000Y-84808824D01*
X129220137Y-84808824D01*
X129041119Y-84872930D01*
X128799869Y-85017615D01*
X128591481Y-85206586D01*
X128423963Y-85432580D01*
X128303754Y-85686913D01*
X128263096Y-85820961D01*
X120015000Y-85820961D01*
X120015000Y-79756000D01*
X120012560Y-79731224D01*
X120005333Y-79707399D01*
X119993597Y-79685443D01*
X119977803Y-79666197D01*
X119958557Y-79650403D01*
X119936601Y-79638667D01*
X119912776Y-79631440D01*
X119888000Y-79629000D01*
X116737639Y-79629000D01*
X116735000Y-78585750D01*
X116576250Y-78427000D01*
X114727000Y-78427000D01*
X114727000Y-78447000D01*
X114473000Y-78447000D01*
X114473000Y-78427000D01*
X114453000Y-78427000D01*
X114453000Y-78173000D01*
X114473000Y-78173000D01*
X114473000Y-78153000D01*
X114727000Y-78153000D01*
X114727000Y-78173000D01*
X116576250Y-78173000D01*
X116735000Y-78014250D01*
X116738072Y-76800000D01*
X116725812Y-76675518D01*
X116689502Y-76555820D01*
X116630537Y-76445506D01*
X116551185Y-76348815D01*
X116524603Y-76327000D01*
X119888000Y-76327000D01*
X119912776Y-76324560D01*
X119936601Y-76317333D01*
X119958557Y-76305597D01*
X119977803Y-76289803D01*
X119993597Y-76270557D01*
X120005333Y-76248601D01*
X120012560Y-76224776D01*
X120015000Y-76200000D01*
X120015000Y-75689039D01*
X128408096Y-75689039D01*
X128448754Y-75823087D01*
X128568963Y-76077420D01*
X128736481Y-76303414D01*
X128944869Y-76492385D01*
X129186119Y-76637070D01*
X129450960Y-76731909D01*
X129673000Y-76610624D01*
X129673000Y-75467000D01*
X129927000Y-75467000D01*
X129927000Y-76610624D01*
X130149040Y-76731909D01*
X130413881Y-76637070D01*
X130655131Y-76492385D01*
X130863519Y-76303414D01*
X131031037Y-76077420D01*
X131151246Y-75823087D01*
X131191904Y-75689039D01*
X136028096Y-75689039D01*
X136068754Y-75823087D01*
X136188963Y-76077420D01*
X136356481Y-76303414D01*
X136564869Y-76492385D01*
X136806119Y-76637070D01*
X137070960Y-76731909D01*
X137293000Y-76610624D01*
X137293000Y-75467000D01*
X137547000Y-75467000D01*
X137547000Y-76610624D01*
X137769040Y-76731909D01*
X138033881Y-76637070D01*
X138275131Y-76492385D01*
X138483519Y-76303414D01*
X138651037Y-76077420D01*
X138771246Y-75823087D01*
X138811904Y-75689039D01*
X138689915Y-75467000D01*
X137547000Y-75467000D01*
X137293000Y-75467000D01*
X136150085Y-75467000D01*
X136028096Y-75689039D01*
X131191904Y-75689039D01*
X131069915Y-75467000D01*
X129927000Y-75467000D01*
X129673000Y-75467000D01*
X128530085Y-75467000D01*
X128408096Y-75689039D01*
X120015000Y-75689039D01*
X120015000Y-74990961D01*
X128408096Y-74990961D01*
X128530085Y-75213000D01*
X129673000Y-75213000D01*
X129673000Y-75193000D01*
X129927000Y-75193000D01*
X129927000Y-75213000D01*
X131069915Y-75213000D01*
X131191904Y-74990961D01*
X136028096Y-74990961D01*
X136150085Y-75213000D01*
X137293000Y-75213000D01*
X137293000Y-75193000D01*
X137547000Y-75193000D01*
X137547000Y-75213000D01*
X138689915Y-75213000D01*
X138811904Y-74990961D01*
X138771246Y-74856913D01*
X138651037Y-74602580D01*
X138483519Y-74376586D01*
X138275131Y-74187615D01*
X138033881Y-74042930D01*
X137769040Y-73948091D01*
X137547002Y-74069375D01*
X137547002Y-73974796D01*
X137763318Y-73931769D01*
X137977519Y-73843044D01*
X138170294Y-73714236D01*
X138334236Y-73550294D01*
X138463044Y-73357519D01*
X138551769Y-73143318D01*
X138597000Y-72915924D01*
X138597000Y-72684076D01*
X138551769Y-72456682D01*
X138463044Y-72242481D01*
X138334236Y-72049706D01*
X138170294Y-71885764D01*
X137977519Y-71756956D01*
X137763318Y-71668231D01*
X137535924Y-71623000D01*
X137304076Y-71623000D01*
X137076682Y-71668231D01*
X136862481Y-71756956D01*
X136669706Y-71885764D01*
X136505764Y-72049706D01*
X136376956Y-72242481D01*
X136288231Y-72456682D01*
X136243000Y-72684076D01*
X136243000Y-72915924D01*
X136288231Y-73143318D01*
X136376956Y-73357519D01*
X136505764Y-73550294D01*
X136669706Y-73714236D01*
X136862481Y-73843044D01*
X137076682Y-73931769D01*
X137292998Y-73974796D01*
X137292998Y-74069375D01*
X137070960Y-73948091D01*
X136806119Y-74042930D01*
X136564869Y-74187615D01*
X136356481Y-74376586D01*
X136188963Y-74602580D01*
X136068754Y-74856913D01*
X136028096Y-74990961D01*
X131191904Y-74990961D01*
X131151246Y-74856913D01*
X131031037Y-74602580D01*
X130863519Y-74376586D01*
X130655131Y-74187615D01*
X130413881Y-74042930D01*
X130234863Y-73978824D01*
X130600000Y-73978824D01*
X130673905Y-73971545D01*
X130744970Y-73949988D01*
X130810463Y-73914981D01*
X130867869Y-73867869D01*
X130914981Y-73810463D01*
X130949988Y-73744970D01*
X130971545Y-73673905D01*
X130978824Y-73600000D01*
X130978824Y-72000000D01*
X130971545Y-71926095D01*
X130949988Y-71855030D01*
X130914981Y-71789537D01*
X130867869Y-71732131D01*
X130810463Y-71685019D01*
X130744970Y-71650012D01*
X130673905Y-71628455D01*
X130600000Y-71621176D01*
X129000000Y-71621176D01*
X128926095Y-71628455D01*
X128855030Y-71650012D01*
X128789537Y-71685019D01*
X128732131Y-71732131D01*
X128685019Y-71789537D01*
X128650012Y-71855030D01*
X128628455Y-71926095D01*
X128621176Y-72000000D01*
X128621176Y-73600000D01*
X128628455Y-73673905D01*
X128650012Y-73744970D01*
X128685019Y-73810463D01*
X128732131Y-73867869D01*
X128789537Y-73914981D01*
X128855030Y-73949988D01*
X128926095Y-73971545D01*
X129000000Y-73978824D01*
X129365137Y-73978824D01*
X129186119Y-74042930D01*
X128944869Y-74187615D01*
X128736481Y-74376586D01*
X128568963Y-74602580D01*
X128448754Y-74856913D01*
X128408096Y-74990961D01*
X120015000Y-74990961D01*
X120015000Y-63089039D01*
X128208096Y-63089039D01*
X128248754Y-63223087D01*
X128368963Y-63477420D01*
X128536481Y-63703414D01*
X128744869Y-63892385D01*
X128986119Y-64037070D01*
X129250960Y-64131909D01*
X129473000Y-64010624D01*
X129473000Y-62867000D01*
X129727000Y-62867000D01*
X129727000Y-64010624D01*
X129949040Y-64131909D01*
X130213881Y-64037070D01*
X130455131Y-63892385D01*
X130663519Y-63703414D01*
X130831037Y-63477420D01*
X130951246Y-63223087D01*
X130991904Y-63089039D01*
X135828096Y-63089039D01*
X135868754Y-63223087D01*
X135988963Y-63477420D01*
X136156481Y-63703414D01*
X136364869Y-63892385D01*
X136606119Y-64037070D01*
X136870960Y-64131909D01*
X137093000Y-64010624D01*
X137093000Y-62867000D01*
X137347000Y-62867000D01*
X137347000Y-64010624D01*
X137569040Y-64131909D01*
X137833881Y-64037070D01*
X138075131Y-63892385D01*
X138283519Y-63703414D01*
X138451037Y-63477420D01*
X138571246Y-63223087D01*
X138611904Y-63089039D01*
X138489915Y-62867000D01*
X137347000Y-62867000D01*
X137093000Y-62867000D01*
X135950085Y-62867000D01*
X135828096Y-63089039D01*
X130991904Y-63089039D01*
X130869915Y-62867000D01*
X129727000Y-62867000D01*
X129473000Y-62867000D01*
X128330085Y-62867000D01*
X128208096Y-63089039D01*
X120015000Y-63089039D01*
X120015000Y-62390961D01*
X128208096Y-62390961D01*
X128330085Y-62613000D01*
X129473000Y-62613000D01*
X129473000Y-62593000D01*
X129727000Y-62593000D01*
X129727000Y-62613000D01*
X130869915Y-62613000D01*
X130991904Y-62390961D01*
X135828096Y-62390961D01*
X135950085Y-62613000D01*
X137093000Y-62613000D01*
X137093000Y-62593000D01*
X137347000Y-62593000D01*
X137347000Y-62613000D01*
X138489915Y-62613000D01*
X138611904Y-62390961D01*
X138571246Y-62256913D01*
X138451037Y-62002580D01*
X138283519Y-61776586D01*
X138075131Y-61587615D01*
X137833881Y-61442930D01*
X137569040Y-61348091D01*
X137347002Y-61469375D01*
X137347002Y-61374796D01*
X137563318Y-61331769D01*
X137777519Y-61243044D01*
X137970294Y-61114236D01*
X138134236Y-60950294D01*
X138263044Y-60757519D01*
X138351769Y-60543318D01*
X138397000Y-60315924D01*
X138397000Y-60084076D01*
X138351769Y-59856682D01*
X138263044Y-59642481D01*
X138134236Y-59449706D01*
X137970294Y-59285764D01*
X137777519Y-59156956D01*
X137563318Y-59068231D01*
X137335924Y-59023000D01*
X137104076Y-59023000D01*
X136876682Y-59068231D01*
X136662481Y-59156956D01*
X136469706Y-59285764D01*
X136305764Y-59449706D01*
X136176956Y-59642481D01*
X136088231Y-59856682D01*
X136043000Y-60084076D01*
X136043000Y-60315924D01*
X136088231Y-60543318D01*
X136176956Y-60757519D01*
X136305764Y-60950294D01*
X136469706Y-61114236D01*
X136662481Y-61243044D01*
X136876682Y-61331769D01*
X137092998Y-61374796D01*
X137092998Y-61469375D01*
X136870960Y-61348091D01*
X136606119Y-61442930D01*
X136364869Y-61587615D01*
X136156481Y-61776586D01*
X135988963Y-62002580D01*
X135868754Y-62256913D01*
X135828096Y-62390961D01*
X130991904Y-62390961D01*
X130951246Y-62256913D01*
X130831037Y-62002580D01*
X130663519Y-61776586D01*
X130455131Y-61587615D01*
X130213881Y-61442930D01*
X130034863Y-61378824D01*
X130400000Y-61378824D01*
X130473905Y-61371545D01*
X130544970Y-61349988D01*
X130610463Y-61314981D01*
X130667869Y-61267869D01*
X130714981Y-61210463D01*
X130749988Y-61144970D01*
X130771545Y-61073905D01*
X130778824Y-61000000D01*
X130778824Y-59400000D01*
X130771545Y-59326095D01*
X130749988Y-59255030D01*
X130714981Y-59189537D01*
X130667869Y-59132131D01*
X130610463Y-59085019D01*
X130544970Y-59050012D01*
X130473905Y-59028455D01*
X130400000Y-59021176D01*
X128800000Y-59021176D01*
X128726095Y-59028455D01*
X128655030Y-59050012D01*
X128589537Y-59085019D01*
X128532131Y-59132131D01*
X128485019Y-59189537D01*
X128450012Y-59255030D01*
X128428455Y-59326095D01*
X128421176Y-59400000D01*
X128421176Y-61000000D01*
X128428455Y-61073905D01*
X128450012Y-61144970D01*
X128485019Y-61210463D01*
X128532131Y-61267869D01*
X128589537Y-61314981D01*
X128655030Y-61349988D01*
X128726095Y-61371545D01*
X128800000Y-61378824D01*
X129165137Y-61378824D01*
X128986119Y-61442930D01*
X128744869Y-61587615D01*
X128536481Y-61776586D01*
X128368963Y-62002580D01*
X128248754Y-62256913D01*
X128208096Y-62390961D01*
X120015000Y-62390961D01*
X120015000Y-56007000D01*
X146177000Y-56007000D01*
X146177000Y-62484000D01*
M02*
